
<svg width="150" height="88" viewBox="0 0 150 88" fill="none" xmlns="http://www.w3.org/2000/svg">
<path d="M32.5191 78.2343V81.2429H37.7889V83.3578H32.5191V87.5037H29.8902V76.123H38.487V78.2343H32.5191Z" fill="#D52C27"/>
<path d="M41.4702 76.123H44.1042V87.5037H41.4702V76.123Z" fill="#D52C27"/>
<path d="M52.7759 78.2684H50.6306V82.2339H52.7759C54.3883 82.2339 55.1971 81.4848 55.1971 80.252C55.1971 78.9989 54.3883 78.2684 52.7759 78.2684ZM55.2465 87.5004L53.0517 84.3283H52.9223H50.6306V87.5004H47.9965V76.123H52.9223C55.9633 76.123 57.8652 77.698 57.8652 80.252C57.8652 81.9598 57.0019 83.2079 55.524 83.8413L58.0763 87.4986H55.2482L55.2465 87.5004Z" fill="#D52C27"/>
<path d="M69.9557 85.3857V87.5021H61.1427V76.123H69.7412V78.2344H63.7597V80.705H69.0448V82.7533H63.7597V85.3857H69.9557Z" fill="#D52C27"/>
<path d="M75.6053 78.2684H71.965V76.123H81.878V78.2684H78.236V87.5004H75.6053V78.2684Z" fill="#D52C27"/>
<path d="M93.3012 85.3857V87.5021H84.4899V76.123H93.0883V78.2344H87.1069V80.705H92.3903V82.7533H87.1069V85.3857H93.3012Z" fill="#D52C27"/>
<path d="M95.8482 81.8103C95.8482 78.3811 98.4822 75.9258 102.025 75.9258C103.994 75.9258 105.637 76.6392 106.708 77.9401L105.017 79.5014C104.256 78.6211 103.292 78.17 102.157 78.17C100.027 78.17 98.5146 79.665 98.5146 81.8103C98.5146 83.954 100.025 85.4523 102.157 85.4523C103.292 85.4523 104.254 84.9977 105.017 84.1021L106.708 85.6635C105.637 86.983 103.994 87.6947 102.008 87.6947C98.4822 87.6947 95.8482 85.2395 95.8482 81.8103Z" fill="#D52C27"/>
<path d="M120.113 76.123V87.5021H117.481V82.8367H112.308V87.5021H109.677V76.123H112.308V80.6062H117.481V76.123H120.113Z" fill="#D52C27"/>
<path d="M150 69.2548H142.461V55.5005C142.461 54.0788 141.969 53.3722 140.983 53.3722C139.978 53.3722 139.464 54.0788 139.464 55.5005V69.2548H131.928V55.8444C131.928 54.8977 131.824 54.2422 131.618 53.8983C131.41 53.5458 131.019 53.3738 130.455 53.3738C129.444 53.3738 128.941 54.2014 128.941 55.8462V69.2565H121.393V48.3544H128.705V50.7892C129.891 48.8022 131.764 47.8129 134.31 47.8129C136.719 47.8129 138.374 48.7749 139.258 50.7142H139.294C140.463 48.7749 142.309 47.8129 144.827 47.8129C146.2 47.8129 147.351 48.1722 148.284 48.8975C149.428 49.7931 150 51.1178 150 52.875V69.2565V69.2548ZM111.925 62.0626V59.134C111.326 59.3571 110.437 59.7862 109.242 60.4094C108.826 60.8367 108.617 61.5535 108.617 62.5257C108.617 63.9764 109.131 64.6898 110.135 64.6898C111.327 64.6898 111.927 63.8198 111.927 62.0626H111.925ZM119.464 69.2548H112.386C112.162 68.6606 112.039 68.0935 112.039 67.5486V67.0481H112.007C111.615 67.5402 111.234 68.0322 110.871 68.5208C109.945 69.3671 108.663 69.7962 107.025 69.7962C103.223 69.7962 101.316 67.6798 101.316 63.4589C101.316 61.2709 101.82 59.6943 102.833 58.7476C103.744 57.8707 105.484 57.1726 108.082 56.655C110.076 56.277 111.157 55.938 111.339 55.6537C111.729 55.2655 111.928 54.7666 111.928 54.1469C111.928 53.0095 111.419 52.4425 110.415 52.4425C109.79 52.4425 109.322 52.691 109.01 53.1831C108.698 53.6752 108.584 54.2268 108.664 54.8449H102.055C102.055 52.6501 102.564 51.0208 103.568 49.9362C104.895 48.5145 107.207 47.8112 110.527 47.8112C113.399 47.8112 115.465 48.2658 116.701 49.1614C118.08 50.1421 118.763 51.8415 118.763 54.2593V66.396C118.763 66.9136 118.833 67.3954 118.962 67.8586L119.154 68.4799C119.284 68.9175 119.388 69.178 119.466 69.253L119.464 69.2548ZM99.756 69.2548H92.2165V55.1548C92.2165 53.9664 91.7228 53.3722 90.7369 53.3722C89.734 53.3722 89.2198 54.0004 89.2198 55.2672V69.2548H81.6838V41.6679H89.2198V50.745H89.2624C89.7477 50.178 90.2414 49.6161 90.7352 49.0491C91.7211 48.2216 93.0049 47.8095 94.5798 47.8095C96.2195 47.8095 97.4846 48.2829 98.3938 49.2194C99.2945 50.161 99.7542 51.3733 99.7542 52.8733V69.2548H99.756ZM72.3549 58.5482C72.3549 56.6191 72.251 55.3013 72.0501 54.6134C71.8169 53.7859 71.3078 53.3722 70.5348 53.3722C69.9133 53.3722 69.4774 53.7859 69.2526 54.6134C69.0466 55.3286 68.9428 56.6446 68.9428 58.5482C68.9428 60.6085 69.0279 62.037 69.2101 62.839C69.445 63.7704 69.886 64.2336 70.5348 64.2336C71.3316 64.2336 71.8526 63.7704 72.0859 62.839C72.2681 62.1681 72.3549 60.7362 72.3549 58.5482ZM79.8994 58.4699C79.8994 62.5189 79.4601 65.388 78.585 67.0924C77.623 68.8938 75.9833 69.7962 73.6643 69.7962C72.0876 69.7962 70.8736 69.4181 70.0274 68.6707C69.3838 68.0849 69.0568 67.4362 69.0568 66.7415H68.9462V69.2548H61.5208V41.6679H69.0568V50.8215C69.0824 50.3584 69.4706 49.7897 70.2266 49.124C71.1698 48.2471 72.2953 47.8095 73.5945 47.8095C76.0037 47.8095 77.686 48.7391 78.6463 50.5882C79.4874 52.1921 79.9011 54.8194 79.9011 58.4699H79.8994ZM59.4197 69.253H52.1085V66.8574C51.0443 68.8121 49.1901 69.7945 46.5561 69.7945C45.3267 69.7945 44.2881 69.5102 43.4232 68.9432C42.044 68.0663 41.351 66.6088 41.351 64.5758V48.3509H48.887V61.3287C48.887 62.4405 48.9619 63.1643 49.1203 63.4895C49.3025 63.9815 49.7264 64.2319 50.4024 64.2319C51.3916 64.2319 51.8752 63.3004 51.8752 61.4479V48.3493H59.418V69.2513L59.4197 69.253ZM39.2533 69.253H31.7105V55.1532C31.7105 53.9647 31.2235 53.3705 30.2343 53.3705C29.2229 53.3705 28.7206 53.9988 28.7206 55.2656V69.253H21.1812V41.6663H28.7206V50.7432H28.7615C29.2484 50.1762 29.7422 49.6143 30.2343 49.0473C31.2218 48.2198 32.5039 47.8079 34.0806 47.8079C35.7101 47.8079 36.982 48.2811 37.8929 49.2176C38.7936 50.1592 39.2516 51.3715 39.2516 52.8715V69.253H39.2533ZM19.3917 61.0615C19.3917 64.363 18.4365 66.7041 16.5227 68.0935C14.9358 69.2292 12.5367 69.7962 9.33233 69.7962C6.24879 69.7962 4.02341 69.2905 2.64424 68.2927C0.885388 66.9476 0 64.5178 0 60.9882H7.53942C7.53942 62.1426 7.5905 62.9157 7.69436 63.3022C7.95657 64.2336 8.53548 64.6898 9.4447 64.6898C10.7455 64.6898 11.3874 63.8947 11.3874 62.2959C11.3874 61.0615 10.8511 60.1249 9.75799 59.4762C8.66829 58.9875 7.58539 58.4956 6.49228 58.0035C4.26689 56.8252 2.88091 55.9722 2.33436 55.4563C0.967114 54.198 0.275831 52.4578 0.275831 50.2443C0.275831 44.1641 3.33383 41.123 9.44641 41.123C13.2059 41.123 15.7991 42.0034 17.2191 43.7504C18.2305 45.0155 18.7345 46.9616 18.7345 49.5922H11.43C11.5884 47.3413 10.9805 46.2226 9.60475 46.2226C8.40778 46.2226 7.81866 46.936 7.81866 48.3509C7.81866 49.4355 8.28689 50.3039 9.21484 50.9748C9.55027 51.2353 10.3914 51.649 11.7433 52.2177C14.0232 53.1916 15.2559 53.7262 15.4347 53.7944C16.6998 54.4908 17.6533 55.3269 18.2679 56.3076C19.0205 57.4944 19.3968 59.0812 19.3968 61.0597L19.3917 61.0615Z" fill="white"/>
<path fillRule="evenodd" clipRule="evenodd" d="M66.8688 34.0722C63.552 30.7571 61.4985 26.1923 61.4985 21.1438C61.4985 16.3389 63.3613 11.9613 66.4107 8.70067L60.9877 3.30664C56.5506 7.95835 53.8314 14.2361 53.8314 21.1438C53.8314 28.2951 56.7413 34.7703 61.456 39.4646L66.8688 34.0722ZM93.4372 8.70067C96.4884 11.9613 98.3511 16.3389 98.3511 21.1438C98.3511 26.1923 96.296 30.7571 92.9775 34.0722L98.392 39.4646C103.105 34.7703 106.017 28.2951 106.017 21.1438C106.017 14.2361 103.294 7.95835 98.8585 3.30664L93.4355 8.70067H93.4372Z" fill="#D52C27"/>
<path fillRule="evenodd" clipRule="evenodd" d="M64.2434 0.139673L64.4256 0H72.8402C75.4368 8.68365 95.753 3.42926 95.753 21.1456C95.753 29.8361 88.6648 36.8818 79.925 36.8818C71.1852 36.8818 64.097 29.8378 64.097 21.1456C64.097 17.0541 65.672 13.3252 68.2549 10.5277L74.25 16.4837C73.196 17.7505 72.5644 19.3817 72.5644 21.144C72.5644 25.1929 75.8624 28.4655 79.9267 28.4655C83.991 28.4655 87.2907 25.1929 87.2907 21.144C87.2907 9.28481 66.2134 14.7878 64.2451 0.13801L64.2434 0.139673Z" fill="#252523"/>
<path fillRule="evenodd" clipRule="evenodd" d="M74.8578 17.8405C72.2697 22.8702 76.0445 27.1676 79.8909 26.9684C83.7372 27.1676 87.5222 22.8702 84.9257 17.8405C82.3342 12.8022 80.1701 6.38478 79.9011 5.13672C79.7444 6.72872 77.4577 12.8022 74.8595 17.8405H74.8578Z" fill="#E12629"/>
<path fillRule="evenodd" clipRule="evenodd" d="M79.8806 5.28682C79.8993 5.30726 79.9214 5.32442 79.947 5.33804L79.8993 5.13867L79.8806 5.28682Z" fill="#F4961B"/>
<path fillRule="evenodd" clipRule="evenodd" d="M79.8636 5.39255C79.896 5.41468 79.9335 5.43342 79.9743 5.44193L79.9335 5.28347C79.9147 5.26985 79.9011 5.25285 79.8892 5.23242L79.8636 5.39255Z" fill="#F4961B"/>
<path fillRule="evenodd" clipRule="evenodd" d="M79.8448 5.48575C79.8925 5.51129 79.9453 5.52833 80.0015 5.53514L79.9606 5.38698C79.9283 5.37507 79.8976 5.35807 79.8721 5.33594L79.8448 5.48575Z" fill="#F4961B"/>
<path fillRule="evenodd" clipRule="evenodd" d="M79.8279 5.57884C79.8875 5.60948 79.9556 5.62664 80.0271 5.63005L79.9862 5.48688C79.9385 5.47837 79.8943 5.46134 79.8551 5.4375L79.8262 5.57884H79.8279Z" fill="#F3941B"/>
<path fillRule="evenodd" clipRule="evenodd" d="M79.8091 5.66257C79.8824 5.69492 79.9641 5.71378 80.0492 5.71378H80.0526L80.0152 5.58259C79.9505 5.57748 79.8909 5.56045 79.8381 5.5332L79.8091 5.66257Z" fill="#F3941B"/>
<path fillRule="evenodd" clipRule="evenodd" d="M79.7888 5.75075C79.8671 5.7831 79.9556 5.80196 80.0476 5.80196H80.0765L80.039 5.67426C79.9607 5.67256 79.8858 5.6554 79.8177 5.62305L79.7888 5.75258V5.75075Z" fill="#F3941B"/>
<path fillRule="evenodd" clipRule="evenodd" d="M79.7665 5.83723C79.8533 5.87128 79.9487 5.88828 80.0474 5.88828L80.1036 5.88661L80.0627 5.75027H80.0474C79.9589 5.75027 79.8755 5.73157 79.7988 5.69922L79.7665 5.8354V5.83723Z" fill="#F3941B"/>
<path fillRule="evenodd" clipRule="evenodd" d="M79.7461 5.9279C79.8397 5.96195 79.9419 5.98244 80.0475 5.98244L80.1275 5.97895L80.0883 5.84792H80.0475C79.9521 5.84792 79.8602 5.82923 79.7784 5.79688L79.7461 5.9279Z" fill="#F39219"/>
<path fillRule="evenodd" clipRule="evenodd" d="M79.7239 6.00844C79.8244 6.0459 79.9317 6.06447 80.0457 6.06447C80.0832 6.06447 80.119 6.06293 80.1547 6.05782L80.1155 5.93012L80.0457 5.93345C79.9436 5.93345 79.8465 5.91296 79.7563 5.87891L79.7239 6.00661V6.00844Z" fill="#F39219"/>
<path fillRule="evenodd" clipRule="evenodd" d="M79.7018 6.09853C79.8091 6.13599 79.9249 6.15639 80.0458 6.15639C80.0918 6.15639 80.136 6.15302 80.1803 6.14791L80.1411 6.02204L80.0458 6.02703C79.9368 6.02703 79.833 6.00841 79.7359 5.97266L79.7018 6.10036V6.09853Z" fill="#F39219"/>
<path fillRule="evenodd" clipRule="evenodd" d="M79.678 6.17944C79.7938 6.2203 79.9181 6.24246 80.0458 6.24246C80.1003 6.24246 80.1548 6.239 80.2076 6.23049L80.165 6.09431C80.1258 6.09941 80.0867 6.10112 80.0458 6.10112C79.9283 6.10112 79.8177 6.08238 79.7138 6.04492L79.678 6.17778V6.17944Z" fill="#F39219"/>
<path fillRule="evenodd" clipRule="evenodd" d="M79.6559 6.26833C79.7785 6.30919 79.9096 6.33301 80.0475 6.33301C80.1105 6.33301 80.1735 6.32793 80.2348 6.31771L80.1956 6.19167C80.1463 6.19848 80.0969 6.20181 80.0475 6.20181C79.9232 6.20181 79.804 6.17979 79.6916 6.14062L79.6576 6.26666L79.6559 6.26833Z" fill="#F28E1D"/>
<path fillRule="evenodd" clipRule="evenodd" d="M79.6321 6.3484C79.7615 6.39097 79.9011 6.41475 80.0458 6.41475C80.1191 6.41475 80.1906 6.40804 80.2604 6.39613L80.2212 6.27009C80.165 6.2786 80.1054 6.28372 80.0458 6.28372C79.913 6.28372 79.7853 6.26157 79.6661 6.2207L79.6321 6.34674V6.3484Z" fill="#F2901A"/>
<path fillRule="evenodd" clipRule="evenodd" d="M79.6083 6.43629C79.7462 6.48227 79.8943 6.50613 80.0459 6.50613C80.1276 6.50613 80.2076 6.4993 80.2859 6.48568L80.2468 6.35964C80.1821 6.36986 80.114 6.37494 80.0476 6.37494C79.9062 6.37494 79.77 6.35116 79.644 6.30859L79.6083 6.43463V6.43629Z" fill="#F28E1B"/>
<path fillRule="evenodd" clipRule="evenodd" d="M79.5825 6.52095C79.7289 6.56862 79.8856 6.59411 80.049 6.59411C80.141 6.59411 80.2295 6.58569 80.3164 6.56867L80.2738 6.43581C80.2006 6.44773 80.1257 6.4546 80.0473 6.4546C79.8975 6.4546 79.7545 6.43074 79.62 6.38477L79.5808 6.51762L79.5825 6.52095Z" fill="#F28E1B"/>
<path fillRule="evenodd" clipRule="evenodd" d="M79.557 6.61041C79.7102 6.66149 79.8754 6.6869 80.0474 6.6869C80.1478 6.6869 80.2466 6.6767 80.3419 6.65797L80.3028 6.53542C80.2193 6.55075 80.1342 6.55754 80.0474 6.55754C79.889 6.55754 79.7358 6.53205 79.5945 6.48438L79.557 6.60858V6.61041Z" fill="#F28C1C"/>
<path fillRule="evenodd" clipRule="evenodd" d="M79.5333 6.68338C79.6951 6.73617 79.8687 6.76519 80.0475 6.76519C80.1582 6.76519 80.2655 6.75503 80.3693 6.7346L80.3302 6.61188C80.2382 6.62891 80.1446 6.63749 80.0475 6.63749C79.8807 6.63749 79.7189 6.61017 79.5691 6.5625L79.5333 6.68521V6.68338Z" fill="#F28C1C"/>
<path fillRule="evenodd" clipRule="evenodd" d="M79.5061 6.78325C79.6764 6.83773 79.8586 6.86838 80.0493 6.86838C80.1684 6.86838 80.2859 6.85647 80.4 6.83263L80.3574 6.7016C80.257 6.72033 80.1548 6.73054 80.0493 6.73054C79.8739 6.73054 79.7053 6.70147 79.547 6.65039L79.5078 6.78325H79.5061Z" fill="#F18A1C"/>
<path fillRule="evenodd" clipRule="evenodd" d="M79.4789 6.8654C79.6577 6.92329 79.8484 6.95403 80.0459 6.95403C80.1753 6.95403 80.303 6.94033 80.4256 6.91479L80.3813 6.78193C80.2723 6.80407 80.1599 6.81602 80.0442 6.81602C79.8603 6.81602 79.6849 6.78716 79.518 6.73438L79.4772 6.86706L79.4789 6.8654Z" fill="#F18A1C"/>
<path fillRule="evenodd" clipRule="evenodd" d="M79.4548 6.95026C79.6404 7.00985 79.8396 7.04221 80.0457 7.04221C80.1853 7.04221 80.3215 7.02676 80.4526 6.99781L80.4117 6.8736C80.2942 6.89914 80.1717 6.91102 80.0457 6.91102C79.8533 6.91102 79.6677 6.88041 79.4923 6.82422L79.4548 6.94843V6.95026Z" fill="#F1881C"/>
<path fillRule="evenodd" clipRule="evenodd" d="M79.4294 7.02448C79.6235 7.08747 79.8313 7.11992 80.0475 7.11992C80.1956 7.11992 80.3404 7.10285 80.48 7.0722L80.4391 6.94965C80.3131 6.97689 80.1803 6.99039 80.0458 6.99039C79.8432 6.99039 79.6491 6.95803 79.4669 6.89844L79.4294 7.02115V7.02448Z" fill="#F1881C"/>
<path fillRule="evenodd" clipRule="evenodd" d="M79.4005 7.12155C79.6048 7.18625 79.8211 7.22198 80.0475 7.22198C80.2059 7.22198 80.3625 7.20499 80.5107 7.17094L80.4664 7.03974C80.3302 7.07039 80.1905 7.0858 80.0475 7.0858C79.8364 7.0858 79.6338 7.05348 79.4431 6.99219L79.4022 7.12321L79.4005 7.12155Z" fill="#F1881C"/>
<path fillRule="evenodd" clipRule="evenodd" d="M79.3733 7.19676C79.5844 7.26487 79.8109 7.30235 80.0458 7.30235C80.2144 7.30235 80.3779 7.28373 80.5362 7.24798L80.4953 7.1236C80.3506 7.15595 80.2008 7.17299 80.0458 7.17299C79.8245 7.17299 79.6117 7.13892 79.4124 7.07422L79.3733 7.19676Z" fill="#F1881C"/>
<path fillRule="evenodd" clipRule="evenodd" d="M79.3477 7.28453C79.569 7.35434 79.804 7.39344 80.0475 7.39344C80.2245 7.39344 80.3982 7.37137 80.5651 7.33392L80.5242 7.21137C80.371 7.24542 80.2126 7.26408 80.0475 7.26408C79.8176 7.26408 79.5962 7.22826 79.3885 7.16016L79.3477 7.28619V7.28453Z" fill="#F1881C"/>
<path fillRule="evenodd" clipRule="evenodd" d="M79.3205 7.36054C79.5487 7.43375 79.7938 7.47128 80.0475 7.47128C80.2348 7.47128 80.417 7.44912 80.5924 7.40826L80.5515 7.28738C80.3898 7.32483 80.2212 7.34358 80.0475 7.34358C79.8075 7.34358 79.5776 7.30614 79.3614 7.23633L79.3205 7.35887V7.36054Z" fill="#F1861D"/>
<path fillRule="evenodd" clipRule="evenodd" d="M79.2915 7.45387C79.5299 7.53049 79.7836 7.57309 80.0475 7.57309C80.2467 7.57309 80.4374 7.54919 80.6213 7.50492L80.577 7.37556C80.4067 7.41472 80.2297 7.43675 80.0458 7.43675C79.7972 7.43675 79.5571 7.39768 79.3307 7.32617L79.2898 7.45387H79.2915Z" fill="#F1861D"/>
<path fillRule="evenodd" clipRule="evenodd" d="M79.2642 7.53482C79.5111 7.61315 79.775 7.65737 80.0474 7.65737C80.2552 7.65737 80.4561 7.63188 80.6502 7.58421L80.6093 7.46332C80.4288 7.50759 80.2415 7.52967 80.0474 7.52967C79.7886 7.52967 79.5383 7.48873 79.3034 7.41211L79.2625 7.53482H79.2642Z" fill="#F1861D"/>
<path fillRule="evenodd" clipRule="evenodd" d="M79.2352 7.62392C79.4906 7.70565 79.763 7.74996 80.0474 7.74996C80.2653 7.74996 80.4765 7.72438 80.6791 7.6733L80.6365 7.54909C80.4475 7.59507 80.25 7.61893 80.0474 7.61893C79.7784 7.61893 79.5213 7.57637 79.2778 7.49805L79.2369 7.62392H79.2352Z" fill="#F1861D"/>
<path fillRule="evenodd" clipRule="evenodd" d="M79.2063 7.70541C79.472 7.79055 79.7546 7.8381 80.0475 7.8381C80.2756 7.8381 80.497 7.81094 80.7098 7.75646L80.6638 7.6236C80.4663 7.67128 80.2603 7.69859 80.0475 7.69859C79.7682 7.69859 79.5009 7.65424 79.2489 7.57422L79.2047 7.70541H79.2063Z" fill="#F0841D"/>
<path fillRule="evenodd" clipRule="evenodd" d="M79.1792 7.79118C79.4533 7.87972 79.7428 7.92753 80.0459 7.92753C80.2842 7.92753 80.5158 7.89676 80.7371 7.84057L80.6929 7.7112C80.4851 7.76228 80.2689 7.78952 80.0459 7.78952C79.7581 7.78952 79.4823 7.74359 79.2235 7.66016L79.1792 7.79118Z" fill="#F0841D"/>
<path fillRule="evenodd" clipRule="evenodd" d="M79.1501 7.87018C79.4311 7.96212 79.7325 8.00985 80.0458 8.00985C80.2943 8.00985 80.5361 7.97745 80.766 7.91956L80.7234 7.79535C80.5072 7.84984 80.279 7.87866 80.0458 7.87866C79.7478 7.87866 79.4617 7.83098 79.1927 7.74414L79.1501 7.86852V7.87018Z" fill="#F0841D"/>
<path fillRule="evenodd" clipRule="evenodd" d="M79.123 7.95653C79.4142 8.05018 79.7241 8.10136 80.0476 8.10136C80.3064 8.10136 80.5567 8.06887 80.7951 8.00758L80.7525 7.88337C80.5277 7.94126 80.2911 7.97183 80.0476 7.97183C79.7394 7.97183 79.4431 7.92252 79.1656 7.83398L79.123 7.95653Z" fill="#F0841D"/>
<path fillRule="evenodd" clipRule="evenodd" d="M79.0923 8.03952C79.392 8.13657 79.7138 8.191 80.0475 8.191C80.3165 8.191 80.577 8.15527 80.8256 8.09057L80.7796 7.95954C80.5464 8.01913 80.2995 8.05149 80.0458 8.05149C79.7274 8.05149 79.4226 8.0021 79.1366 7.91016L79.0906 8.04118L79.0923 8.03952Z" fill="#F0821B"/>
<path fillRule="evenodd" clipRule="evenodd" d="M79.0634 8.13036C79.3732 8.23082 79.7036 8.28533 80.0475 8.28533C80.3267 8.28533 80.5975 8.24968 80.8546 8.18157L80.8103 8.05886C80.5668 8.12186 80.3114 8.15597 80.0475 8.15597C79.7189 8.15597 79.4039 8.10316 79.1076 8.00781L79.0651 8.13219L79.0634 8.13036Z" fill="#F0821B"/>
<path fillRule="evenodd" clipRule="evenodd" d="M79.0343 8.20458C79.3527 8.30844 79.6932 8.36454 80.0457 8.36454C80.3351 8.36454 80.6144 8.32714 80.8817 8.25562L80.8391 8.13308C80.5854 8.19948 80.3198 8.23517 80.0457 8.23517C79.7069 8.23517 79.3816 8.18249 79.0752 8.08203L79.0326 8.20291L79.0343 8.20458Z" fill="#F0821B"/>
<path fillRule="evenodd" clipRule="evenodd" d="M79.0054 8.29276C79.334 8.40003 79.6831 8.45787 80.0475 8.45787C80.3454 8.45787 80.6349 8.41702 80.9107 8.34381L80.8682 8.22292C80.6059 8.29273 80.3318 8.32851 80.0475 8.32851C79.6984 8.32851 79.363 8.27404 79.048 8.17188L79.0054 8.2911V8.29276Z" fill="#F0821B"/>
<path fillRule="evenodd" clipRule="evenodd" d="M78.9747 8.37379C79.3119 8.48447 79.6728 8.54406 80.0474 8.54406C80.3573 8.54406 80.657 8.50312 80.943 8.4265L80.897 8.29714C80.6263 8.36865 80.342 8.40788 80.0474 8.40788C79.6881 8.40788 79.3425 8.35166 79.019 8.24609L78.973 8.37546L78.9747 8.37379Z" fill="#F07F1B"/>
<path fillRule="evenodd" clipRule="evenodd" d="M78.9459 8.45877C79.2932 8.57285 79.6627 8.6342 80.0475 8.6342C80.3676 8.6342 80.6775 8.59168 80.972 8.51165L80.9278 8.3891C80.6468 8.46402 80.3506 8.50483 80.0475 8.50483C79.678 8.50483 79.3221 8.44516 78.9884 8.33789L78.9442 8.4606L78.9459 8.45877Z" fill="#F07F1B"/>
<path fillRule="evenodd" clipRule="evenodd" d="M78.9169 8.53482C79.2727 8.65231 79.6541 8.71523 80.0491 8.71523C80.3778 8.71523 80.6979 8.67096 81.0009 8.58753L80.9567 8.46499C80.6672 8.54331 80.3624 8.58421 80.0491 8.58421C79.6677 8.58421 79.3034 8.52449 78.9611 8.41211L78.9169 8.53482Z" fill="#F07F1B"/>
<path fillRule="evenodd" clipRule="evenodd" d="M78.8845 8.62936C79.2505 8.74855 79.6404 8.8151 80.0457 8.8151C80.3879 8.8151 80.7182 8.76908 81.0332 8.68224L80.9873 8.55288C80.6876 8.6346 80.3726 8.67709 80.0474 8.67709C79.6575 8.67709 79.2829 8.61408 78.9321 8.5L78.8845 8.62936Z" fill="#F07F1B"/>
<path fillRule="evenodd" clipRule="evenodd" d="M78.8539 8.70375C79.2285 8.82804 79.6303 8.89613 80.0457 8.89613C80.3982 8.89613 80.7387 8.84836 81.0605 8.75812L81.0129 8.62543C80.7047 8.71057 80.3795 8.7548 80.044 8.7548C79.6439 8.7548 79.2591 8.6917 78.8998 8.57422L78.8522 8.70375H78.8539Z" fill="#EF7D1C"/>
<path fillRule="evenodd" clipRule="evenodd" d="M78.825 8.79276C79.2098 8.91876 79.6202 8.98863 80.0458 8.98863C80.4068 8.98863 80.7575 8.93924 81.0896 8.8473L81.0453 8.72475C80.7269 8.81329 80.3915 8.85927 80.0441 8.85927C79.6321 8.85927 79.2371 8.79277 78.8676 8.67188L78.8233 8.79276H78.825Z" fill="#EF7D1C"/>
<path fillRule="evenodd" clipRule="evenodd" d="M78.7959 8.87076C79.1892 9.00016 79.6098 9.06996 80.0474 9.06996C80.4202 9.06996 80.7795 9.01882 81.1217 8.92347L81.0775 8.80092C80.7506 8.89287 80.4049 8.9406 80.0474 8.9406C79.6268 8.9406 79.2216 8.87234 78.8419 8.74805L78.7976 8.87076H78.7959Z" fill="#EF7D1C"/>
<path fillRule="evenodd" clipRule="evenodd" d="M78.7636 8.96364C79.1671 9.09815 79.5996 9.17132 80.0474 9.17132C80.4305 9.17132 80.8017 9.11864 81.1525 9.01818L81.1065 8.88865C80.7694 8.98229 80.4152 9.03347 80.0474 9.03347C79.6149 9.03347 79.1995 8.96364 78.8113 8.83594L78.7653 8.96364H78.7636Z" fill="#EF7D1C"/>
<path fillRule="evenodd" clipRule="evenodd" d="M78.733 9.0411C79.1451 9.17731 79.5878 9.25227 80.0475 9.25227C80.4408 9.25227 80.8222 9.19767 81.1832 9.09381L81.1389 8.97458C80.7916 9.07164 80.4255 9.12457 80.0475 9.12457C79.6031 9.12457 79.1774 9.05298 78.7773 8.92188L78.733 9.0411Z" fill="#EF7D1C"/>
<path fillRule="evenodd" clipRule="evenodd" d="M78.704 9.11893C79.1263 9.25855 79.5775 9.33526 80.0474 9.33526C80.451 9.33526 80.8409 9.27904 81.2121 9.17347L81.1678 9.05259C80.8119 9.15304 80.4356 9.20756 80.0474 9.20756C79.5928 9.20756 79.1587 9.13426 78.7483 8.99805L78.704 9.12059V9.11893Z" fill="#EF7D1C"/>
<path fillRule="evenodd" clipRule="evenodd" d="M78.6735 9.20291C79.1042 9.34764 79.5657 9.4244 80.0475 9.4244C80.4613 9.4244 80.8614 9.36642 81.2411 9.25745L81.1968 9.13657C80.8307 9.24043 80.4459 9.29669 80.0475 9.29669C79.5827 9.29669 79.1366 9.22165 78.7177 9.08203L78.6735 9.20125V9.20291Z" fill="#EF7D1C"/>
<path fillRule="evenodd" clipRule="evenodd" d="M78.6393 9.29567C79.082 9.4438 79.5554 9.5238 80.0474 9.5238C80.4731 9.5238 80.8852 9.46425 81.2734 9.35187L81.2257 9.22234C80.8511 9.32961 80.4561 9.38596 80.0457 9.38596C79.569 9.38596 79.1127 9.30929 78.6853 9.16797L78.6376 9.29401L78.6393 9.29567Z" fill="#EF7B1D"/>
<path fillRule="evenodd" clipRule="evenodd" d="M78.6088 9.37242C79.06 9.52396 79.5453 9.60554 80.0476 9.60554C80.4835 9.60554 80.9057 9.54258 81.3041 9.42679L81.2599 9.30425C80.8751 9.41492 80.4681 9.47452 80.0493 9.47452C79.5623 9.47452 79.0941 9.39448 78.6565 9.24805L78.6105 9.37059L78.6088 9.37242Z" fill="#EF7B1D"/>
<path fillRule="evenodd" clipRule="evenodd" d="M78.5798 9.45321C79.0412 9.60815 79.535 9.69331 80.0492 9.69331C80.4953 9.69331 80.926 9.63026 81.3347 9.51107L81.2904 9.38852C80.8971 9.5026 80.48 9.56378 80.0492 9.56378C79.5503 9.56378 79.0736 9.48212 78.6257 9.33398L78.5798 9.45487V9.45321Z" fill="#ED781E"/>
<path fillRule="evenodd" clipRule="evenodd" d="M78.5457 9.54372C79.0174 9.70207 79.5213 9.78898 80.0458 9.78898C80.5055 9.78898 80.9482 9.72251 81.367 9.59992L81.3194 9.47055C80.9158 9.58804 80.4885 9.65097 80.0458 9.65097C79.5384 9.65097 79.0497 9.56755 78.5951 9.41602L78.5474 9.54555L78.5457 9.54372Z" fill="#ED781E"/>
<path fillRule="evenodd" clipRule="evenodd" d="M78.5151 9.61947C78.9953 9.78123 79.5095 9.86806 80.0458 9.86806C80.5158 9.86806 80.9687 9.79984 81.3961 9.67385L81.3484 9.54448C80.9346 9.66537 80.4988 9.73005 80.0458 9.73005C79.5282 9.73005 79.0293 9.64493 78.5645 9.48828L78.5151 9.61764V9.61947Z" fill="#ED781E"/>
<path fillRule="evenodd" clipRule="evenodd" d="M78.4845 9.70125C78.9749 9.86811 79.4993 9.95665 80.0459 9.95665C80.5243 9.95665 80.9891 9.88686 81.4267 9.75745L81.3824 9.63657C80.9602 9.76087 80.5107 9.82895 80.0475 9.82895C79.518 9.82895 79.0072 9.74208 78.5322 9.58203L78.4862 9.70125H78.4845Z" fill="#ED781E"/>
<path fillRule="evenodd" clipRule="evenodd" d="M78.4539 9.7788C78.9527 9.94736 79.4891 10.0394 80.0476 10.0394C80.5379 10.0394 81.0113 9.96781 81.4591 9.835L81.4131 9.71245C80.9806 9.84015 80.5226 9.90833 80.0476 9.90833C79.5061 9.90833 78.9851 9.81971 78.4998 9.65625L78.4539 9.77713V9.7788Z" fill="#ED781E"/>
<path fillRule="evenodd" clipRule="evenodd" d="M78.4197 9.87155C78.9305 10.0452 79.4771 10.1389 80.0475 10.1389C80.5481 10.1389 81.035 10.0657 81.4914 9.92775L81.4437 9.80005C81.001 9.92946 80.5328 10.0009 80.0492 10.0009C79.4975 10.0009 78.9663 9.91075 78.4708 9.74219L78.4214 9.86989L78.4197 9.87155Z" fill="#ED781E"/>
<path fillRule="evenodd" clipRule="evenodd" d="M78.3891 9.94772C78.9101 10.1248 79.4669 10.2203 80.0475 10.2203C80.56 10.2203 81.0538 10.1452 81.5203 10.0056L81.4726 9.87622C81.0214 10.0107 80.543 10.0822 80.0475 10.0822C79.4839 10.0822 78.9442 9.98863 78.4385 9.81836L78.3891 9.94772Z" fill="#EC771E"/>
<path fillRule="evenodd" clipRule="evenodd" d="M78.3585 10.0333C78.8881 10.2138 79.4567 10.3108 80.0493 10.3108C80.572 10.3108 81.076 10.2342 81.5527 10.0911L81.5068 9.97026C81.0453 10.1082 80.5567 10.1831 80.0493 10.1831C79.4738 10.1831 78.9204 10.0877 78.4062 9.91406L78.3602 10.0333H78.3585Z" fill="#EC771E"/>
<path fillRule="evenodd" clipRule="evenodd" d="M78.3243 10.1128C78.8641 10.2967 79.443 10.3971 80.0474 10.3971C80.5804 10.3971 81.0963 10.3189 81.5815 10.1725L81.5356 10.0498C81.0639 10.1911 80.5651 10.2678 80.0474 10.2678C79.4617 10.2678 78.8981 10.1707 78.3737 9.99023L78.326 10.1128H78.3243Z" fill="#EE741E"/>
<path fillRule="evenodd" clipRule="evenodd" d="M78.2903 10.2039C78.842 10.3929 79.4311 10.495 80.0475 10.495C80.5923 10.495 81.1185 10.4134 81.6139 10.2636L81.5646 10.1342C81.0844 10.2789 80.5736 10.3572 80.0458 10.3572C79.4482 10.3572 78.8744 10.2584 78.3397 10.0762L78.2886 10.2057L78.2903 10.2039Z" fill="#EE741E"/>
<path fillRule="evenodd" clipRule="evenodd" d="M78.2598 10.279C78.82 10.4714 79.4194 10.5751 80.0459 10.5751C80.6027 10.5751 81.1407 10.4934 81.6464 10.3385L81.6005 10.2159C81.1084 10.3641 80.5874 10.4441 80.0459 10.4441C79.4381 10.4441 78.8524 10.3418 78.3075 10.1562L78.2598 10.2771V10.279Z" fill="#EE741E"/>
<path fillRule="evenodd" clipRule="evenodd" d="M78.2289 10.3647C78.7993 10.5605 79.4106 10.666 80.0457 10.666C80.6127 10.666 81.1609 10.5809 81.6751 10.4243L81.6292 10.3017C81.1286 10.4533 80.5957 10.535 80.0457 10.535C79.4259 10.535 78.8317 10.4312 78.2766 10.2422L78.2289 10.3647Z" fill="#EE741E"/>
<path fillRule="evenodd" clipRule="evenodd" d="M78.195 10.4438C78.7756 10.643 79.3988 10.7521 80.0475 10.7521C80.6264 10.7521 81.1849 10.6653 81.711 10.5035L81.6616 10.374C81.1508 10.5289 80.6077 10.6141 80.0475 10.6141C79.4158 10.6141 78.8114 10.5086 78.2461 10.3145L78.195 10.4422V10.4438Z" fill="#EE731E"/>
<path fillRule="evenodd" clipRule="evenodd" d="M78.1627 10.5337C78.7535 10.738 79.3869 10.8486 80.0475 10.8486C80.6366 10.8486 81.207 10.76 81.7417 10.5949L81.6906 10.4655C81.1696 10.6238 80.6179 10.7089 80.0458 10.7089C79.4039 10.7089 78.7858 10.6018 78.212 10.4043L78.1609 10.5337H78.1627Z" fill="#EE731E"/>
<path fillRule="evenodd" clipRule="evenodd" d="M78.1302 10.6092C78.7313 10.8169 79.3749 10.9292 80.0458 10.9292C80.6451 10.9292 81.2257 10.8374 81.7706 10.6705L81.7229 10.5496C81.1933 10.7131 80.6281 10.7999 80.0458 10.7999C79.3919 10.7999 78.7636 10.6892 78.1779 10.4883L78.1302 10.6108V10.6092Z" fill="#EE731E"/>
<path fillRule="evenodd" clipRule="evenodd" d="M78.0995 10.6951C78.7091 10.9062 79.3646 11.0203 80.0474 11.0203C80.6586 11.0203 81.2495 10.9284 81.8028 10.7581L81.7552 10.6356C81.2154 10.8024 80.6416 10.8926 80.0457 10.8926C79.3799 10.8926 78.7397 10.7802 78.1455 10.5742L78.0978 10.6934L78.0995 10.6951Z" fill="#EE731E"/>
<path fillRule="evenodd" clipRule="evenodd" d="M78.0638 10.7745C78.6853 10.9907 79.3528 11.1082 80.0474 11.1082C80.6706 11.1082 81.2717 11.0127 81.837 10.8373L81.7893 10.7115C81.2393 10.8817 80.6536 10.9718 80.0491 10.9718C79.3715 10.9718 78.7211 10.8579 78.1166 10.6484L78.0673 10.7726L78.0638 10.7745Z" fill="#ED7021"/>
<path fillRule="evenodd" clipRule="evenodd" d="M78.0317 10.8621C78.6617 11.0817 79.3411 11.2009 80.0477 11.2009C80.6811 11.2009 81.2923 11.1039 81.8678 10.9251L81.8185 10.7974C81.26 10.9711 80.6641 11.0648 80.0477 11.0648C79.3598 11.0648 78.6975 10.9472 78.0828 10.7344L78.0317 10.8621Z" fill="#ED7021"/>
<path fillRule="evenodd" clipRule="evenodd" d="M77.9991 10.9431C78.641 11.1662 79.3289 11.2887 80.0491 11.2887C80.6944 11.2887 81.3159 11.19 81.9016 11.0078L81.8539 10.8851C81.2835 11.0622 80.6774 11.1593 80.0491 11.1593C79.3476 11.1593 78.675 11.0402 78.0485 10.8223L77.9991 10.9431Z" fill="#ED7021"/>
<path fillRule="evenodd" clipRule="evenodd" d="M77.9669 11.0251C78.619 11.2532 79.3188 11.3757 80.0476 11.3757C80.7031 11.3757 81.3365 11.2753 81.9307 11.0897L81.8831 10.967C81.3024 11.1475 80.6878 11.2447 80.0476 11.2447C79.3342 11.2447 78.6514 11.1237 78.0146 10.9023L77.9652 11.0232L77.9669 11.0251Z" fill="#ED7021"/>
<path fillRule="evenodd" clipRule="evenodd" d="M77.931 11.1059C78.5934 11.3375 79.3051 11.4653 80.0474 11.4653C80.7149 11.4653 81.3585 11.363 81.9646 11.1723L81.9136 11.0429C81.3244 11.2268 80.6979 11.3256 80.0474 11.3256C79.3238 11.3256 78.6291 11.203 77.9821 10.9766L77.9293 11.1059H77.931Z" fill="#ED7021"/>
<path fillRule="evenodd" clipRule="evenodd" d="M77.8986 11.1887C78.5695 11.4236 79.2931 11.5513 80.0457 11.5513C80.7268 11.5513 81.3806 11.4458 81.9969 11.2517L81.9493 11.1291C81.3482 11.3181 80.7097 11.4203 80.0474 11.4203C79.3118 11.4203 78.6069 11.2943 77.9497 11.0645L77.9003 11.187L77.8986 11.1887Z" fill="#EB7022"/>
<path fillRule="evenodd" clipRule="evenodd" d="M77.8663 11.2636C78.5474 11.5037 79.2813 11.6349 80.0458 11.6349C80.737 11.6349 81.4028 11.5276 82.0294 11.3301L81.9817 11.2076C81.3721 11.4 80.7217 11.5037 80.0475 11.5037C79.3 11.5037 78.5832 11.3778 77.9157 11.1445L77.868 11.2636H77.8663Z" fill="#EB7022"/>
<path fillRule="evenodd" clipRule="evenodd" d="M77.8306 11.3618C78.5236 11.6053 79.2694 11.7397 80.0458 11.7397C80.749 11.7397 81.4267 11.6307 82.0618 11.4281L82.0107 11.2988C81.3909 11.4946 80.7303 11.6002 80.0458 11.6002C79.2881 11.6002 78.5594 11.4708 77.8834 11.2324L77.8306 11.3618Z" fill="#ED6F23"/>
<path fillRule="evenodd" clipRule="evenodd" d="M77.7983 11.4363C78.5015 11.6832 79.2575 11.8177 80.0459 11.8177C80.7593 11.8177 81.4489 11.707 82.0942 11.501L82.0431 11.3733C81.4131 11.5725 80.7406 11.6816 80.0459 11.6816C79.2763 11.6816 78.5356 11.5504 77.8494 11.3086L77.7983 11.4363Z" fill="#ED6F23"/>
<path fillRule="evenodd" clipRule="evenodd" d="M77.7658 11.5142C78.4792 11.7662 79.2471 11.9041 80.0474 11.9041C80.7727 11.9041 81.4708 11.7918 82.1263 11.5823L82.0787 11.4631C81.4385 11.6674 80.7557 11.778 80.0474 11.778C79.2642 11.778 78.5133 11.6436 77.8152 11.3984L77.7675 11.5158L77.7658 11.5142Z" fill="#ED6C23"/>
<path fillRule="evenodd" clipRule="evenodd" d="M77.7319 11.5954C78.4555 11.8508 79.2336 11.9903 80.0458 11.9903C80.7814 11.9903 81.4914 11.8763 82.1571 11.6617L82.1094 11.5408C81.459 11.7486 80.766 11.8609 80.0458 11.8609C79.2507 11.8609 78.4879 11.7229 77.7795 11.4727L77.7302 11.5937L77.7319 11.5954Z" fill="#ED6C23"/>
<path fillRule="evenodd" clipRule="evenodd" d="M77.696 11.6791C78.4299 11.9396 79.2216 12.0826 80.0474 12.0826C80.7966 12.0826 81.5168 11.9651 82.1928 11.7489L82.1417 11.6212C81.4811 11.8323 80.7779 11.9464 80.0474 11.9464C79.2404 11.9464 78.4674 11.8084 77.7488 11.5547L77.696 11.6807V11.6791Z" fill="#ED6C23"/>
<path fillRule="evenodd" clipRule="evenodd" d="M77.662 11.7625C78.4078 12.0281 79.2097 12.1727 80.0474 12.1727C80.8068 12.1727 81.539 12.0535 82.2251 11.8321L82.1741 11.7028C81.5032 11.9173 80.7898 12.0332 80.0474 12.0332C79.2301 12.0332 78.4435 11.8919 77.7148 11.6348L77.662 11.7641V11.7625Z" fill="#ED6C23"/>
<path fillRule="evenodd" clipRule="evenodd" d="M77.6296 11.8376C78.3839 12.1066 79.1995 12.2529 80.0474 12.2529C80.8187 12.2529 81.5611 12.1303 82.2575 11.9056L82.2098 11.783C81.5287 12.0027 80.8034 12.1219 80.0491 12.1219C79.2182 12.1219 78.4214 11.9771 77.6807 11.7148L77.6296 11.8376Z" fill="#EC6924"/>
<path fillRule="evenodd" clipRule="evenodd" d="M77.5956 11.9272C78.3618 12.1997 79.1859 12.3477 80.0475 12.3477C80.829 12.3477 81.5833 12.2236 82.2899 11.9954L82.2422 11.8745C81.5509 12.0976 80.8137 12.2184 80.0475 12.2184C79.2047 12.2184 78.3959 12.0737 77.6467 11.8047L77.5956 11.9272Z" fill="#EC6924"/>
<path fillRule="evenodd" clipRule="evenodd" d="M77.5598 12.0047C78.3362 12.2839 79.174 12.4355 80.0457 12.4355C80.8409 12.4355 81.6071 12.3094 82.3256 12.0762L82.2745 11.9468C81.573 12.1732 80.8238 12.2958 80.0474 12.2958C79.1927 12.2958 78.3737 12.1477 77.6143 11.877L77.5615 12.0047H77.5598Z" fill="#EC6924"/>
<path fillRule="evenodd" clipRule="evenodd" d="M77.5258 12.0913C78.3125 12.3722 79.1604 12.5273 80.0458 12.5273C80.8528 12.5273 81.6292 12.3995 82.3563 12.1611L82.3069 12.0386C81.5952 12.2702 80.8341 12.3961 80.0458 12.3961C79.1791 12.3961 78.3482 12.2446 77.5769 11.9688L77.5258 12.0896V12.0913Z" fill="#EC6924"/>
<path fillRule="evenodd" clipRule="evenodd" d="M77.4936 12.1657C78.2904 12.4517 79.1503 12.6066 80.0476 12.6066C80.8666 12.6066 81.6532 12.4754 82.3905 12.2354L82.3411 12.1145C81.6191 12.3494 80.8478 12.4755 80.0459 12.4755C79.1673 12.4755 78.3245 12.3222 77.543 12.043L77.4919 12.1639L77.4936 12.1657Z" fill="#EC6924"/>
<path fillRule="evenodd" clipRule="evenodd" d="M77.4576 12.2555C78.2664 12.5467 79.1382 12.705 80.0457 12.705C80.8766 12.705 81.6751 12.5722 82.4243 12.327L82.3732 12.201C81.6411 12.4394 80.8579 12.5705 80.0457 12.5705C79.1552 12.5705 78.3005 12.4155 77.5087 12.1328L77.4576 12.2555Z" fill="#EC6924"/>
<path fillRule="evenodd" clipRule="evenodd" d="M77.4235 12.3314C78.2425 12.626 79.1262 12.7877 80.0473 12.7877C80.8884 12.7877 81.6989 12.6515 82.4583 12.4029L82.4072 12.2785C81.6649 12.5203 80.8714 12.6515 80.0473 12.6515C79.1449 12.6515 78.2783 12.4931 77.478 12.207L77.4252 12.3314H77.4235Z" fill="#EC6824"/>
<path fillRule="evenodd" clipRule="evenodd" d="M77.3878 12.4217C78.217 12.7196 79.1126 12.8831 80.0457 12.8831C80.8987 12.8831 81.7211 12.747 82.489 12.4933L82.4413 12.3741C81.6871 12.621 80.8834 12.7554 80.0457 12.7554C79.1297 12.7554 78.2528 12.5953 77.4389 12.3008L77.3878 12.42V12.4217Z" fill="#EC6824"/>
<path fillRule="evenodd" clipRule="evenodd" d="M77.3557 12.4921C78.1951 12.7969 79.1026 12.9622 80.0476 12.9622C80.9125 12.9622 81.7451 12.8242 82.525 12.5671L82.4756 12.4462C81.7128 12.6965 80.8955 12.8326 80.0476 12.8326C79.1196 12.8326 78.2308 12.671 77.4067 12.373L77.3557 12.4921Z" fill="#EC6524"/>
<path fillRule="evenodd" clipRule="evenodd" d="M77.3181 12.5844C78.1694 12.8926 79.0889 13.0612 80.0475 13.0612C80.9244 13.0612 81.7689 12.9198 82.5589 12.6576L82.5061 12.5282C81.7331 12.7836 80.9056 12.9215 80.0475 12.9215C79.1076 12.9215 78.2069 12.7565 77.3726 12.4551L77.3181 12.5844Z" fill="#EC6524"/>
<path fillRule="evenodd" clipRule="evenodd" d="M77.284 12.657C78.1455 12.9686 79.0769 13.1389 80.0474 13.1389C80.9362 13.1389 81.7927 12.9941 82.5912 12.7302L82.5384 12.6043C81.7552 12.8631 80.9175 13.0027 80.0457 13.0027C79.0939 13.0027 78.1813 12.8358 77.3368 12.5293L77.2823 12.6553L77.284 12.657Z" fill="#EC6524"/>
<path fillRule="evenodd" clipRule="evenodd" d="M77.2501 12.7462C78.1218 13.0646 79.0651 13.2365 80.0475 13.2365C80.9483 13.2365 81.8166 13.0902 82.6254 12.8212L82.576 12.7003C81.7809 12.9642 80.9312 13.1072 80.0475 13.1072C79.0821 13.1072 78.1576 12.9368 77.3011 12.627L77.2501 12.7462Z" fill="#EC6524"/>
<path fillRule="evenodd" clipRule="evenodd" d="M77.2161 12.8223C78.0997 13.1442 79.0532 13.3177 80.0493 13.3177C80.9602 13.3177 81.8388 13.1696 82.6595 12.8972L82.6101 12.7763C81.8048 13.0436 80.9449 13.1883 80.0493 13.1883C79.072 13.1883 78.1355 13.0164 77.2671 12.7031L77.2161 12.8223Z" fill="#EC6524"/>
<path fillRule="evenodd" clipRule="evenodd" d="M77.1785 12.9145C78.0724 13.2397 79.0378 13.4185 80.0458 13.4185C80.972 13.4185 81.8625 13.2669 82.6951 12.9893L82.6423 12.86C81.8268 13.1307 80.955 13.2772 80.0475 13.2772C79.0599 13.2772 78.1132 13.1036 77.2347 12.7852L77.1802 12.9145H77.1785Z" fill="#EC6524"/>
<path fillRule="evenodd" clipRule="evenodd" d="M77.1444 12.9842C78.0485 13.3145 79.0259 13.495 80.0458 13.495C80.9839 13.495 81.8846 13.3416 82.7258 13.059L82.6764 12.9381C81.8506 13.2139 80.9652 13.3638 80.0458 13.3638C79.0446 13.3638 78.0843 13.1868 77.1955 12.8633L77.1444 12.9825V12.9842Z" fill="#EC6524"/>
<path fillRule="evenodd" clipRule="evenodd" d="M77.1104 13.0686C78.0247 13.404 79.0156 13.5862 80.0475 13.5862C80.9958 13.5862 81.9085 13.4313 82.7615 13.1452L82.7121 13.026C81.8744 13.3069 80.9788 13.4585 80.0475 13.4585C79.0327 13.4585 78.0604 13.2781 77.1614 12.9512L77.1104 13.0686Z" fill="#EC6524"/>
<path fillRule="evenodd" clipRule="evenodd" d="M77.0728 13.1532C77.9991 13.4938 79.0019 13.6795 80.0474 13.6795C81.0094 13.6795 81.9356 13.521 82.7989 13.2299L82.7461 13.1038C81.8982 13.3882 80.9907 13.5415 80.0474 13.5415C79.0207 13.5415 78.0382 13.3594 77.1273 13.0273L77.0728 13.1532Z" fill="#EC6524"/>
<path fillRule="evenodd" clipRule="evenodd" d="M77.0388 13.2375C77.9752 13.5814 78.99 13.7704 80.0474 13.7704C81.0213 13.7704 81.9578 13.6104 82.8312 13.3158L82.7785 13.1898C81.9203 13.4775 81.0026 13.6342 80.0474 13.6342C79.0087 13.6342 78.0144 13.4504 77.0932 13.1133L77.0388 13.2375Z" fill="#EB6325"/>
<path fillRule="evenodd" clipRule="evenodd" d="M77.003 13.3126C77.9514 13.6616 78.9764 13.8523 80.0474 13.8523C81.0333 13.8523 81.9816 13.6889 82.8653 13.3909L82.8142 13.2717C81.9459 13.5645 81.0145 13.723 80.0457 13.723C78.9935 13.723 77.9855 13.5356 77.0541 13.1934L77.0013 13.3126H77.003Z" fill="#EB6325"/>
<path fillRule="evenodd" clipRule="evenodd" d="M76.9673 13.3946C77.9259 13.7471 78.9646 13.9412 80.0475 13.9412C81.0452 13.9412 82.0038 13.7777 82.8994 13.4746L82.8484 13.3537C81.9681 13.65 81.0265 13.8118 80.0475 13.8118C78.9833 13.8118 77.9634 13.6227 77.0201 13.2754L76.9673 13.3963V13.3946Z" fill="#E96325"/>
<path fillRule="evenodd" clipRule="evenodd" d="M76.9299 13.4756C77.9004 13.8349 78.9509 14.0323 80.0474 14.0323C81.0588 14.0323 82.0311 13.8655 82.9352 13.5573L82.8807 13.4296C81.9919 13.731 81.0384 13.8928 80.0457 13.8928C78.968 13.8928 77.9361 13.7004 76.9826 13.3496L76.9282 13.4756H76.9299Z" fill="#E96325"/>
<path fillRule="evenodd" clipRule="evenodd" d="M76.8959 13.5538C77.8783 13.9164 78.9391 14.1156 80.0492 14.1156C81.0708 14.1156 82.055 13.9455 82.971 13.6339L82.9165 13.5079C82.0158 13.8127 81.0521 13.9778 80.0492 13.9778C78.9595 13.9778 77.9175 13.7836 76.9521 13.4277L76.8959 13.5538Z" fill="#E96124"/>
<path fillRule="evenodd" clipRule="evenodd" d="M76.8602 13.6368C77.8528 14.0046 78.9255 14.2055 80.0476 14.2055C81.0811 14.2055 82.0754 14.0336 83.0034 13.7186L82.9523 13.5977C82.0414 13.9076 81.0641 14.0761 80.0476 14.0761C78.9442 14.0761 77.8903 13.8785 76.913 13.5176L76.8602 13.6368Z" fill="#E96124"/>
<path fillRule="evenodd" clipRule="evenodd" d="M76.8261 13.7092C77.829 14.0821 78.9136 14.2847 80.0459 14.2847C81.093 14.2847 82.0993 14.1111 83.0374 13.791L82.9864 13.6701C82.0635 13.9851 81.076 14.1553 80.0476 14.1553C78.934 14.1553 77.8664 13.9562 76.8806 13.5918L76.8278 13.711L76.8261 13.7092Z" fill="#E96124"/>
<path fillRule="evenodd" clipRule="evenodd" d="M76.7868 13.8024C77.8016 14.1787 78.8998 14.3864 80.0457 14.3864C81.1065 14.3864 82.1247 14.2093 83.0731 13.884L83.0203 13.7615C82.0872 14.0799 81.086 14.2518 80.0457 14.2518C78.9185 14.2518 77.8391 14.0492 76.8413 13.6797L76.7868 13.8024Z" fill="#E96124"/>
<path fillRule="evenodd" clipRule="evenodd" d="M76.7511 13.8731C77.7761 14.2545 78.8863 14.4639 80.0458 14.4639C81.1185 14.4639 82.1486 14.2834 83.1089 13.9548L83.0578 13.8357C82.1128 14.1592 81.1014 14.3362 80.0458 14.3362C78.905 14.3362 77.8136 14.1302 76.8039 13.7539L76.7511 13.8731Z" fill="#EB5F23"/>
<path fillRule="evenodd" clipRule="evenodd" d="M76.717 13.9633C77.754 14.3498 78.8743 14.5625 80.0475 14.5625C81.1321 14.5625 82.1741 14.3805 83.1446 14.0467L83.0935 13.9275C82.1383 14.2561 81.115 14.4332 80.0475 14.4332C78.8948 14.4332 77.7897 14.2254 76.7698 13.8457L76.717 13.9633Z" fill="#EB5F23"/>
<path fillRule="evenodd" clipRule="evenodd" d="M76.6814 14.0352C77.7285 14.4269 78.8625 14.6397 80.0476 14.6397C81.1441 14.6397 82.198 14.4558 83.1788 14.1187L83.126 13.9978C82.1606 14.3281 81.1254 14.5103 80.0476 14.5103C78.8812 14.5103 77.766 14.3008 76.7342 13.916L76.6814 14.0352Z" fill="#EB5F23"/>
<path fillRule="evenodd" clipRule="evenodd" d="M76.6421 14.1262C77.7011 14.5229 78.8487 14.7409 80.0474 14.7409C81.1576 14.7409 82.2234 14.5535 83.2161 14.2113L83.1616 14.0871C82.186 14.4225 81.1388 14.6047 80.0474 14.6047C78.8692 14.6047 77.7403 14.3919 76.6983 14.002L76.6421 14.1278V14.1262Z" fill="#EB5F23"/>
<path fillRule="evenodd" clipRule="evenodd" d="M76.6064 14.2011C77.6757 14.6029 78.8369 14.8243 80.0475 14.8243C81.1695 14.8243 82.2473 14.6353 83.2502 14.2862L83.1974 14.1653C82.2099 14.5076 81.1508 14.6933 80.0475 14.6933C78.8556 14.6933 77.7131 14.4771 76.6592 14.082L76.6064 14.2011Z" fill="#EA5C24"/>
<path fillRule="evenodd" clipRule="evenodd" d="M76.5706 14.2837C77.6518 14.6906 78.8232 14.9137 80.0474 14.9137C81.1814 14.9137 82.2711 14.7214 83.2842 14.3707L83.2314 14.2514C82.2336 14.5971 81.1627 14.7844 80.0474 14.7844C78.8419 14.7844 77.6892 14.5664 76.6233 14.168L76.5706 14.2855V14.2837Z" fill="#EA5C24"/>
<path fillRule="evenodd" clipRule="evenodd" d="M76.5315 14.3679C77.6246 14.7783 78.8097 15.0046 80.0475 15.0046C81.1951 15.0046 82.2967 14.8106 83.3234 14.4531L83.2673 14.3254C82.2593 14.6744 81.1764 14.8651 80.0475 14.8651C78.8301 14.8651 77.6638 14.6438 76.5894 14.2402L76.5315 14.3679Z" fill="#EA5C24"/>
<path fillRule="evenodd" clipRule="evenodd" d="M76.4974 14.4522C77.6007 14.8677 78.7977 15.0957 80.0491 15.0957C81.2087 15.0957 82.3222 14.8983 83.3574 14.5373L83.3012 14.4113C82.2813 14.7655 81.1882 14.9579 80.0474 14.9579C78.8164 14.9579 77.6382 14.7348 76.5519 14.3262L76.4957 14.4505L76.4974 14.4522Z" fill="#EA5C24"/>
<path fillRule="evenodd" clipRule="evenodd" d="M76.4599 14.5219C77.5751 14.9424 78.784 15.174 80.0474 15.174C81.2206 15.174 82.346 14.9747 83.3915 14.6103L83.3387 14.4894C82.3069 14.8487 81.2001 15.0445 80.0474 15.0445C78.8028 15.0445 77.6126 14.818 76.5127 14.4043L76.4599 14.5219Z" fill="#EA5A25"/>
<path fillRule="evenodd" clipRule="evenodd" d="M76.4242 14.6057C77.5497 15.0313 78.7705 15.2646 80.0458 15.2646C81.2308 15.2646 82.3682 15.062 83.4273 14.6925L83.3762 14.5751C82.3342 14.9395 81.2138 15.1369 80.0458 15.1369C78.7892 15.1369 77.5871 14.9071 76.4787 14.4883L76.4259 14.6057H76.4242Z" fill="#EA5A25"/>
<path fillRule="evenodd" clipRule="evenodd" d="M76.3851 14.6882C77.5224 15.119 78.7569 15.354 80.0458 15.354C81.2445 15.354 82.3955 15.1497 83.4648 14.7734L83.4086 14.6473C82.3563 15.0151 81.2241 15.216 80.0458 15.216C78.7756 15.216 77.5616 14.9828 76.4412 14.5605L76.3834 14.6866L76.3851 14.6882Z" fill="#EA5A25"/>
<path fillRule="evenodd" clipRule="evenodd" d="M76.3492 14.7758C77.4968 15.2116 78.7431 15.45 80.0457 15.45C81.2563 15.45 82.4192 15.2423 83.5004 14.8626L83.4476 14.7452C82.3834 15.1181 81.2375 15.3223 80.0457 15.3223C78.7619 15.3223 77.5342 15.0873 76.402 14.6582L76.3492 14.7741V14.7758Z" fill="#EA5A25"/>
<path fillRule="evenodd" clipRule="evenodd" d="M76.3118 14.8498C77.4713 15.2908 78.7296 15.5325 80.0458 15.5325C81.27 15.5325 82.4449 15.3232 83.5363 14.9384L83.4835 14.8192C82.4091 15.1972 81.2513 15.4048 80.0458 15.4048C78.7501 15.4048 77.5105 15.1666 76.3663 14.7324L76.3118 14.8498Z" fill="#EA5A25"/>
<path fillRule="evenodd" clipRule="evenodd" d="M76.2761 14.9259C77.4458 15.3703 78.7177 15.6154 80.0475 15.6154C81.2836 15.6154 82.4704 15.4025 83.5737 15.0143L83.5192 14.8934C82.4329 15.2748 81.2649 15.486 80.0475 15.486C78.7381 15.486 77.485 15.2459 76.3305 14.8066L76.2761 14.9259Z" fill="#EA5825"/>
<path fillRule="evenodd" clipRule="evenodd" d="M76.2369 15.0093C77.4203 15.4605 78.7041 15.7091 80.0475 15.7091C81.2973 15.7091 82.4977 15.4946 83.6112 15.0996L83.555 14.9735C82.4585 15.36 81.2785 15.5713 80.0475 15.5713C78.7245 15.5713 77.4594 15.3277 76.2948 14.8867L76.2369 15.0111V15.0093Z" fill="#EA5825"/>
<path fillRule="evenodd" clipRule="evenodd" d="M76.2012 15.0818C77.3947 15.5381 78.6922 15.7885 80.0475 15.7885C81.3092 15.7885 82.5215 15.5706 83.6452 15.1704L83.5924 15.0512C82.484 15.4428 81.2904 15.6575 80.0475 15.6575C78.7109 15.6575 77.4339 15.4104 76.2557 14.9609L76.1995 15.0802L76.2012 15.0818Z" fill="#EA5825"/>
<path fillRule="evenodd" clipRule="evenodd" d="M76.1636 15.1759C77.3674 15.6356 78.6785 15.8892 80.0474 15.8892C81.3227 15.8892 82.5452 15.6695 83.6826 15.266L83.6281 15.1469C82.5095 15.5437 81.304 15.7598 80.0474 15.7598C78.6972 15.7598 77.4083 15.5096 76.2198 15.0566L76.1636 15.1775V15.1759Z" fill="#EA5825"/>
<path fillRule="evenodd" clipRule="evenodd" d="M76.1245 15.2533C77.3419 15.7198 78.6649 15.9769 80.0475 15.9769C81.3364 15.9769 82.5725 15.7537 83.7201 15.3434L83.6639 15.2192C82.5334 15.6193 81.3159 15.8389 80.0475 15.8389C78.6853 15.8389 77.3811 15.5869 76.1824 15.1289L76.1245 15.2515V15.2533Z" fill="#E95626"/>
<path fillRule="evenodd" clipRule="evenodd" d="M76.0872 15.3367C77.3148 15.8083 78.6497 16.0671 80.0459 16.0671C81.3484 16.0671 82.5982 15.8407 83.7577 15.427L83.6998 15.3009C82.559 15.7062 81.328 15.9275 80.0459 15.9275C78.6718 15.9275 77.3573 15.6721 76.1467 15.209L76.0872 15.335V15.3367Z" fill="#E95626"/>
<path fillRule="evenodd" clipRule="evenodd" d="M76.0513 15.4102C77.2908 15.887 78.6376 16.1475 80.0457 16.1475C81.3602 16.1475 82.6219 15.9194 83.7933 15.5005L83.7388 15.3813C82.5844 15.7934 81.3415 16.0181 80.0457 16.0181C78.6564 16.0181 77.3283 15.7593 76.1058 15.291L76.0513 15.4086V15.4102Z" fill="#E95627"/>
<path fillRule="evenodd" clipRule="evenodd" d="M76.0137 15.4948C77.2652 15.9767 78.6239 16.2406 80.0457 16.2406C81.3737 16.2406 82.6473 16.0107 83.829 15.5868L83.7762 15.4692C82.6116 15.8846 81.3567 16.1129 80.0474 16.1129C78.6444 16.1129 77.3044 15.8523 76.0699 15.3789L76.0154 15.4948H76.0137Z" fill="#E95627"/>
<path fillRule="evenodd" clipRule="evenodd" d="M75.9729 15.5736C77.2363 16.0606 78.6086 16.3278 80.0457 16.3278C81.3874 16.3278 82.6729 16.0946 83.8665 15.6655L83.8103 15.5428C82.6337 15.9634 81.367 16.1933 80.0457 16.1933C78.6308 16.1933 77.2772 15.9294 76.0325 15.4492L75.9729 15.5718V15.5736Z" fill="#E95327"/>
<path fillRule="evenodd" clipRule="evenodd" d="M75.9355 15.6605C77.2091 16.1526 78.5968 16.4232 80.0457 16.4232C81.4011 16.4232 82.7002 16.1866 83.9057 15.7541L83.8512 15.6349C82.6627 16.0623 81.3823 16.2955 80.0457 16.2955C78.6155 16.2955 77.2482 16.0282 75.9917 15.543L75.9355 15.6605Z" fill="#E95327"/>
<path fillRule="evenodd" clipRule="evenodd" d="M75.8997 15.7328C77.1869 16.23 78.5848 16.5042 80.0474 16.5042C81.4163 16.5042 82.7274 16.264 83.9431 15.8264L83.8886 15.7072C82.6899 16.138 81.3976 16.3746 80.0474 16.3746C78.6035 16.3746 77.2243 16.1056 75.9541 15.6152L75.8979 15.7328H75.8997Z" fill="#E95326"/>
<path fillRule="evenodd" clipRule="evenodd" d="M75.8607 15.8184C77.1582 16.3207 78.5697 16.5966 80.0459 16.5966C81.4267 16.5966 82.7497 16.3547 83.9773 15.9121L83.9229 15.7928C82.7123 16.2287 81.408 16.4671 80.0459 16.4671C78.5901 16.4671 77.1973 16.1947 75.9169 15.6992L75.8607 15.8184Z" fill="#E95327"/>
<path fillRule="evenodd" clipRule="evenodd" d="M75.8198 15.8975C77.1292 16.4049 78.556 16.6842 80.0475 16.6842C81.442 16.6842 82.7786 16.4389 84.0182 15.9911L83.9603 15.8669C82.7395 16.3079 81.4216 16.548 80.0475 16.548C78.5781 16.548 77.1717 16.2738 75.8794 15.7715L75.8198 15.8975Z" fill="#E95326"/>
<path fillRule="evenodd" clipRule="evenodd" d="M75.7823 15.9829C77.1036 16.4971 78.5424 16.7799 80.0475 16.7799C81.4556 16.7799 82.8059 16.5313 84.0556 16.0784L83.9994 15.9591C82.7667 16.4069 81.4352 16.6504 80.0458 16.6504C78.5611 16.6504 77.1411 16.3729 75.8368 15.8672L75.7806 15.9847L75.7823 15.9829Z" fill="#E95326"/>
<path fillRule="evenodd" clipRule="evenodd" d="M75.7466 16.0545C77.0798 16.5738 78.5304 16.8581 80.0475 16.8581C81.4675 16.8581 82.8314 16.6078 84.0931 16.1481L84.0369 16.0289C82.7922 16.4801 81.4488 16.7271 80.0475 16.7271C78.5492 16.7271 77.1189 16.4461 75.8028 15.9336L75.7466 16.0528V16.0545Z" fill="#E95326"/>
<path fillRule="evenodd" clipRule="evenodd" d="M75.704 16.1372C77.0491 16.6616 78.5151 16.9494 80.0475 16.9494C81.4829 16.9494 82.8587 16.6958 84.1323 16.231L84.0727 16.1049C82.8178 16.5595 81.4625 16.8081 80.0475 16.8081C78.5356 16.8081 77.0917 16.5237 75.7653 16.0078L75.704 16.1339V16.1372Z" fill="#E95326"/>
<path fillRule="evenodd" clipRule="evenodd" d="M75.6682 16.213C77.0235 16.7425 78.5015 17.0354 80.0458 17.0354C81.4947 17.0354 82.8841 16.78 84.1696 16.3101L84.1117 16.1874C82.845 16.6488 81.4743 16.9009 80.0458 16.9009C78.5219 16.9009 77.0644 16.6148 75.7261 16.0938L75.6665 16.2163L75.6682 16.213Z" fill="#E95026"/>
<path fillRule="evenodd" clipRule="evenodd" d="M75.6306 16.2875C76.9979 16.8221 78.4877 17.1167 80.0456 17.1167C81.5082 17.1167 82.9095 16.8578 84.207 16.3828L84.1525 16.267C82.8721 16.7336 81.4895 16.989 80.0473 16.989C78.5081 16.989 77.0387 16.6978 75.6885 16.1699L75.6323 16.2875H75.6306Z" fill="#E95026"/>
<path fillRule="evenodd" clipRule="evenodd" d="M75.5916 16.3755C76.9707 16.9152 78.4742 17.2132 80.0474 17.2132C81.5236 17.2132 82.9369 16.9511 84.2462 16.4726L84.19 16.355C82.8994 16.8267 81.5032 17.0855 80.0474 17.0855C78.4946 17.0855 77.0116 16.7927 75.6494 16.2598L75.5933 16.3772L75.5916 16.3755Z" fill="#E95026"/>
<path fillRule="evenodd" clipRule="evenodd" d="M75.5507 16.4526C76.9435 16.9992 78.4589 17.3005 80.0458 17.3005C81.5373 17.3005 82.9658 17.035 84.2854 16.5497L84.2258 16.4254C82.9233 16.9021 81.5135 17.1626 80.0458 17.1626C78.4793 17.1626 76.9827 16.8681 75.6086 16.3301L75.549 16.4526H75.5507Z" fill="#E95026"/>
<path fillRule="evenodd" clipRule="evenodd" d="M75.5116 16.5372C76.9146 17.0889 78.4453 17.392 80.0475 17.392C81.551 17.392 82.9914 17.123 84.3246 16.6326L84.2684 16.5151C82.954 16.9986 81.5322 17.2625 80.0492 17.2625C78.4691 17.2625 76.9589 16.9628 75.5712 16.418L75.5133 16.5372H75.5116Z" fill="#E95026"/>
<path fillRule="evenodd" clipRule="evenodd" d="M75.4741 16.6095C76.889 17.1662 78.4317 17.4728 80.0475 17.4728C81.5646 17.4728 83.0169 17.202 84.3621 16.7066L84.3059 16.5873C82.9795 17.0743 81.5458 17.3416 80.0492 17.3416C78.4555 17.3416 76.9316 17.0385 75.5337 16.4902L75.4758 16.6095H75.4741Z" fill="#E95026"/>
<path fillRule="evenodd" clipRule="evenodd" d="M75.4349 16.6939C76.8618 17.2574 78.418 17.5673 80.0458 17.5673C81.5765 17.5673 83.0442 17.2932 84.3995 16.7926L84.3416 16.6751C83.0033 17.1688 81.556 17.4379 80.0458 17.4379C78.4367 17.4379 76.9009 17.1332 75.4911 16.5781L75.4349 16.6955V16.6939Z" fill="#E64E26"/>
<path fillRule="evenodd" clipRule="evenodd" d="M75.3942 16.7788C76.8346 17.3475 78.4045 17.6626 80.0476 17.6626C81.5919 17.6626 83.0715 17.385 84.4404 16.8776L84.3808 16.7532C83.0306 17.2521 81.5714 17.5245 80.0493 17.5245C78.4266 17.5245 76.8772 17.2164 75.4572 16.6562L75.3959 16.7805L75.3942 16.7788Z" fill="#E64E26"/>
<path fillRule="evenodd" clipRule="evenodd" d="M75.3549 16.8578C76.8056 17.4316 78.3891 17.7482 80.0475 17.7482C81.6071 17.7482 83.1004 17.4674 84.4795 16.9566L84.4216 16.839C83.0595 17.343 81.5867 17.6188 80.0475 17.6188C78.4112 17.6188 76.8465 17.3072 75.4128 16.7402L75.3549 16.8578Z" fill="#E64E26"/>
<path fillRule="evenodd" clipRule="evenodd" d="M75.3175 16.9303C76.7801 17.511 78.3755 17.8292 80.0475 17.8292C81.6208 17.8292 83.1259 17.545 84.517 17.0291L84.4591 16.9116C83.0851 17.4207 81.5986 17.6999 80.0475 17.6999C78.3959 17.6999 76.8193 17.3866 75.3754 16.8145L75.3192 16.9303H75.3175Z" fill="#E84E26"/>
<path fillRule="evenodd" clipRule="evenodd" d="M75.2748 17.0154C76.751 17.6011 78.36 17.9248 80.0457 17.9248C81.6325 17.9248 83.153 17.6369 84.5577 17.1125L84.4981 16.9933C83.1122 17.5075 81.6121 17.7903 80.0457 17.7903C78.3805 17.7903 76.7919 17.4717 75.3344 16.8945L75.2748 17.0138V17.0154Z" fill="#E84E26"/>
<path fillRule="evenodd" clipRule="evenodd" d="M75.2358 17.0895C76.724 17.6803 78.3466 18.0072 80.0459 18.0072C81.6481 18.0072 83.1822 17.7178 84.5971 17.1883L84.5358 17.0656C83.1396 17.5849 81.626 17.871 80.0459 17.871C78.3688 17.871 76.7648 17.5491 75.2971 16.9668L75.2358 17.0895Z" fill="#E84C26"/>
<path fillRule="evenodd" clipRule="evenodd" d="M75.1982 17.1706C76.6966 17.7682 78.3329 18.0967 80.0474 18.0967C81.6633 18.0967 83.2093 17.8038 84.6361 17.2692L84.58 17.1535C83.1701 17.6796 81.6428 17.969 80.0474 17.969C78.355 17.969 76.7375 17.6438 75.2561 17.0547L75.1982 17.1688V17.1706Z" fill="#E84C26"/>
<path fillRule="evenodd" clipRule="evenodd" d="M75.1573 17.2465C76.6676 17.8492 78.3175 18.1811 80.0457 18.1811C81.6752 18.1811 83.2331 17.8848 84.6736 17.3451L84.6157 17.2277C83.1939 17.7589 81.6547 18.0501 80.0457 18.0501C78.3379 18.0501 76.7085 17.7231 75.2152 17.1289L75.1573 17.2446V17.2465Z" fill="#E84C26"/>
<path fillRule="evenodd" clipRule="evenodd" d="M75.1149 17.3336C76.6388 17.9432 78.3023 18.2786 80.0458 18.2786C81.6906 18.2786 83.2638 17.9788 84.7162 17.4323L84.6549 17.3097C83.2213 17.846 81.6684 18.1424 80.0458 18.1424C78.3244 18.1424 76.6813 17.812 75.1762 17.2109L75.1132 17.3336H75.1149Z" fill="#E84C26"/>
<path fillRule="evenodd" clipRule="evenodd" d="M75.0775 17.409C76.6133 18.0237 78.2904 18.3642 80.0475 18.3642C81.7059 18.3642 83.2928 18.0611 84.7571 17.5094L84.6992 17.3937C83.252 17.9368 81.6855 18.2365 80.0492 18.2365C78.3125 18.2365 76.6558 17.9028 75.1371 17.2949L75.0792 17.409H75.0775Z" fill="#E84A26"/>
<path fillRule="evenodd" clipRule="evenodd" d="M75.0364 17.4849C76.5842 18.1063 78.2749 18.4486 80.0474 18.4486C81.7194 18.4486 83.3199 18.1422 84.7961 17.5855L84.7383 17.4679C83.2808 18.0162 81.699 18.3176 80.0474 18.3176C78.297 18.3176 76.6267 17.9804 75.096 17.3691L75.0364 17.4849Z" fill="#E84A26"/>
<path fillRule="evenodd" clipRule="evenodd" d="M74.9973 17.5645C76.557 18.1911 78.2613 18.5351 80.0474 18.5351C81.7331 18.5351 83.3472 18.2269 84.8353 17.6633L84.7757 17.5459C83.3063 18.101 81.7126 18.4041 80.0474 18.4041C78.2835 18.4041 76.5995 18.0634 75.0569 17.4453L74.9973 17.5629V17.5645Z" fill="#E84A26"/>
<path fillRule="evenodd" clipRule="evenodd" d="M74.9566 17.644C76.5299 18.2774 78.2479 18.6282 80.0493 18.6282C81.752 18.6282 83.3797 18.3165 84.8798 17.7461L84.8168 17.6219C83.3354 18.1821 81.7281 18.4886 80.0493 18.4886C78.27 18.4886 76.5724 18.1447 75.0196 17.5215L74.9566 17.644Z" fill="#E84A26"/>
<path fillRule="evenodd" clipRule="evenodd" d="M74.9156 17.7253C76.5008 18.3638 78.2324 18.7161 80.0492 18.7161C81.7638 18.7161 83.4051 18.4012 84.9171 17.8257L84.8575 17.71C83.3626 18.2753 81.7416 18.5868 80.0475 18.5868C78.2529 18.5868 76.5417 18.2394 74.9735 17.6094L74.9139 17.7253H74.9156Z" fill="#E74727"/>
<path fillRule="evenodd" clipRule="evenodd" d="M74.8747 17.7972C76.4718 18.4409 78.217 18.7967 80.0474 18.7967C81.7773 18.7967 83.4306 18.4783 84.9562 17.8977L84.9238 17.8313L84.8983 17.7801C83.3914 18.3522 81.7569 18.6672 80.0474 18.6672C78.2392 18.6672 76.5127 18.3165 74.9343 17.6797L74.8747 17.7956V17.7972Z" fill="#E74727"/>
<path fillRule="evenodd" clipRule="evenodd" d="M74.8339 17.8907C76.4429 18.5428 78.2017 18.902 80.0457 18.902C81.791 18.902 83.4613 18.5802 84.9988 17.9928L84.9375 17.8703C83.417 18.4475 81.7688 18.7658 80.0457 18.7658C78.2239 18.7658 76.4855 18.4117 74.8952 17.7715L74.8577 17.8446L74.8339 17.8924V17.8907Z" fill="#E74727"/>
<path fillRule="evenodd" clipRule="evenodd" d="M74.7947 17.9642C76.4157 18.6197 78.1882 18.9823 80.0458 18.9823C81.8046 18.9823 83.4886 18.6572 85.0363 18.0647L84.975 17.9419C83.4443 18.5243 81.7825 18.8445 80.0458 18.8445C78.2086 18.8445 76.4582 18.4869 74.856 17.8398L74.7947 17.9624V17.9642Z" fill="#E74727"/>
<path fillRule="evenodd" clipRule="evenodd" d="M74.7556 18.0492C76.3885 18.7115 78.1729 19.0758 80.0458 19.0758C81.8183 19.0758 83.5124 18.7472 85.0738 18.1513L85.0176 18.0337C83.475 18.6229 81.7979 18.9464 80.0458 18.9464C78.195 18.9464 76.4293 18.5855 74.8135 17.9316L74.7556 18.0509V18.0492Z" fill="#E74527"/>
<path fillRule="evenodd" clipRule="evenodd" d="M74.7181 18.1215C76.3612 18.7889 78.1609 19.1584 80.0458 19.1584C81.8302 19.1584 83.5397 18.828 85.1112 18.2252L85.0567 18.1062C83.5005 18.7021 81.8115 19.0272 80.0458 19.0272C78.1797 19.0272 76.4004 18.6628 74.7743 18.0039L74.7181 18.1215Z" fill="#E74527"/>
<path fillRule="evenodd" clipRule="evenodd" d="M74.6789 18.212C76.3356 18.8845 78.1472 19.2574 80.0474 19.2574C81.8471 19.2574 83.5685 18.9236 85.152 18.3157L85.0941 18.1899C83.5277 18.7892 81.8267 19.1177 80.0491 19.1177C78.1694 19.1177 76.3765 18.75 74.7385 18.0859L74.6806 18.2101L74.6789 18.212Z" fill="#E74526"/>
<path fillRule="evenodd" clipRule="evenodd" d="M74.6432 18.2865C76.3101 18.9642 78.1337 19.3387 80.0475 19.3387C81.8591 19.3387 83.5907 19.0017 85.1844 18.3904L85.1299 18.2644C83.5533 18.8671 81.8387 19.2008 80.0475 19.2008C78.1558 19.2008 76.351 18.8313 74.7011 18.1621L74.6432 18.2881V18.2865Z" fill="#E74526"/>
<path fillRule="evenodd" clipRule="evenodd" d="M74.6091 18.3611C76.2863 19.0439 78.1234 19.4201 80.0475 19.4201C81.8693 19.4201 83.6129 19.0812 85.2168 18.4649L85.1657 18.344C83.5771 18.9535 81.8523 19.2891 80.0475 19.2891C78.1422 19.2891 76.3237 18.9162 74.6619 18.2402L74.6091 18.3595V18.3611Z" fill="#E74226"/>
<path fillRule="evenodd" clipRule="evenodd" d="M74.5751 18.4475C76.2624 19.1336 78.1098 19.5135 80.0474 19.5135C81.8829 19.5135 83.6367 19.1728 85.2508 18.5531L85.1997 18.4322C83.6009 19.0451 81.8642 19.3839 80.0474 19.3839C78.1285 19.3839 76.2982 19.0094 74.6244 18.3301L74.5734 18.4493L74.5751 18.4475Z" fill="#E74226"/>
<path fillRule="evenodd" clipRule="evenodd" d="M74.5393 18.53C76.2386 19.2213 78.0979 19.6027 80.0474 19.6027C81.8931 19.6027 83.6588 19.2587 85.2848 18.6338L85.2355 18.5078C83.6247 19.1258 81.8761 19.4647 80.0474 19.4647C78.1166 19.4647 76.2743 19.0868 74.5921 18.4023L74.5393 18.5282V18.53Z" fill="#E74226"/>
<path fillRule="evenodd" clipRule="evenodd" d="M74.5088 18.6111C76.2183 19.3058 78.0878 19.6889 80.0493 19.6889C81.9069 19.6889 83.6828 19.3432 85.3173 18.7149L85.2714 18.5958C83.6504 19.219 81.8916 19.5612 80.0493 19.5612C78.1048 19.5612 76.2506 19.1798 74.5565 18.4902L74.5088 18.6095V18.6111Z" fill="#E74226"/>
<path fillRule="evenodd" clipRule="evenodd" d="M74.4763 18.686C76.1942 19.3841 78.074 19.7707 80.0457 19.7707C81.9152 19.7707 83.703 19.4233 85.3461 18.7933L85.3001 18.6741C83.6707 19.3007 81.8982 19.6446 80.044 19.6446C78.0893 19.6446 76.2249 19.2616 74.5205 18.5703L74.4745 18.6895L74.4763 18.686Z" fill="#E74226"/>
<path fillRule="evenodd" clipRule="evenodd" d="M74.4423 18.7782C76.1705 19.4797 78.0622 19.8697 80.0458 19.8697C81.9256 19.8697 83.7219 19.5206 85.3769 18.8855L85.3309 18.7578C83.6912 19.3878 81.9085 19.7335 80.0458 19.7335C78.0809 19.7335 76.2046 19.3487 74.4917 18.6523L74.4423 18.78V18.7782Z" fill="#E74224"/>
<path fillRule="evenodd" clipRule="evenodd" d="M74.4133 18.8598C76.1517 19.5664 78.0519 19.9546 80.0458 19.9546C81.9357 19.9546 83.7439 19.6039 85.4058 18.9654L85.3598 18.8361C83.7099 19.4695 81.917 19.8168 80.044 19.8168C78.0672 19.8168 76.1807 19.4303 74.4576 18.7305L74.4099 18.8598H74.4133Z" fill="#E74224"/>
<path fillRule="evenodd" clipRule="evenodd" d="M74.3845 18.9471C76.1314 19.6571 78.0435 20.047 80.0458 20.047C81.946 20.047 83.7628 19.6945 85.4348 19.0543L85.3939 18.9316C83.7355 19.5684 81.9324 19.9193 80.0475 19.9193C78.0588 19.9193 76.162 19.5311 74.4287 18.8262L74.3862 18.9487L74.3845 18.9471Z" fill="#E74224"/>
<path fillRule="evenodd" clipRule="evenodd" d="M74.3572 19.0225C76.1126 19.7342 78.0332 20.1259 80.0475 20.1259C81.9545 20.1259 83.7815 19.7734 85.462 19.1298L85.4228 19.0037C83.7542 19.6439 81.9426 19.9947 80.0475 19.9947C78.0486 19.9947 76.1433 19.6031 74.3997 18.8965L74.3572 19.0209V19.0225Z" fill="#E74224"/>
<path fillRule="evenodd" clipRule="evenodd" d="M74.3281 19.1172C76.0938 19.8307 78.0229 20.2256 80.0474 20.2256C81.9646 20.2256 83.8001 19.8698 85.4891 19.2245L85.4483 19.0916C83.7711 19.7335 81.951 20.086 80.0474 20.086C78.0382 20.086 76.1227 19.6944 74.3707 18.9844L74.3281 19.1172Z" fill="#E54125"/>
<path fillRule="evenodd" clipRule="evenodd" d="M74.3027 19.1961C76.0769 19.9129 78.0163 20.3096 80.0475 20.3096C81.9733 20.3096 83.8155 19.9538 85.5131 19.3068L85.474 19.1756C83.79 19.8192 81.9613 20.1734 80.0475 20.1734C78.0299 20.1734 76.1025 19.7801 74.3436 19.0684L74.3027 19.1979V19.1961Z" fill="#E54125"/>
<path fillRule="evenodd" clipRule="evenodd" d="M74.2771 19.2862C76.0581 20.0047 78.0059 20.4014 80.0474 20.4014C81.9817 20.4014 83.8308 20.0455 85.5368 19.3951L85.5011 19.2692C83.8086 19.9163 81.9697 20.2721 80.0474 20.2721C78.0196 20.2721 76.0853 19.877 74.3146 19.1602L74.2771 19.2862Z" fill="#E54125"/>
<path fillRule="evenodd" clipRule="evenodd" d="M74.2534 19.3625C76.0412 20.081 77.9976 20.4795 80.0476 20.4795C81.9903 20.4795 83.848 20.1218 85.5591 19.4714L85.5234 19.3455C83.8224 19.9943 81.9767 20.3518 80.0459 20.3518C78.0095 20.3518 76.0651 19.9551 74.2875 19.2383L74.2534 19.3642V19.3625Z" fill="#E54125"/>
<path fillRule="evenodd" clipRule="evenodd" d="M74.2295 19.4554C76.0275 20.1773 77.9907 20.5774 80.0492 20.5774C81.9988 20.5774 83.8649 20.2181 85.5829 19.566L85.5488 19.4331C83.8394 20.0836 81.9869 20.4413 80.0492 20.4413C78.0026 20.4413 76.0514 20.0445 74.267 19.3242L74.2312 19.4554H74.2295Z" fill="#E54125"/>
<path fillRule="evenodd" clipRule="evenodd" d="M74.2073 19.5362C76.0104 20.2598 77.9821 20.6582 80.0457 20.6582C82.0038 20.6582 83.8767 20.2989 85.6032 19.6451L85.5726 19.5191C83.8563 20.1712 81.9936 20.5305 80.0457 20.5305C77.9923 20.5305 76.0342 20.1321 74.2413 19.4102L74.209 19.5362H74.2073Z" fill="#E54125"/>
<path fillRule="evenodd" clipRule="evenodd" d="M74.1852 19.6294C75.9952 20.353 77.9737 20.7514 80.0458 20.7514C82.0107 20.7514 83.8887 20.3921 85.6238 19.7366L85.5931 19.6072C83.87 20.2611 82.0005 20.622 80.0458 20.622C77.9856 20.622 76.019 20.2236 74.2176 19.5L74.1852 19.6294Z" fill="#E64024"/>
<path fillRule="evenodd" clipRule="evenodd" d="M74.1647 19.7163C75.9832 20.4416 77.9668 20.8418 80.0458 20.8418C82.0157 20.8418 83.9023 20.4824 85.6424 19.8252L85.6135 19.689C83.8836 20.3445 82.0072 20.7021 80.0458 20.7021C77.977 20.7021 76.0036 20.3037 74.1954 19.5801L74.163 19.7146L74.1647 19.7163Z" fill="#E64024"/>
<path fillRule="evenodd" clipRule="evenodd" d="M74.1461 19.8096C75.9696 20.5349 77.9617 20.9351 80.0458 20.9351C82.0226 20.9351 83.9143 20.5741 85.6595 19.9168L85.6306 19.7807C83.8955 20.4362 82.0124 20.7955 80.0458 20.7955C77.9703 20.7955 75.99 20.3953 74.175 19.6699L74.1461 19.8079V19.8096Z" fill="#E63B24"/>
<path fillRule="evenodd" clipRule="evenodd" d="M74.129 19.8888C75.9594 20.6142 77.9566 21.0144 80.0475 21.0144C82.0294 21.0144 83.9262 20.6551 85.6765 19.9979L85.651 19.8667C83.9075 20.5223 82.0192 20.8832 80.0475 20.8832C77.9651 20.8832 75.9781 20.4832 74.1563 19.7578L74.129 19.8888Z" fill="#E63B24"/>
<path fillRule="evenodd" clipRule="evenodd" d="M74.1136 19.9754C75.9491 20.7007 77.9515 21.1009 80.0474 21.1009C82.0345 21.1009 83.9346 20.7416 85.6918 20.0861L85.668 19.9566C83.921 20.6121 82.0259 20.9732 80.0474 20.9732C77.9583 20.9732 75.9645 20.573 74.1375 19.8477L74.1136 19.9754Z" fill="#E63B24"/>
<path fillRule="evenodd" clipRule="evenodd" d="M74.095 20.0733C75.9356 20.7986 77.9447 21.1988 80.0458 21.1988C82.0362 21.1988 83.9432 20.8394 85.7055 20.1822L85.6833 20.0443C83.9296 20.6999 82.0311 21.0591 80.0475 21.0591C77.9532 21.0591 75.9543 20.6589 74.1205 19.9336L74.095 20.0749V20.0733Z" fill="#E63B24"/>
<path fillRule="evenodd" clipRule="evenodd" d="M74.0813 20.1628C75.9287 20.8882 77.9412 21.2849 80.0474 21.2849C82.043 21.2849 83.9534 20.9257 85.719 20.2719L85.6986 20.1322C83.9397 20.7878 82.0362 21.147 80.0474 21.147C77.9481 21.147 75.944 20.7468 74.1051 20.0215L74.0813 20.1612V20.1628Z" fill="#E63B24"/>
<path fillRule="evenodd" clipRule="evenodd" d="M74.0693 20.2429C75.9201 20.9683 77.9378 21.365 80.0474 21.365C82.0463 21.365 83.9601 21.0075 85.7309 20.3537L85.7122 20.2243C83.9499 20.8798 82.0395 21.2391 80.0474 21.2391C77.9429 21.2391 75.9321 20.8406 74.0881 20.1152L74.0693 20.2446V20.2429Z" fill="#E63B24"/>
<path fillRule="evenodd" clipRule="evenodd" d="M74.0558 20.3358C75.9117 21.0577 77.9328 21.4562 80.0475 21.4562C82.0481 21.4562 83.967 21.1004 85.7395 20.4466L85.7242 20.3137C83.9568 20.9692 82.0447 21.3268 80.0475 21.3268C77.9396 21.3268 75.9236 20.9285 74.0745 20.2031L74.0558 20.3342V20.3358Z" fill="#E63B24"/>
<path fillRule="evenodd" clipRule="evenodd" d="M74.0455 20.4308C75.9065 21.1527 77.9293 21.5479 80.0457 21.5479C82.0515 21.5479 83.9721 21.192 85.7514 20.5416L85.7361 20.4037C83.9636 21.0558 82.0464 21.4133 80.0457 21.4133C77.9327 21.4133 75.9151 21.0166 74.0626 20.293L74.0455 20.4308Z" fill="#E63B24"/>
<path fillRule="evenodd" clipRule="evenodd" d="M74.0354 20.5197C75.8982 21.2399 77.9261 21.6367 80.0459 21.6367C82.0533 21.6367 83.9773 21.2825 85.7583 20.6321L85.7464 20.4976C83.9705 21.1497 82.0499 21.5072 80.0459 21.5072C77.9295 21.5072 75.9084 21.1106 74.0491 20.3887L74.0338 20.5214L74.0354 20.5197Z" fill="#E63B24"/>
<path fillRule="evenodd" clipRule="evenodd" d="M74.0268 20.6188C75.8929 21.3373 77.9242 21.7305 80.0457 21.7305C82.0549 21.7305 83.9806 21.3781 85.765 20.7293L85.7548 20.5932C83.9755 21.2436 82.0532 21.5995 80.0457 21.5995C77.9276 21.5995 75.9031 21.2027 74.0404 20.4824L74.0268 20.6188Z" fill="#E63B24"/>
<path fillRule="evenodd" clipRule="evenodd" d="M74.0201 20.7108C75.8896 21.4259 77.9226 21.8193 80.0458 21.8193C82.0567 21.8193 83.9841 21.4668 85.7702 20.8215L85.76 20.6785C83.9773 21.3272 82.0533 21.6797 80.0441 21.6797C77.9226 21.6797 75.8947 21.2847 74.0286 20.5645L74.0184 20.7091L74.0201 20.7108Z" fill="#E63B24"/>
<path fillRule="evenodd" clipRule="evenodd" d="M74.0132 20.7979C75.8861 21.5113 77.9191 21.9046 80.0457 21.9046C82.0566 21.9046 83.9857 21.5539 85.7752 20.9119L85.7684 20.7689C83.9823 21.416 82.0566 21.7684 80.0457 21.7684C77.9225 21.7684 75.8929 21.375 74.0234 20.6582L74.0132 20.7995V20.7979Z" fill="#E63925"/>
<path fillRule="evenodd" clipRule="evenodd" d="M74.0099 20.89C75.8846 21.6 77.9193 21.9899 80.0476 21.9899C82.0585 21.9899 83.9893 21.6409 85.7788 21.0007L85.7737 20.8644C83.9859 21.508 82.0585 21.8605 80.0476 21.8605C77.9227 21.8605 75.8897 21.4671 74.0168 20.752L74.0099 20.89Z" fill="#E63925"/>
<path fillRule="evenodd" clipRule="evenodd" d="M74.0063 20.9873C75.8827 21.6939 77.9191 22.0821 80.0474 22.0821C82.0583 22.0821 83.9874 21.7347 85.7803 21.0979L85.7786 20.9601C83.9891 21.6003 82.06 21.9511 80.0491 21.9511C77.9225 21.9511 75.8895 21.5594 74.0149 20.8477L74.0098 20.9873H74.0063Z" fill="#E63925"/>
<path fillRule="evenodd" clipRule="evenodd" d="M74.0048 21.0785C75.8846 21.7835 77.921 22.17 80.0476 22.17C82.0584 22.17 83.9876 21.8243 85.7805 21.1909L85.7788 21.0461C83.9876 21.6846 82.0584 22.0336 80.0476 22.0336C77.9193 22.0336 75.8846 21.6439 74.0082 20.9355L74.0048 21.0802V21.0785Z" fill="#E63925"/>
<path fillRule="evenodd" clipRule="evenodd" d="M74.0048 21.1744C75.8863 21.8742 77.921 22.2589 80.0476 22.2589C82.0567 22.2589 83.9859 21.915 85.7788 21.285L85.7805 21.142C83.9893 21.7771 82.0601 22.1244 80.0476 22.1244C77.9193 22.1244 75.8846 21.7362 74.0065 21.0312L74.0048 21.1744Z" fill="#E63926"/>
<path fillRule="evenodd" clipRule="evenodd" d="M74.0065 21.2628C75.8862 21.9592 77.9226 22.339 80.0475 22.339C82.055 22.339 83.9824 21.9985 85.7753 21.3736L85.7787 21.2356C83.9858 21.8673 82.0567 22.213 80.0458 22.213C77.9192 22.213 75.8845 21.8282 74.0031 21.125L74.0048 21.2645L74.0065 21.2628Z" fill="#E63926"/>
<path fillRule="evenodd" clipRule="evenodd" d="M74.0097 21.3588C75.8911 22.0518 77.9258 22.4298 80.0491 22.4298C82.0548 22.4298 83.9788 22.091 85.7717 21.4712L85.7785 21.3332C83.9856 21.9615 82.0582 22.3038 80.0491 22.3038C77.9224 22.3038 75.886 21.9208 74.0063 21.2227L74.0097 21.3605V21.3588Z" fill="#E63926"/>
<path fillRule="evenodd" clipRule="evenodd" d="M74.0132 21.4604C75.893 22.1482 77.926 22.5229 80.0458 22.5229C82.0481 22.5229 83.9721 22.1873 85.765 21.5693L85.7736 21.4211C83.9789 22.0443 82.0532 22.3832 80.0458 22.3832C77.9226 22.3832 75.8879 22.0035 74.0081 21.3105L74.0132 21.4604Z" fill="#E63926"/>
<path fillRule="evenodd" clipRule="evenodd" d="M74.02 21.559C75.8997 22.2401 77.9293 22.613 80.0474 22.613C82.0464 22.613 83.967 22.2809 85.7582 21.6679L85.7684 21.5266C83.9755 22.1447 82.0515 22.4835 80.0474 22.4835C77.9259 22.4835 75.8929 22.1056 74.0115 21.416L74.02 21.559Z" fill="#E63926"/>
<path fillRule="evenodd" clipRule="evenodd" d="M74.0268 21.655C75.9065 22.3327 77.9327 22.7022 80.0474 22.7022C82.0429 22.7022 83.9601 22.3719 85.7496 21.7657L85.7633 21.6226C83.972 22.2372 82.0497 22.571 80.0474 22.571C77.9293 22.571 75.898 22.1981 74.0182 21.5137L74.0285 21.655H74.0268Z" fill="#E63926"/>
<path fillRule="evenodd" clipRule="evenodd" d="M74.0355 21.7447C75.9118 22.4156 77.9363 22.7816 80.0459 22.7816C82.0363 22.7816 83.9501 22.4563 85.7379 21.8553L85.7532 21.7123C83.9637 22.3202 82.0448 22.6523 80.0476 22.6523C77.9312 22.6523 75.9033 22.2809 74.0236 21.6016L74.0372 21.7429L74.0355 21.7447Z" fill="#E63926"/>
<path fillRule="evenodd" clipRule="evenodd" d="M74.0473 21.8524C75.9236 22.5181 77.9413 22.8808 80.0475 22.8808C82.0328 22.8808 83.9415 22.559 85.7242 21.9631L85.7429 21.8098C83.9551 22.4125 82.0396 22.7413 80.0458 22.7413C77.9328 22.7413 75.9083 22.3735 74.0303 21.6992L74.0456 21.8524H74.0473Z" fill="#E63926"/>
<path fillRule="evenodd" clipRule="evenodd" d="M74.0593 21.9379C75.9322 22.5969 77.9464 22.9579 80.0475 22.9579C82.0277 22.9579 83.9313 22.6378 85.7106 22.0487L85.731 21.9057C83.9467 22.5033 82.0346 22.8285 80.0475 22.8285C77.9396 22.8285 75.9169 22.4624 74.0405 21.7949L74.0593 21.9397V21.9379Z" fill="#E53627"/>
<path fillRule="evenodd" clipRule="evenodd" d="M74.0712 22.042C75.9407 22.6941 77.9532 23.0517 80.0475 23.0517C82.0192 23.0517 83.9194 22.7351 85.6953 22.1528L85.7174 22.0114C83.9364 22.604 82.0294 22.9256 80.0475 22.9256C77.9447 22.9256 75.9271 22.5647 74.0524 21.9023L74.0712 22.0437V22.042Z" fill="#E53627"/>
<path fillRule="evenodd" clipRule="evenodd" d="M74.0899 22.1399C75.956 22.7852 77.96 23.1376 80.0475 23.1376C82.0124 23.1376 83.904 22.8243 85.6765 22.2488L85.7021 22.099C83.9245 22.6847 82.0226 23.0031 80.0475 23.0031C77.9498 23.0031 75.9373 22.6455 74.0643 21.9883L74.0899 22.1399Z" fill="#E43626"/>
<path fillRule="evenodd" clipRule="evenodd" d="M74.107 22.2433C75.9697 22.8835 77.9686 23.231 80.0476 23.231C82.0056 23.231 83.8905 22.9227 85.6562 22.3524L85.6868 22.199C83.9109 22.7797 82.0158 23.0946 80.0476 23.0946C77.9567 23.0946 75.9492 22.7405 74.0797 22.0918L74.1053 22.2451L74.107 22.2433Z" fill="#E43626"/>
<path fillRule="evenodd" clipRule="evenodd" d="M74.1255 22.3403C75.9831 22.972 77.9752 23.3143 80.0474 23.3143C81.9952 23.3143 83.875 23.0096 85.6356 22.4477L85.6662 22.3045C83.8971 22.8766 82.0089 23.1883 80.0474 23.1883C77.9633 23.1883 75.961 22.8392 74.0983 22.1973L74.1255 22.3403Z" fill="#E33427"/>
<path fillRule="evenodd" clipRule="evenodd" d="M74.1478 22.4446C75.9986 23.0678 77.9822 23.4049 80.0458 23.4049C81.9869 23.4049 83.8564 23.1053 85.6118 22.5502L85.6459 22.4004C83.8802 22.9674 81.9988 23.2738 80.0441 23.2738C77.9686 23.2738 75.973 22.9281 74.1154 22.293L74.1461 22.443L74.1478 22.4446Z" fill="#E33427"/>
<path fillRule="evenodd" clipRule="evenodd" d="M74.1716 22.5493C76.0173 23.164 77.9924 23.4994 80.0458 23.4994C81.9749 23.4994 83.8359 23.2033 85.5845 22.6584L85.6237 22.5018C83.8648 23.0603 81.9902 23.3633 80.0458 23.3633C77.977 23.3633 75.99 23.0228 74.1358 22.3945L74.1716 22.5493Z" fill="#E33427"/>
<path fillRule="evenodd" clipRule="evenodd" d="M74.197 22.6479C76.0359 23.254 78.0025 23.5843 80.0457 23.5843C81.9646 23.5843 83.8154 23.2949 85.5572 22.7551L85.5981 22.6053C83.846 23.1553 81.9816 23.4531 80.0457 23.4531C77.9872 23.4531 76.0087 23.1178 74.1613 22.498L74.197 22.6462V22.6479Z" fill="#E33427"/>
<path fillRule="evenodd" clipRule="evenodd" d="M74.2243 22.7475C76.0564 23.3451 78.0128 23.6703 80.0458 23.6703C81.9528 23.6703 83.795 23.3843 85.5284 22.8547L85.5709 22.7049C83.8257 23.2481 81.9698 23.5409 80.0458 23.5409C77.9975 23.5409 76.0258 23.2089 74.1835 22.5977L74.2243 22.7491V22.7475Z" fill="#E33427"/>
<path fillRule="evenodd" clipRule="evenodd" d="M74.2533 22.8529C76.0785 23.4421 78.0247 23.7621 80.0457 23.7621C81.9425 23.7621 83.7729 23.4812 85.4977 22.9602L85.5454 22.8104C83.8069 23.345 81.9612 23.6328 80.0457 23.6328C78.0076 23.6328 76.0445 23.3059 74.209 22.7031L74.2516 22.8529H74.2533Z" fill="#E33427"/>
<path fillRule="evenodd" clipRule="evenodd" d="M74.2873 22.9549C76.1024 23.5338 78.0366 23.8471 80.0458 23.8471C81.9289 23.8471 83.7457 23.5713 85.4603 23.0588L85.5113 22.9005C83.7814 23.4266 81.9459 23.7093 80.0441 23.7093C78.0162 23.7093 76.0632 23.3875 74.2363 22.7949L74.2856 22.9549H74.2873Z" fill="#E33427"/>
<path fillRule="evenodd" clipRule="evenodd" d="M74.3214 23.0613C76.1279 23.6317 78.052 23.9383 80.0475 23.9383C81.917 23.9383 83.7218 23.6676 85.4262 23.1653L85.479 23.0155C83.7593 23.5314 81.9357 23.8106 80.0475 23.8106C78.0332 23.8106 76.0922 23.4939 74.272 22.9082L74.3214 23.0597V23.0613Z" fill="#E33427"/>
<path fillRule="evenodd" clipRule="evenodd" d="M74.3571 23.1518C76.1551 23.7119 78.0655 24.0151 80.0474 24.0151C81.9016 24.0151 83.6928 23.7493 85.3887 23.2555L85.4449 23.1057C83.7354 23.6131 81.9238 23.8874 80.0491 23.8874C78.0468 23.8874 76.1177 23.5758 74.306 23.002L74.3588 23.1518H74.3571Z" fill="#E33427"/>
<path fillRule="evenodd" clipRule="evenodd" d="M74.3996 23.2717C76.184 23.82 78.0808 24.1163 80.0474 24.1163C81.8862 24.1163 83.6621 23.8574 85.3444 23.3755L85.4074 23.2155C83.7081 23.7144 81.9084 23.9817 80.0474 23.9817C78.0586 23.9817 76.1415 23.6769 74.34 23.1133L74.3996 23.2734V23.2717Z" fill="#E53127"/>
<path fillRule="evenodd" clipRule="evenodd" d="M74.4387 23.3807C76.2129 23.9187 78.0961 24.2099 80.0473 24.2099C81.8692 24.2099 83.6314 23.9579 85.3001 23.4846L85.3665 23.3245C83.6774 23.8114 81.893 24.0737 80.0473 24.0737C78.0722 24.0737 76.1669 23.7741 74.3757 23.2207L74.4387 23.3823V23.3807Z" fill="#E53127"/>
<path fillRule="evenodd" clipRule="evenodd" d="M74.4832 23.4753C76.2454 24.0031 78.1132 24.2874 80.0475 24.2874C81.8523 24.2874 83.5975 24.0405 85.2542 23.5774L85.3224 23.4224C83.6469 23.8992 81.8761 24.1564 80.0475 24.1564C78.0877 24.1564 76.1977 23.8635 74.4185 23.3203L74.4832 23.4753Z" fill="#E53127"/>
<path fillRule="evenodd" clipRule="evenodd" d="M74.5308 23.5902C76.2777 24.1061 78.1302 24.3835 80.0457 24.3835C81.8335 24.3835 83.5651 24.1419 85.2082 23.6907L85.2797 23.5357C83.6162 24.0022 81.8607 24.2525 80.0457 24.2525C78.103 24.2525 76.23 23.9648 74.4626 23.4336L74.5308 23.5884V23.5902Z" fill="#E53127"/>
<path fillRule="evenodd" clipRule="evenodd" d="M74.5835 23.692C76.3168 24.196 78.1489 24.4667 80.0457 24.4667C81.813 24.4667 83.5242 24.2301 85.1503 23.7908L85.2303 23.6255C83.5804 24.0818 81.8403 24.3271 80.044 24.3271C78.1183 24.3271 76.2589 24.0462 74.5035 23.5234L74.5818 23.6937L74.5835 23.692Z" fill="#E52E27"/>
<path fillRule="evenodd" clipRule="evenodd" d="M74.6363 23.8009C76.3543 24.2929 78.1693 24.5569 80.0474 24.5569C81.7943 24.5569 83.4885 24.3271 85.1009 23.898L85.1809 23.7413C83.5464 24.1857 81.825 24.4257 80.0474 24.4257C78.1404 24.4257 76.2998 24.1517 74.5597 23.6426L74.638 23.8009H74.6363Z" fill="#E52E27"/>
<path fillRule="evenodd" clipRule="evenodd" d="M74.6892 23.9161C76.3919 24.3946 78.1899 24.6517 80.0458 24.6517C81.7723 24.6517 83.446 24.4287 85.0414 24.0132L85.1266 23.8549C83.5056 24.2891 81.803 24.5224 80.0458 24.5224C78.1575 24.5224 76.334 24.255 74.6075 23.7578L74.6892 23.9161Z" fill="#E52E27"/>
<path fillRule="evenodd" clipRule="evenodd" d="M74.7488 24.0096C76.4362 24.4761 78.212 24.7247 80.0475 24.7247C81.7502 24.7247 83.4035 24.5102 84.9802 24.105L85.0704 23.9465C83.4665 24.3688 81.7842 24.5954 80.0475 24.5954C78.1797 24.5954 76.3732 24.3349 74.662 23.8496L74.7488 24.0096Z" fill="#E52E27"/>
<path fillRule="evenodd" clipRule="evenodd" d="M74.8152 24.1316C76.4821 24.5845 78.2359 24.8263 80.0458 24.8263C81.7246 24.8263 83.3541 24.6187 84.9103 24.2271L85.0108 24.0601C83.4256 24.4705 81.7604 24.6901 80.0458 24.6901C78.2001 24.6901 76.4123 24.4365 74.7181 23.9648L74.8135 24.1316H74.8152Z" fill="#E52E27"/>
<path fillRule="evenodd" clipRule="evenodd" d="M74.8782 24.2384C76.5264 24.6777 78.2597 24.9145 80.0475 24.9145C81.7025 24.9145 83.3098 24.7118 84.8473 24.3338L84.9444 24.1788C83.3796 24.5756 81.7382 24.7868 80.0492 24.7868C78.2273 24.7868 76.4617 24.5398 74.7863 24.0801L74.8799 24.2384H74.8782Z" fill="#E52E27"/>
<path fillRule="evenodd" clipRule="evenodd" d="M74.9463 24.3416C76.5758 24.7673 78.2853 24.9956 80.0475 24.9956C81.677 24.9956 83.2605 24.7996 84.7776 24.4336L84.8797 24.2769C83.3337 24.6617 81.7145 24.8679 80.0475 24.8679C78.2478 24.8679 76.5043 24.6277 74.8459 24.1816L74.9463 24.3416Z" fill="#E52E27"/>
<path fillRule="evenodd" clipRule="evenodd" d="M75.0263 24.4613C76.6319 24.8716 78.3142 25.0913 80.0492 25.0913C81.6497 25.0913 83.2059 24.904 84.6975 24.5516L84.8133 24.3846C83.2877 24.7575 81.6906 24.9568 80.0492 24.9568C78.2733 24.9568 76.5536 24.7252 74.9156 24.291L75.028 24.4613H75.0263Z" fill="#E52E27"/>
<path fillRule="evenodd" clipRule="evenodd" d="M75.1028 24.5683C76.6846 24.965 78.3396 25.176 80.0457 25.176C81.6172 25.176 83.1479 24.9974 84.6156 24.6586L84.7399 24.4848C83.2348 24.8441 81.6632 25.0365 80.0457 25.0365C78.297 25.0365 76.5995 24.8134 74.9836 24.3945L75.1028 24.5683Z" fill="#E52E27"/>
<path fillRule="evenodd" clipRule="evenodd" d="M75.1813 24.681C76.7392 25.0624 78.3687 25.2667 80.0458 25.2667C81.5884 25.2667 83.0902 25.0947 84.534 24.7695L84.6566 24.6079C83.177 24.9535 81.6327 25.1373 80.0458 25.1373C78.3261 25.1373 76.6558 24.9211 75.0621 24.5176L75.1813 24.681Z" fill="#E52E27"/>
<path fillRule="evenodd" clipRule="evenodd" d="M75.2648 24.7879C76.7972 25.1539 78.3994 25.3497 80.0459 25.3497C81.5579 25.3497 83.0307 25.1846 84.449 24.873L84.5767 24.7112C83.1192 25.0432 81.6038 25.2187 80.0459 25.2187C78.3534 25.2187 76.7104 25.011 75.1405 24.6211L75.2665 24.7862L75.2648 24.7879Z" fill="#E42B27"/>
<path fillRule="evenodd" clipRule="evenodd" d="M75.3635 24.9036C76.8669 25.2544 78.4351 25.4417 80.0458 25.4417C81.522 25.4417 82.9608 25.285 84.3485 24.9888L84.4949 24.8152C83.063 25.1336 81.5748 25.302 80.0458 25.302C78.3823 25.302 76.7665 25.1012 75.2205 24.7266L75.3618 24.9036H75.3635Z" fill="#E42B27"/>
<path fillRule="evenodd" clipRule="evenodd" d="M75.4571 25.0128C76.9333 25.3482 78.4691 25.5254 80.0458 25.5254C81.488 25.5254 82.8961 25.3772 84.2531 25.0946L84.3944 24.9328C82.9931 25.2359 81.5374 25.3977 80.0458 25.3977C78.4181 25.3977 76.8346 25.2069 75.3175 24.8477L75.4571 25.0128Z" fill="#E42B27"/>
<path fillRule="evenodd" clipRule="evenodd" d="M75.5593 25.1316C77.0049 25.45 78.5066 25.6203 80.0476 25.6203C81.4523 25.6203 82.8246 25.4807 84.1493 25.2134L84.3025 25.0465C82.9302 25.3359 81.5067 25.4893 80.0476 25.4893C78.4522 25.4893 76.901 25.3071 75.4095 24.9648L75.5576 25.13L75.5593 25.1316Z" fill="#E42B27"/>
<path fillRule="evenodd" clipRule="evenodd" d="M75.6597 25.2299C77.0746 25.5329 78.5423 25.6946 80.0474 25.6946C81.4147 25.6946 82.7496 25.5618 84.0436 25.3098L84.2002 25.1497C82.8602 25.4238 81.4709 25.5669 80.0474 25.5669C78.4878 25.5669 76.969 25.3933 75.5081 25.0664L75.6597 25.2299Z" fill="#E42B27"/>
<path fillRule="evenodd" clipRule="evenodd" d="M75.784 25.3607C77.1598 25.645 78.5866 25.7965 80.0475 25.7965C81.3705 25.7965 82.6645 25.6723 83.9194 25.4373L84.0981 25.2636C82.7888 25.5224 81.4335 25.6603 80.0475 25.6603C78.5236 25.6603 77.0372 25.4952 75.6086 25.1836C75.6665 25.2449 75.7244 25.3045 75.7857 25.3623L75.784 25.3607Z" fill="#E42B27"/>
<path fillRule="evenodd" clipRule="evenodd" d="M75.9033 25.4775C77.2433 25.7448 78.6293 25.886 80.0476 25.886C81.328 25.886 82.5811 25.7703 83.7969 25.5523C83.8582 25.4995 83.9177 25.4434 83.9773 25.3872C82.7054 25.6307 81.391 25.7602 80.0476 25.7602C78.5663 25.7602 77.1207 25.6051 75.7279 25.3105L75.9033 25.4775Z" fill="#E42B27"/>
<path fillRule="evenodd" clipRule="evenodd" d="M76.0325 25.5831C77.3317 25.8334 78.6751 25.9678 80.0474 25.9678C81.2801 25.9678 82.489 25.8607 83.6639 25.6581C83.7286 25.6036 83.7933 25.549 83.8563 25.4911C82.6201 25.7176 81.3482 25.8385 80.0474 25.8385C78.6086 25.8385 77.204 25.6938 75.8469 25.418L76.0308 25.5847L76.0325 25.5831Z" fill="#E32B27"/>
<path fillRule="evenodd" clipRule="evenodd" d="M76.1806 25.7115C77.4355 25.9431 78.7278 26.0657 80.0491 26.0657C81.2307 26.0657 82.3868 25.9668 83.5157 25.7812C83.5889 25.725 83.6621 25.6637 83.7336 25.6041C82.5367 25.8153 81.3073 25.926 80.0508 25.926C78.6546 25.926 77.289 25.7898 75.9678 25.5293C76.0376 25.5923 76.1091 25.6519 76.1823 25.7115H76.1806Z" fill="#E32B27"/>
<path fillRule="evenodd" clipRule="evenodd" d="M76.3271 25.8307C77.5343 26.0435 78.7773 26.1559 80.0458 26.1559C81.1763 26.1559 82.2865 26.0656 83.3677 25.897C83.446 25.8391 83.526 25.7796 83.6009 25.7183C82.4448 25.9141 81.2581 26.0179 80.0441 26.0179C78.6938 26.0179 77.3726 25.8902 76.0939 25.6484C76.1688 25.7114 76.2471 25.7744 76.3254 25.834L76.3271 25.8307Z" fill="#E32928"/>
<path fillRule="evenodd" clipRule="evenodd" d="M76.4786 25.9376C77.6382 26.1334 78.83 26.2355 80.0457 26.2355C81.1218 26.2355 82.1792 26.1555 83.211 26.0022C83.291 25.9478 83.3693 25.8917 83.4477 25.8338C82.3409 26.0126 81.2036 26.1062 80.0457 26.1062C78.75 26.1062 77.4815 25.9887 76.2488 25.7656C76.3237 25.8252 76.4003 25.8831 76.4786 25.9376Z" fill="#E32928"/>
<path fillRule="evenodd" clipRule="evenodd" d="M76.649 26.0527C77.7557 26.228 78.8897 26.3217 80.0458 26.3217C81.0623 26.3217 82.0601 26.2484 83.0391 26.1122C83.1242 26.0594 83.2094 26.0033 83.2911 25.9454C82.2337 26.1072 81.1508 26.1905 80.0458 26.1905C78.8029 26.1905 77.5854 26.0832 76.4004 25.8789C76.4821 25.9385 76.5638 25.9965 76.6473 26.0527H76.649Z" fill="#E42928"/>
<path fillRule="evenodd" clipRule="evenodd" d="M76.8532 26.1871C77.8952 26.342 78.9611 26.4237 80.0474 26.4237C80.9924 26.4237 81.9237 26.3625 82.8363 26.2433C82.9368 26.1854 83.0339 26.1258 83.1309 26.0611C82.1246 26.2058 81.0945 26.2824 80.0474 26.2824C78.8606 26.2824 77.696 26.1836 76.562 25.998C76.6574 26.0645 76.7544 26.1258 76.8549 26.1854L76.8532 26.1871Z" fill="#E42928"/>
<path fillRule="evenodd" clipRule="evenodd" d="M77.0508 26.2965C78.0298 26.4327 79.031 26.5042 80.0475 26.5042C80.9227 26.5042 81.7859 26.4514 82.6338 26.3492C82.736 26.2964 82.8365 26.2386 82.9369 26.179C81.9919 26.3067 81.0282 26.3732 80.0492 26.3732C78.9305 26.3732 77.8306 26.2863 76.7579 26.1211C76.855 26.1824 76.9537 26.2404 77.0542 26.2949L77.0508 26.2965Z" fill="#E42928"/>
<path fillRule="evenodd" clipRule="evenodd" d="M77.2739 26.4096C78.1814 26.5254 79.1077 26.5851 80.0459 26.5851C80.8444 26.5851 81.6294 26.5408 82.4058 26.4574C82.5164 26.4063 82.6271 26.3502 82.7344 26.2906C81.8541 26.4013 80.9568 26.4574 80.0459 26.4574C78.9919 26.4574 77.9584 26.3791 76.9453 26.2344C77.0526 26.2974 77.1633 26.3551 77.2739 26.4096Z" fill="#E42928"/>
<path fillRule="evenodd" clipRule="evenodd" d="M77.5259 26.5276C78.3534 26.6229 79.1945 26.6739 80.0475 26.6739C80.7575 26.6739 81.4608 26.6382 82.1537 26.5718C82.278 26.5207 82.3989 26.4663 82.5198 26.4067C81.7093 26.4986 80.8835 26.5479 80.0475 26.5479C79.0702 26.5479 78.1082 26.4815 77.1649 26.3555C77.2824 26.4168 77.4033 26.473 77.5259 26.5257V26.5276Z" fill="#E42928"/>
<path fillRule="evenodd" clipRule="evenodd" d="M77.868 26.6695C78.5848 26.741 79.3118 26.7768 80.0474 26.7768C80.6399 26.7768 81.2239 26.7529 81.8045 26.7069C81.9629 26.6542 82.1195 26.5928 82.2745 26.5264C81.5423 26.6013 80.7982 26.6404 80.0474 26.6404C79.1518 26.6404 78.2681 26.5843 77.4014 26.4805C77.5547 26.5503 77.7096 26.615 77.868 26.6712V26.6695Z" fill="#E22929"/>
<path fillRule="evenodd" clipRule="evenodd" d="M78.2529 26.7838C78.8454 26.8315 79.443 26.857 80.0475 26.857C80.5072 26.857 80.9618 26.8417 81.4147 26.8127C81.602 26.7651 81.7876 26.7089 81.9698 26.6408C81.3364 26.697 80.6962 26.7259 80.0475 26.7259C79.2557 26.7259 78.4776 26.6833 77.708 26.6016C77.8868 26.6714 78.0673 26.7311 78.2529 26.7821V26.7838Z" fill="#E22929"/>
<path fillRule="evenodd" clipRule="evenodd" d="M78.8267 26.9076C79.2303 26.9298 79.6389 26.9417 80.0475 26.9417C80.3063 26.9417 80.5652 26.9349 80.824 26.9264C81.0947 26.8907 81.3637 26.8328 81.6276 26.7545C81.1066 26.792 80.5788 26.8107 80.0475 26.8107C79.3699 26.8107 78.7007 26.7783 78.0401 26.7188C78.2972 26.8005 78.5611 26.8651 78.8267 26.9076Z" fill="#E22929"/>
<path fillRule="evenodd" clipRule="evenodd" d="M78.481 26.8477C78.9407 26.9532 79.4157 26.9975 79.8908 26.9737C80.3215 26.9958 80.7506 26.9617 81.1712 26.8766C80.7983 26.8953 80.4237 26.9055 80.0474 26.9055C79.5213 26.9055 79.0003 26.8851 78.4827 26.8493L78.481 26.8477Z" fill="#E12629"/>
<path fillRule="evenodd" clipRule="evenodd" d="M80.0901 25.9135C82.1861 26.0174 84.2565 24.519 84.8201 22.2885C84.0232 23.7256 82.4806 24.6315 80.9227 24.5549C78.0094 24.6996 75.1591 21.4525 77.1172 17.6555C77.5429 16.8195 77.9651 15.9477 78.3568 15.0879V13.0566C77.6638 14.7525 76.8141 16.6204 75.9202 18.3537C73.7732 22.5134 76.8993 26.0685 80.0884 25.9135H80.0901Z" fill="#F3941B"/>
</svg>
