
<svg width="339" height="180" viewBox="0 0 139 80" fill="none" xmlns="http://www.w3.org/2000/svg">
<path d="M138.373 63.9477H131.421V51.2594C131.421 49.9489 130.966 49.2972 130.054 49.2972C129.128 49.2972 128.656 49.9489 128.656 51.2594V63.9477H121.703V51.5772C121.703 50.7028 121.608 50.0992 121.416 49.7818C121.224 49.4562 120.864 49.2968 120.345 49.2968C119.41 49.2968 118.946 50.0589 118.946 51.5772V63.9477H111.986V44.6648H118.731V46.9131C119.826 45.0778 121.552 44.1639 123.901 44.1639C126.123 44.1639 127.649 45.0538 128.465 46.8415H128.497C129.576 45.0542 131.278 44.1639 133.603 44.1639C134.866 44.1639 135.929 44.4977 136.792 45.1651C137.846 45.9916 138.374 47.2147 138.374 48.8358V63.9477H138.373ZM103.25 57.3137V54.6117C102.699 54.8186 101.876 55.2153 100.773 55.7877C100.389 56.1852 100.198 56.8441 100.198 57.7425C100.198 59.077 100.669 59.7368 101.596 59.7368C102.699 59.7368 103.25 58.9344 103.25 57.3137ZM110.203 63.9477H103.674C103.466 63.3993 103.354 62.8749 103.354 62.375V61.914H103.323C102.963 62.3668 102.612 62.8197 102.276 63.2725C101.42 64.0509 100.238 64.4485 98.7276 64.4485C95.2195 64.4485 93.4607 62.4936 93.4607 58.6011C93.4607 56.5833 93.9244 55.1292 94.8586 54.2553C95.6977 53.4443 97.3048 52.8012 99.7021 52.3244C101.54 51.9748 102.539 51.6651 102.707 51.4029C103.066 51.0452 103.25 50.5842 103.25 50.0123C103.25 48.963 102.778 48.4391 101.852 48.4391C101.277 48.4391 100.845 48.6691 100.557 49.122C100.269 49.5748 100.166 50.0838 100.237 50.6553H94.14C94.14 48.6293 94.6118 47.1277 95.5388 46.127C96.7614 44.8156 98.8947 44.1639 101.956 44.1639C104.609 44.1639 106.511 44.5846 107.653 45.411C108.924 46.3171 109.556 47.8821 109.556 50.1146V61.3095C109.556 61.7863 109.62 62.231 109.74 62.6603L109.915 63.2318C110.035 63.6366 110.131 63.8752 110.203 63.9468L110.203 63.9477ZM92.0225 63.9477H85.0698V50.9415C85.0698 49.8452 84.6138 49.2968 83.7031 49.2968C82.7766 49.2968 82.3048 49.8769 82.3048 51.0447V63.9477H75.352V38.4995H82.3048V46.8737H82.3446C82.7925 46.3488 83.2476 45.8326 83.7031 45.3082C84.6138 44.5452 85.797 44.1644 87.2515 44.1644C88.7617 44.1644 89.9291 44.6014 90.7677 45.4676C91.5987 46.3339 92.0225 47.4538 92.0225 48.8363V63.9481V63.9477ZM66.745 54.0719C66.745 52.2927 66.6495 51.0769 66.4652 50.4411C66.2496 49.679 65.7782 49.2972 65.0673 49.2972C64.4917 49.2972 64.0924 49.679 63.8841 50.4411C63.6921 51.1009 63.5965 52.3158 63.5965 54.0719C63.5965 55.9706 63.6762 57.2902 63.8442 58.0283C64.0597 58.8868 64.4673 59.3157 65.0668 59.3157C65.8022 59.3157 66.2813 58.8868 66.4969 58.0283C66.6649 57.4088 66.7446 56.0901 66.7446 54.0719H66.745ZM73.706 54.0008C73.706 57.7348 73.2975 60.3807 72.491 61.9539C71.6044 63.6139 70.0942 64.4485 67.9518 64.4485C66.4969 64.4485 65.3784 64.0989 64.595 63.4075C64.0036 62.8672 63.7002 62.2713 63.7002 61.6278H63.5965V63.9477H56.7479V38.4995H63.7006V46.9457C63.7246 46.5159 64.0842 45.992 64.7793 45.3802C65.651 44.5697 66.6893 44.1644 67.888 44.1644C70.11 44.1644 71.6605 45.0221 72.5472 46.731C73.322 48.2086 73.7064 50.6317 73.7064 54.0008H73.706ZM54.8143 63.9481H48.0689V61.7392C47.0858 63.5428 45.3759 64.4485 42.946 64.4485C41.8112 64.4485 40.8521 64.1863 40.0538 63.6619C38.7827 62.8518 38.1438 61.5092 38.1438 59.6335V44.6648H45.0961V56.6385C45.0961 57.6633 45.1685 58.3303 45.3125 58.6328C45.4796 59.0856 45.8718 59.3161 46.4949 59.3161C47.4064 59.3161 47.8534 58.4585 47.8534 56.7499V44.6652H54.8143V63.9481ZM36.2097 63.9481H29.2493V50.9419C29.2493 49.8456 28.8014 49.2972 27.8903 49.2972C26.9557 49.2972 26.492 49.8773 26.492 51.0452V63.9481H19.5392V38.4999H26.492V46.8741H26.5318C26.9797 46.3493 27.4348 45.8331 27.8903 45.3087C28.8014 44.5457 29.9847 44.1648 31.4387 44.1648C32.9412 44.1648 34.1163 44.6018 34.9549 45.4681C35.7863 46.3344 36.2097 47.4542 36.2097 48.8367V63.9486V63.9481ZM17.885 56.3922C17.885 59.4357 17.0056 61.5966 15.2396 62.8754C13.7774 63.9246 11.5635 64.449 8.60695 64.449C5.76181 64.449 3.70823 63.9803 2.43713 63.0588C0.815088 61.8194 0 59.5788 0 56.3215H6.95231C6.95231 57.3857 7.00077 58.1007 7.09631 58.4589C7.33586 59.3166 7.87201 59.7381 8.71065 59.7381C9.9093 59.7381 10.5007 59.0073 10.5007 57.5288C10.5007 56.3931 10.0053 55.5268 8.99821 54.9314C7.99111 54.4781 6.99261 54.0257 5.98552 53.5724C3.93193 52.4843 2.65359 51.6977 2.14959 51.2209C0.886642 50.0602 0.247697 48.4559 0.247697 46.4141C0.247697 40.8044 3.06838 38 8.71065 38C12.1793 38 14.5685 38.8101 15.8794 40.4236C16.8141 41.5914 17.2773 43.3869 17.2773 45.8104H10.541C10.685 43.7369 10.1253 42.704 8.85465 42.704C7.75155 42.704 7.20816 43.3633 7.20816 44.6661C7.20816 45.6673 7.63971 46.4698 8.4951 47.0897C8.80711 47.3279 9.5819 47.7092 10.8285 48.2335C12.9306 49.131 14.0654 49.6242 14.2329 49.6876C15.3994 50.331 16.2788 51.1022 16.8462 52.0079C17.5418 53.1042 17.885 54.5664 17.885 56.3935V56.3922Z" fill="white"/>
<path d="M116.843 71.4507H113.903V79.8249H111.569V71.4507H108.645V69.5678H116.844V71.4507H116.843ZM100.869 79.4282V77.1396C101.285 77.4892 101.74 77.7514 102.228 77.9262C102.715 78.101 103.21 78.1884 103.714 78.1884C104.002 78.1884 104.257 78.1562 104.473 78.1087C104.697 78.0534 104.872 77.9819 105.025 77.8868C105.169 77.7912 105.28 77.688 105.352 77.5612C105.424 77.434 105.456 77.2986 105.456 77.1478C105.456 76.949 105.4 76.7665 105.288 76.6152C105.169 76.4567 105.016 76.3132 104.816 76.1787C104.617 76.0438 104.377 75.9165 104.105 75.7897C103.833 75.6625 103.537 75.5357 103.218 75.4084C102.419 75.0747 101.812 74.6694 101.42 74.1845C101.021 73.7076 100.829 73.128 100.829 72.4442C100.829 71.9121 100.932 71.4512 101.148 71.0699C101.364 70.6809 101.66 70.363 102.027 70.1162C102.403 69.8699 102.835 69.6874 103.322 69.5678C103.809 69.4564 104.329 69.393 104.872 69.393C105.416 69.393 105.888 69.4252 106.302 69.4886C106.718 69.552 107.102 69.6552 107.454 69.7906V71.9275C107.278 71.8084 107.094 71.7047 106.886 71.6101C106.687 71.5227 106.471 71.4507 106.255 71.3873C106.039 71.3239 105.824 71.2841 105.615 71.2528C105.4 71.2284 105.2 71.2125 105.008 71.2125C104.745 71.2125 104.505 71.2365 104.289 71.2841C104.073 71.3393 103.889 71.4113 103.738 71.4987C103.594 71.5861 103.474 71.6975 103.393 71.8247C103.314 71.9515 103.274 72.0946 103.274 72.2459C103.274 72.4207 103.313 72.571 103.41 72.7064C103.497 72.85 103.625 72.9767 103.793 73.0954C103.961 73.2149 104.169 73.3336 104.408 73.4536C104.648 73.5722 104.919 73.6918 105.223 73.819C105.631 73.9856 106.007 74.1686 106.334 74.3592C106.662 74.5571 106.942 74.7722 107.174 75.0186C107.413 75.2568 107.589 75.5357 107.716 75.8531C107.844 76.1633 107.9 76.5288 107.9 76.9413C107.9 77.5137 107.796 77.9905 107.573 78.3795C107.357 78.7689 107.06 79.0872 106.686 79.3254C106.318 79.5632 105.879 79.738 105.383 79.8412C104.887 79.9531 104.36 80.0001 103.809 80.0001C103.241 80.0001 102.706 79.9531 102.194 79.8575C101.683 79.762 101.243 79.6193 100.868 79.4287L100.869 79.4282ZM96.2582 75.7653L95.1469 72.3251C95.0672 72.0629 95.0111 71.7527 94.9789 71.3954H94.9228C94.8911 71.6975 94.8354 71.9991 94.7389 72.293L93.62 75.7653H96.2577H96.2582ZM100.054 79.8249H97.5288L96.7934 77.5368H93.1255L92.3983 79.8249H89.8723L93.6363 69.5674H96.3854L100.053 79.8249H100.054ZM89.1854 79.4595C88.4346 79.8172 87.4515 79.9997 86.237 79.9997C84.6539 79.9997 83.4082 79.5387 82.5043 78.6172C81.5937 77.6875 81.1458 76.4563 81.1458 74.9149C81.1458 73.2783 81.6499 71.9429 82.6728 70.9268C83.6871 69.9016 85.0144 69.3926 86.6364 69.3926C87.6435 69.3926 88.4989 69.5198 89.1854 69.7739V71.9991C88.4985 71.5861 87.7074 71.3873 86.828 71.3873C85.8607 71.3873 85.0778 71.6894 84.4782 72.293C83.8868 72.8966 83.5916 73.7158 83.5916 74.7559C83.5916 75.7413 83.871 76.5355 84.4307 77.1238C84.9904 77.7115 85.7498 78.0054 86.6998 78.0054C87.6037 78.0054 88.4346 77.7831 89.1854 77.3461V79.4595ZM75.0811 71.3873C74.266 71.3873 73.618 71.6894 73.1389 72.293C72.6589 72.9047 72.4193 73.7076 72.4193 74.7088C72.4193 75.7259 72.6589 76.5283 73.1389 77.1238C73.618 77.7115 74.242 78.0054 75.0168 78.0054C75.8237 78.0054 76.455 77.7197 76.9264 77.1478C77.3982 76.5677 77.6296 75.7734 77.6296 74.7559C77.6296 73.6918 77.4064 72.8572 76.9504 72.269C76.4957 71.6816 75.8717 71.3873 75.0811 71.3873ZM74.9774 79.9997C73.4989 79.9997 72.2998 79.5229 71.3647 78.5697C70.4377 77.6088 69.975 76.3689 69.975 74.8275C69.975 73.2068 70.4459 71.8958 71.3896 70.8946C72.3324 69.8934 73.5872 69.3926 75.1449 69.3926C76.6153 69.3926 77.8067 69.8776 78.7173 70.8308C79.628 71.7917 80.0758 73.0555 80.0758 74.621C80.0758 76.2335 79.604 77.5368 78.6612 78.5221C77.7265 79.507 76.4957 79.9992 74.9774 79.9992V79.9997ZM68.2642 79.8249H65.9144L61.6628 73.3811C61.4156 72.9994 61.2394 72.7214 61.1438 72.5307H61.1194C61.1515 72.8884 61.1755 73.4445 61.1755 74.1835V79.8245H58.978V69.5669H61.4875L65.5789 75.8124C65.7627 76.0904 65.9384 76.3684 66.0978 76.6465H66.1223C66.082 76.4083 66.0661 75.9396 66.0661 75.24V69.5669H68.2637V79.8245L68.2642 79.8249ZM56.621 79.8249H54.2871V75.6453H50.0196V79.8249H47.6943V69.5674H50.0196V73.6592H54.2871V69.5674H56.621V79.8249ZM45.8957 79.4595C45.1449 79.8172 44.1618 79.9997 42.9473 79.9997C41.3565 79.9997 40.1184 79.5387 39.215 78.6172C38.3044 77.6875 37.8484 76.4563 37.8484 74.9149C37.8484 73.2783 38.3601 71.9429 39.3831 70.9268C40.3983 69.9016 41.7246 69.3926 43.3467 69.3926C44.3538 69.3926 45.2006 69.5198 45.8957 69.7739V71.9991C45.2006 71.5861 44.4176 71.3873 43.531 71.3873C42.5637 71.3873 41.7808 71.6894 41.1889 72.293C40.5975 72.8966 40.2941 73.7158 40.2941 74.7559C40.2941 75.7413 40.5821 76.5355 41.1414 77.1238C41.7006 77.7115 42.4605 78.0054 43.4028 78.0054C44.3144 78.0054 45.1449 77.7831 45.8961 77.3461V79.4595H45.8957ZM36.8418 79.8249H30.6565V69.5674H36.6104V71.4502H32.9823V73.7307H36.3545V75.5982H32.9823V77.9497H36.8418V79.8249ZM29.2741 71.4507H26.3257V79.8249H23.9999V71.4507H21.0674V69.5678H29.2745V71.4507H29.2741Z" fill="#44AAE0"/>
<path fill-rule="evenodd" clip-rule="evenodd" d="M61.6873 31.4315C58.6271 28.3722 56.7325 24.1618 56.7325 19.5058C56.7325 15.0725 58.4505 11.036 61.264 8.02512L56.2615 3.05078C52.1697 7.34136 49.6602 13.1331 49.6602 19.5053C49.6602 26.0999 52.345 32.0745 56.6931 36.405L61.6873 31.4315ZM86.1973 8.02512C89.0107 11.036 90.7283 15.0725 90.7283 19.5058C90.7283 24.1618 88.8346 28.3726 85.7734 31.4315L90.7686 36.405C95.1158 32.0745 97.8006 26.0999 97.8006 19.5053C97.8006 13.1331 95.292 7.34136 91.2002 3.05078L86.1977 8.02512H86.1973Z" fill="#44AAE0"/>
<path fill-rule="evenodd" clip-rule="evenodd" d="M59.2667 0.126795L59.4347 0H67.1935C69.5917 8.00877 88.3317 3.16212 88.3317 19.5057C88.3317 27.5222 81.7946 34.0217 73.7315 34.0217C65.6679 34.0217 59.1309 27.5222 59.1309 19.5057C59.1309 15.7314 60.5849 12.2912 62.9663 9.7087L68.4968 15.207C67.5214 16.3748 66.9381 17.8769 66.9381 19.5057C66.9381 23.2397 69.9834 26.2588 73.7315 26.2588C77.4791 26.2588 80.524 23.2397 80.524 19.5057C80.524 8.56485 61.0808 13.6415 59.2667 0.127248V0.126795Z" fill="#252523"/>
<path fill-rule="evenodd" clip-rule="evenodd" d="M69.0554 16.4537C66.6667 21.0939 70.1512 25.0589 73.6987 24.8755C77.2471 25.0584 80.7393 21.0939 78.3416 16.4537C75.9529 11.8059 73.955 5.8869 73.7078 4.73535C73.5638 6.20434 71.4536 11.8059 69.0554 16.4537Z" fill="#E12629"/>
<path fill-rule="evenodd" clip-rule="evenodd" d="M72.9604 7.41589C73.2376 7.50555 73.5337 7.55446 73.8407 7.55446C74.0889 7.55446 74.3298 7.52231 74.5589 7.46208L74.5173 7.34254C74.3008 7.39779 74.0744 7.42722 73.8407 7.42722C73.5473 7.42722 73.2656 7.38103 73.0016 7.2959L72.96 7.41544L72.9604 7.41589Z" fill="#F0821B"/>
<path fill-rule="evenodd" clip-rule="evenodd" d="M72.9346 7.49302C73.2199 7.5854 73.5246 7.63567 73.8416 7.63567C74.0992 7.63567 74.3488 7.60215 74.5865 7.53966L74.5471 7.42646C74.3216 7.48487 74.0857 7.51612 73.842 7.51612C73.5396 7.51612 73.2479 7.46766 72.9749 7.37891L72.9355 7.49302H72.9346Z" fill="#F0821B"/>
<path fill-rule="evenodd" clip-rule="evenodd" d="M72.9092 7.5664C73.2026 7.66195 73.5164 7.71403 73.842 7.71403C74.1087 7.71403 74.3673 7.67916 74.6136 7.61395L74.5742 7.50074C74.3406 7.56188 74.0951 7.59493 73.8425 7.59493C73.5305 7.59493 73.2302 7.54557 72.9486 7.4541L72.9096 7.56595L72.9092 7.5664Z" fill="#F0821B"/>
<path fill-rule="evenodd" clip-rule="evenodd" d="M72.8818 7.64212C73.1839 7.74039 73.5058 7.79337 73.8409 7.79337C74.1167 7.79337 74.3843 7.75714 74.6388 7.68922L74.5994 7.57692C74.3572 7.64077 74.1031 7.67472 73.8409 7.67472C73.5194 7.67472 73.2101 7.62401 72.9212 7.53027L72.8818 7.64212Z" fill="#F0821B"/>
<path fill-rule="evenodd" clip-rule="evenodd" d="M72.8525 7.72548C73.1636 7.82691 73.4956 7.8817 73.8411 7.8817C74.1273 7.8817 74.4044 7.84321 74.6679 7.77257L74.6258 7.65302C74.3754 7.71913 74.1128 7.75491 73.8411 7.75491C73.5105 7.75491 73.1931 7.70237 72.8951 7.60547L72.8525 7.72548Z" fill="#F07F1B"/>
<path fill-rule="evenodd" clip-rule="evenodd" d="M72.8276 7.79837C73.1473 7.90298 73.4887 7.96004 73.8433 7.96004C74.1385 7.96004 74.4247 7.92064 74.6964 7.84683L74.6561 7.73362C74.3966 7.80336 74.124 7.84093 73.8428 7.84093C73.5023 7.84093 73.1745 7.7866 72.8674 7.68652L72.8271 7.79882L72.8276 7.79837Z" fill="#F07F1B"/>
<path fill-rule="evenodd" clip-rule="evenodd" d="M72.7998 7.87403C73.1277 7.98135 73.4781 8.03931 73.8422 8.03931C74.1465 8.03931 74.4418 7.9981 74.7221 7.92157L74.6822 7.80881C74.4146 7.88082 74.1329 7.91977 73.8422 7.91977C73.4917 7.91977 73.1553 7.86406 72.8401 7.76172L72.7998 7.87403Z" fill="#F07F1B"/>
<path fill-rule="evenodd" clip-rule="evenodd" d="M72.771 7.95789C73.1079 8.06838 73.4683 8.1286 73.8428 8.1286C74.158 8.1286 74.4627 8.08604 74.7526 8.00589L74.71 7.88635C74.4338 7.96152 74.143 8.00136 73.8428 8.00136C73.4832 8.00136 73.1378 7.94385 72.814 7.83789L72.7705 7.95789H72.771Z" fill="#F07F1B"/>
<path fill-rule="evenodd" clip-rule="evenodd" d="M72.7441 8.03121C73.0897 8.14532 73.4592 8.20736 73.8427 8.20736C74.1674 8.20736 74.4812 8.16298 74.7792 8.08011L74.7366 7.96011C74.4518 8.038 74.152 8.07965 73.8427 8.07965C73.4736 8.07965 73.1191 8.02079 72.7872 7.91211L72.7441 8.03121Z" fill="#EF7D1C"/>
<path fill-rule="evenodd" clip-rule="evenodd" d="M72.7168 8.10651C73.0705 8.22289 73.449 8.28674 73.8425 8.28674C74.1763 8.28674 74.4991 8.24055 74.8061 8.15542L74.7659 8.04312C74.472 8.12418 74.1622 8.16765 73.8425 8.16765C73.4631 8.16765 73.0981 8.10697 72.7571 7.99512L72.7168 8.10651Z" fill="#EF7D1C"/>
<path fill-rule="evenodd" clip-rule="evenodd" d="M72.6885 8.18104C73.0507 8.30014 73.4388 8.3649 73.8423 8.3649C74.1855 8.3649 74.5179 8.3178 74.8331 8.2295L74.7923 8.11629C74.4903 8.20007 74.1715 8.24535 73.8423 8.24535C73.4538 8.24535 73.0797 8.18285 72.7302 8.06738L72.6885 8.18104Z" fill="#EF7D1C"/>
<path fill-rule="evenodd" clip-rule="evenodd" d="M72.6586 8.26317C73.0304 8.38679 73.4285 8.45381 73.8414 8.45381C74.1951 8.45381 74.5379 8.40445 74.8621 8.31298L74.8191 8.19343C74.508 8.28037 74.1802 8.32657 73.8414 8.32657C73.443 8.32657 73.0599 8.26272 72.7017 8.14453L72.6582 8.26271L72.6586 8.26317Z" fill="#EF7D1C"/>
<path fill-rule="evenodd" clip-rule="evenodd" d="M72.6318 8.33743C73.0122 8.46377 73.4193 8.53214 73.8427 8.53214C74.2059 8.53214 74.5573 8.48143 74.8906 8.38633L74.8498 8.27448C74.5297 8.3646 74.1918 8.41305 73.8427 8.41305C73.4338 8.41305 73.0407 8.34694 72.6731 8.22559L72.6318 8.33698V8.33743Z" fill="#EF7D1C"/>
<path fill-rule="evenodd" clip-rule="evenodd" d="M72.6035 8.41347C72.9925 8.54252 73.4091 8.61271 73.8425 8.61271C74.2151 8.61271 74.5756 8.56064 74.9175 8.46328L74.8763 8.35007C74.548 8.44336 74.2011 8.49271 73.8425 8.49271C73.424 8.49271 73.0215 8.42479 72.6452 8.2998L72.6035 8.41301V8.41347Z" fill="#EF7D1C"/>
<path fill-rule="evenodd" clip-rule="evenodd" d="M72.5766 8.48692C72.9747 8.6196 73.4003 8.6916 73.8432 8.6916C74.2254 8.6916 74.5954 8.63772 74.9454 8.53764L74.9042 8.42534C74.5668 8.52134 74.2109 8.57296 73.8428 8.57296C73.4144 8.57296 73.0023 8.50367 72.6174 8.37598L72.5762 8.48737L72.5766 8.48692Z" fill="#EF7D1C"/>
<path fill-rule="evenodd" clip-rule="evenodd" d="M72.5459 8.56838C72.9534 8.70468 73.3895 8.7785 73.8428 8.7785C74.2358 8.7785 74.6158 8.7228 74.9749 8.6191L74.9314 8.5C74.5854 8.59826 74.2205 8.65125 73.8428 8.65125C73.4045 8.65125 72.9833 8.58061 72.5898 8.4502L72.5459 8.56792V8.56838Z" fill="#EF7B1D"/>
<path fill-rule="evenodd" clip-rule="evenodd" d="M72.5176 8.644C72.9337 8.78302 73.3789 8.85865 73.8426 8.85865C74.2451 8.85865 74.6341 8.80113 75.0023 8.69472L74.9611 8.58241C74.606 8.68475 74.2306 8.73955 73.8426 8.73955C73.3942 8.73955 72.9627 8.66619 72.5597 8.53125L72.5176 8.644Z" fill="#EF7B1D"/>
<path fill-rule="evenodd" clip-rule="evenodd" d="M72.4897 8.71784C72.9145 8.86048 73.3695 8.93837 73.8428 8.93837C74.2548 8.93837 74.6533 8.8795 75.0301 8.76991L74.9884 8.6567C74.6244 8.76221 74.2404 8.81882 73.8423 8.81882C73.384 8.81882 72.943 8.74411 72.5314 8.60645L72.4893 8.71784H72.4897Z" fill="#ED781E"/>
<path fill-rule="evenodd" clip-rule="evenodd" d="M72.459 8.80036C72.8937 8.94662 73.3587 9.02632 73.8428 9.02632C74.2658 9.02632 74.6742 8.96518 75.0605 8.85198L75.017 8.73289C74.6443 8.84066 74.2504 8.89907 73.8428 8.89907C73.3741 8.89907 72.9236 8.82299 72.5034 8.68262L72.459 8.80036Z" fill="#ED781E"/>
<path fill-rule="evenodd" clip-rule="evenodd" d="M72.4292 8.87345C72.8725 9.02288 73.3475 9.10349 73.8416 9.10349C74.2745 9.10349 74.692 9.041 75.0868 8.92462L75.0429 8.80552C74.6616 8.91647 74.2586 8.97624 73.8411 8.97624C73.3629 8.97624 72.9033 8.89836 72.474 8.75391L72.4287 8.873L72.4292 8.87345Z" fill="#ED781E"/>
<path fill-rule="evenodd" clip-rule="evenodd" d="M72.4014 8.94786C72.8537 9.10091 73.3383 9.18378 73.8418 9.18378C74.2838 9.18378 74.7113 9.11947 75.1147 9.00038L75.0731 8.88808C74.6823 9.0031 74.2697 9.06513 73.8418 9.06513C73.3527 9.06513 72.8823 8.98499 72.4435 8.83691L72.4014 8.9474V8.94786Z" fill="#ED781E"/>
<path fill-rule="evenodd" clip-rule="evenodd" d="M72.373 9.0235C72.834 9.17928 73.3281 9.26396 73.8425 9.26396C74.2944 9.26396 74.7314 9.19829 75.1435 9.07648L75.1014 8.96373C74.7024 9.08101 74.2799 9.14441 73.8425 9.14441C73.343 9.14441 72.863 9.0629 72.4156 8.91211L72.373 9.0235Z" fill="#ED781E"/>
<path fill-rule="evenodd" clip-rule="evenodd" d="M72.3428 9.10445C72.8133 9.26385 73.3182 9.35079 73.8434 9.35079C74.3062 9.35079 74.7527 9.28286 75.1748 9.15698L75.1304 9.03834C74.7224 9.15879 74.2908 9.22354 73.8434 9.22354C73.3345 9.22354 72.845 9.13977 72.3885 8.98535L72.3428 9.10445Z" fill="#ED781E"/>
<path fill-rule="evenodd" clip-rule="evenodd" d="M72.3135 9.17925C72.793 9.34227 73.307 9.43103 73.8427 9.43103C74.3154 9.43103 74.7714 9.3613 75.2021 9.23224L75.1577 9.11359C74.7411 9.23722 74.2996 9.30378 73.8427 9.30378C73.3237 9.30378 72.8247 9.2182 72.3588 9.06152L72.3135 9.17925Z" fill="#EC771E"/>
<path fill-rule="evenodd" clip-rule="evenodd" d="M72.2842 9.25307C72.7728 9.41926 73.2967 9.50982 73.8419 9.50982C74.3246 9.50982 74.7901 9.43872 75.2298 9.3074L75.1877 9.1951C74.7616 9.32235 74.3097 9.39118 73.8419 9.39118C73.3116 9.39118 72.8018 9.30379 72.3267 9.14258L72.2842 9.25307Z" fill="#EC771E"/>
<path fill-rule="evenodd" clip-rule="evenodd" d="M72.2559 9.32767C72.7531 9.49703 73.287 9.58895 73.8426 9.58895C74.3348 9.58895 74.8103 9.51604 75.2586 9.38155L75.2165 9.2697C74.7817 9.40012 74.3208 9.47032 73.843 9.47032C73.3028 9.47032 72.7839 9.38065 72.2998 9.21582L72.2563 9.32812L72.2559 9.32767Z" fill="#EE741E"/>
<path fill-rule="evenodd" clip-rule="evenodd" d="M72.2246 9.40876C72.7318 9.58219 73.2761 9.67683 73.8426 9.67683C74.3457 9.67683 74.8316 9.60211 75.2894 9.46309L75.2445 9.34446C74.8008 9.47804 74.3298 9.55004 73.8426 9.55004C73.2919 9.55004 72.7635 9.45856 72.2703 9.29102L72.2246 9.40921V9.40876Z" fill="#EE741E"/>
<path fill-rule="evenodd" clip-rule="evenodd" d="M72.1943 9.48301C72.711 9.66007 73.2648 9.75652 73.8417 9.75652C74.3552 9.75652 74.8506 9.68 75.3171 9.53872L75.2745 9.42597C74.8208 9.56317 74.3398 9.63698 73.8417 9.63698C73.2802 9.63698 72.7409 9.54369 72.2378 9.37207L72.1943 9.48301Z" fill="#EE741E"/>
<path fill-rule="evenodd" clip-rule="evenodd" d="M72.165 9.55664C72.6903 9.73686 73.2545 9.83512 73.8419 9.83512C74.3649 9.83512 74.8693 9.75679 75.3453 9.61188L75.3027 9.49958C74.8408 9.6395 74.3504 9.71558 73.8423 9.71558C73.2704 9.71558 72.7216 9.62003 72.2094 9.44434L72.1655 9.55664H72.165Z" fill="#EE741E"/>
<path fill-rule="evenodd" clip-rule="evenodd" d="M72.1328 9.63818C72.6681 9.82203 73.2431 9.92256 73.8418 9.92256C74.3757 9.92256 74.891 9.8424 75.376 9.69388L75.3307 9.57478C74.8593 9.71832 74.3594 9.79531 73.8418 9.79531C73.2594 9.79531 72.7002 9.69795 72.1794 9.51953L72.1328 9.63818Z" fill="#EE731E"/>
<path fill-rule="evenodd" clip-rule="evenodd" d="M72.1055 9.71298C72.6498 9.9009 73.2348 10.0033 73.8434 10.0033C74.3877 10.0033 74.9126 9.92128 75.4066 9.76958L75.3613 9.65095C74.8813 9.79721 74.3719 9.876 73.8439 9.876C73.2511 9.876 72.6819 9.77684 72.1526 9.5957L72.1064 9.71298H72.1055Z" fill="#EE731E"/>
<path fill-rule="evenodd" clip-rule="evenodd" d="M72.0752 9.78756C72.6286 9.97865 73.2231 10.0828 73.8426 10.0828C74.3969 10.0828 74.9312 9.99903 75.4343 9.84416L75.3913 9.73186C74.9018 9.8822 74.3819 9.96325 73.8426 9.96325C73.2394 9.96325 72.6598 9.86137 72.1196 9.6748L72.0752 9.78711V9.78756Z" fill="#EE731E"/>
<path fill-rule="evenodd" clip-rule="evenodd" d="M72.0449 9.86132C72.6073 10.0556 73.2119 10.1616 73.8422 10.1616C74.4064 10.1616 74.9507 10.0764 75.4629 9.91884L75.4194 9.80563C74.9209 9.95914 74.391 10.042 73.8422 10.042C73.2282 10.042 72.639 9.93876 72.0898 9.74902L72.0449 9.86132Z" fill="#EE731E"/>
<path fill-rule="evenodd" clip-rule="evenodd" d="M72.0137 9.94105C72.5865 10.1403 73.2019 10.249 73.8426 10.249C74.4182 10.249 74.9729 10.1616 75.4946 9.99947L75.4488 9.88128C74.9412 10.038 74.4019 10.1217 73.8426 10.1217C73.2177 10.1217 72.6187 10.0167 72.0608 9.82422L72.0141 9.94105H72.0137Z" fill="#ED7021"/>
<path fill-rule="evenodd" clip-rule="evenodd" d="M71.9838 10.0166C72.5657 10.219 73.1911 10.3295 73.8423 10.3295C74.4278 10.3295 74.992 10.2403 75.5232 10.0746L75.4774 9.9564C74.9607 10.1163 74.4119 10.2018 73.8423 10.2018C73.2078 10.2018 72.5988 10.0945 72.0309 9.89844L71.9834 10.0171L71.9838 10.0166Z" fill="#ED7021"/>
<path fill-rule="evenodd" clip-rule="evenodd" d="M71.9531 10.0908C72.5441 10.2964 73.1799 10.4083 73.8423 10.4083C74.4378 10.4083 75.012 10.3177 75.5518 10.1492L75.5078 10.036C74.9817 10.2 74.4224 10.2887 73.8423 10.2887C73.1962 10.2887 72.5758 10.1791 71.9984 9.97852L71.9531 10.0908Z" fill="#ED7021"/>
<path fill-rule="evenodd" clip-rule="evenodd" d="M71.9238 10.1632C72.5243 10.3729 73.1696 10.487 73.8425 10.487C74.4484 10.487 75.0321 10.3946 75.5809 10.223L75.5374 10.1112C75.0022 10.2782 74.433 10.3679 73.8425 10.3679C73.1854 10.3679 72.5551 10.2565 71.9682 10.0527L71.9238 10.1628V10.1632Z" fill="#ED7021"/>
<path fill-rule="evenodd" clip-rule="evenodd" d="M71.8916 10.2451C72.502 10.4589 73.1586 10.5753 73.8428 10.5753C74.4591 10.5753 75.0537 10.4802 75.612 10.3045L75.5663 10.1867C75.022 10.357 74.4433 10.4485 73.8428 10.4485C73.1758 10.4485 72.5351 10.3348 71.9396 10.127L71.8916 10.2451Z" fill="#ED7021"/>
<path fill-rule="evenodd" clip-rule="evenodd" d="M71.8613 10.3184C72.4813 10.5353 73.1478 10.6535 73.8425 10.6535C74.4696 10.6535 75.0737 10.5571 75.6411 10.3782L75.5976 10.2659C75.0434 10.4402 74.4538 10.5349 73.8425 10.5349C73.1641 10.5349 72.5125 10.419 71.9066 10.207L71.8613 10.3184Z" fill="#EB7022"/>
<path fill-rule="evenodd" clip-rule="evenodd" d="M71.832 10.3923C72.461 10.6132 73.1375 10.7337 73.843 10.7337C74.4806 10.7337 75.0947 10.635 75.6716 10.4529L75.6277 10.3411C75.0648 10.5182 74.4652 10.6146 73.843 10.6146C73.1538 10.6146 72.4923 10.4973 71.8773 10.2822L71.8325 10.3927L71.832 10.3923Z" fill="#EB7022"/>
<path fill-rule="evenodd" clip-rule="evenodd" d="M71.7983 10.4732C72.4373 10.6983 73.1256 10.8214 73.8419 10.8214C74.4904 10.8214 75.1153 10.7205 75.7017 10.5339L75.6555 10.4162C75.0831 10.5968 74.4741 10.6946 73.8415 10.6946C73.1418 10.6946 72.4703 10.5746 71.8459 10.3555L71.7979 10.4737L71.7983 10.4732Z" fill="#ED6F23"/>
<path fill-rule="evenodd" clip-rule="evenodd" d="M71.7676 10.5474C72.416 10.7756 73.1143 10.9006 73.842 10.9006C74.5008 10.9006 75.1357 10.7983 75.7316 10.6086L75.6846 10.4899C75.1031 10.6742 74.4841 10.7738 73.842 10.7738C73.1315 10.7738 72.45 10.652 71.816 10.4297L71.7676 10.5479V10.5474Z" fill="#ED6F23"/>
<path fill-rule="evenodd" clip-rule="evenodd" d="M71.7383 10.6193C72.3962 10.8521 73.1045 10.9789 73.8421 10.9789C74.5119 10.9789 75.1562 10.8743 75.7612 10.6814L75.7168 10.57C75.1255 10.7579 74.496 10.8603 73.8421 10.8603C73.1199 10.8603 72.4275 10.7366 71.7836 10.5098L71.7383 10.6193Z" fill="#ED6C23"/>
<path fill-rule="evenodd" clip-rule="evenodd" d="M71.7075 10.6949C72.3749 10.9308 73.0936 11.0598 73.8426 11.0598C74.5218 11.0598 75.1762 10.9534 75.7906 10.7569L75.7463 10.6451C75.1463 10.8366 74.5069 10.9403 73.8426 10.9403C73.1099 10.9403 72.4067 10.814 71.7532 10.583L71.707 10.6949H71.7075Z" fill="#ED6C23"/>
<path fill-rule="evenodd" clip-rule="evenodd" d="M71.6738 10.7754C72.3513 11.0159 73.0812 11.1467 73.8424 11.1467C74.5335 11.1467 75.1987 11.0381 75.8227 10.8375L75.7756 10.7202C75.1661 10.9144 74.5167 11.0195 73.8424 11.0195C73.0984 11.0195 72.3852 10.8918 71.7227 10.6572L71.6743 10.775L71.6738 10.7754Z" fill="#ED6C23"/>
<path fill-rule="evenodd" clip-rule="evenodd" d="M71.6436 10.8474C72.331 11.0919 73.0709 11.2255 73.8425 11.2255C74.5439 11.2255 75.2196 11.115 75.8522 10.9112L75.8051 10.7935C75.186 10.9914 74.5272 11.0987 73.8425 11.0987C73.0881 11.0987 72.364 10.9692 71.6916 10.7314L71.6436 10.8474Z" fill="#ED6C23"/>
<path fill-rule="evenodd" clip-rule="evenodd" d="M71.6133 10.9224C72.3097 11.1701 73.0601 11.3055 73.8426 11.3055C74.554 11.3055 75.2396 11.1927 75.8821 10.9853L75.8377 10.8739C75.2092 11.0764 74.5386 11.1864 73.8426 11.1864C73.0768 11.1864 72.3419 11.0537 71.6595 10.8105L71.6133 10.9219V10.9224Z" fill="#EC6924"/>
<path fill-rule="evenodd" clip-rule="evenodd" d="M71.582 10.9971C72.288 11.2484 73.0487 11.3851 73.8426 11.3851C74.5648 11.3851 75.2604 11.271 75.9124 11.0605L75.8676 10.9486C75.23 11.1542 74.5494 11.2656 73.8426 11.2656C73.066 11.2656 72.3206 11.1311 71.6287 10.8848L71.582 10.9966V10.9971Z" fill="#EC6924"/>
<path fill-rule="evenodd" clip-rule="evenodd" d="M71.5498 11.0759C72.2662 11.3322 73.0382 11.4726 73.8429 11.4726C74.577 11.4726 75.2834 11.3562 75.945 11.1411L75.8974 11.0234C75.2499 11.2321 74.5598 11.3458 73.8429 11.3458C73.055 11.3458 72.2992 11.2095 71.5982 10.96L71.5498 11.0759Z" fill="#EC6924"/>
<path fill-rule="evenodd" clip-rule="evenodd" d="M71.518 11.1499C72.2439 11.4099 73.0264 11.5516 73.8424 11.5516C74.5864 11.5516 75.3033 11.433 75.9739 11.2142L75.9291 11.1028C75.272 11.3161 74.5706 11.432 73.842 11.432C73.0427 11.432 72.2761 11.293 71.5642 11.0381L71.5176 11.1495L71.518 11.1499Z" fill="#EC6924"/>
<path fill-rule="evenodd" clip-rule="evenodd" d="M71.4863 11.2238C72.2217 11.4869 73.0146 11.6309 73.842 11.6309C74.5968 11.6309 75.3232 11.5104 76.0038 11.289L75.9589 11.178C75.2928 11.3945 74.5814 11.5122 73.8424 11.5122C73.0319 11.5122 72.2543 11.3714 71.5334 11.1133L71.4868 11.2242L71.4863 11.2238Z" fill="#EC6924"/>
<path fill-rule="evenodd" clip-rule="evenodd" d="M71.4531 11.3035C72.1989 11.572 73.0036 11.7192 73.8423 11.7192C74.6089 11.7192 75.3461 11.5965 76.0367 11.3705L75.9887 11.2532C75.3126 11.4733 74.5913 11.5929 73.8423 11.5929C73.0204 11.5929 72.2325 11.4498 71.502 11.1885L71.4536 11.3044L71.4531 11.3035Z" fill="#EC6924"/>
<path fill-rule="evenodd" clip-rule="evenodd" d="M71.4219 11.3771C72.1772 11.6493 72.9923 11.7978 73.8422 11.7978C74.6188 11.7978 75.3665 11.6728 76.0661 11.4432L76.0186 11.326C75.3334 11.5497 74.6021 11.671 73.8422 11.671C73.0095 11.671 72.2112 11.5261 71.4712 11.2607L71.4219 11.3771Z" fill="#EC6824"/>
<path fill-rule="evenodd" clip-rule="evenodd" d="M71.3896 11.4508C72.1545 11.7261 72.9804 11.8769 73.8417 11.8769C74.6297 11.8769 75.3872 11.7501 76.0964 11.5174L76.0511 11.4064C75.356 11.6342 74.6138 11.7578 73.8417 11.7578C72.9972 11.7578 72.188 11.6102 71.4367 11.3398L71.3896 11.4512V11.4508Z" fill="#EC6824"/>
<path fill-rule="evenodd" clip-rule="evenodd" d="M71.3588 11.5246C72.1332 11.8045 72.9691 11.9575 73.8413 11.9575C74.6396 11.9575 75.4076 11.8289 76.1262 11.5925L76.0805 11.4812C75.3759 11.7125 74.6233 11.8384 73.8408 11.8384C72.9854 11.8384 72.1653 11.689 71.405 11.415L71.3584 11.5251L71.3588 11.5246Z" fill="#EC6524"/>
<path fill-rule="evenodd" clip-rule="evenodd" d="M71.3262 11.6047C72.1114 11.889 72.9591 12.0448 73.8425 12.0448C74.6522 12.0448 75.4315 11.9135 76.1606 11.6721L76.1126 11.5548C75.3985 11.7899 74.6355 11.9176 73.8425 11.9176C72.9758 11.9176 72.1449 11.7659 71.3755 11.4883L71.3262 11.6047Z" fill="#EC6524"/>
<path fill-rule="evenodd" clip-rule="evenodd" d="M71.2934 11.6797C72.0881 11.9677 72.9467 12.1248 73.842 12.1248C74.6629 12.1248 75.4527 11.9922 76.1908 11.7472L76.1423 11.6299C75.4192 11.8681 74.6457 11.9971 73.842 11.9971C72.9644 11.9971 72.123 11.8432 71.3437 11.5615L71.293 11.6797H71.2934Z" fill="#EC6524"/>
<path fill-rule="evenodd" clip-rule="evenodd" d="M71.2627 11.7507C72.0674 12.0432 72.9359 12.203 73.8425 12.203C74.6739 12.203 75.4736 12.0681 76.2216 11.8199L76.1754 11.7085C75.4419 11.9517 74.6576 12.0835 73.8425 12.0835C72.9526 12.0835 72.1 11.9273 71.3098 11.6406L71.2627 11.7502V11.7507Z" fill="#EC6524"/>
<path fill-rule="evenodd" clip-rule="evenodd" d="M71.2309 11.825C72.0451 12.1211 72.9249 12.2828 73.8424 12.2828C74.6842 12.2828 75.4943 12.146 76.2515 11.8942L76.2062 11.7837C75.4631 12.0301 74.6688 12.1637 73.8424 12.1637C72.9408 12.1637 72.0773 12.0052 71.2776 11.7158L71.2305 11.825H71.2309Z" fill="#EC6524"/>
<path fill-rule="evenodd" clip-rule="evenodd" d="M71.1953 11.9044C72.0204 12.2051 72.9115 12.369 73.8417 12.369C74.6957 12.369 75.5171 12.23 76.2842 11.9737L76.2358 11.8568C75.4836 12.1068 74.6785 12.2422 73.8417 12.2422C72.9297 12.2422 72.0557 12.0814 71.246 11.7871L71.1953 11.9044Z" fill="#EC6524"/>
<path fill-rule="evenodd" clip-rule="evenodd" d="M71.1645 11.9774C71.9991 12.2826 72.9011 12.4497 73.8416 12.4497C74.7066 12.4497 75.5384 12.3084 76.315 12.0485L76.2688 11.938C75.5063 12.1929 74.6898 12.331 73.8416 12.331C72.9174 12.331 72.0312 12.168 71.2112 11.8691L71.1641 11.9783L71.1645 11.9774Z" fill="#EC6524"/>
<path fill-rule="evenodd" clip-rule="evenodd" d="M71.1323 12.051C71.9764 12.3598 72.8893 12.5287 73.8416 12.5287C74.7169 12.5287 75.5596 12.3856 76.3462 12.1216L76.3 12.0111C75.5279 12.2693 74.7011 12.4092 73.8411 12.4092C72.9056 12.4092 72.009 12.2439 71.1794 11.9414L71.1318 12.051H71.1323Z" fill="#EC6524"/>
<path fill-rule="evenodd" clip-rule="evenodd" d="M71.0981 12.131C71.9531 12.4443 72.8773 12.6159 73.8418 12.6159C74.7294 12.6159 75.583 12.4706 76.3804 12.202L76.3315 12.0852C75.5499 12.347 74.7126 12.4887 73.8418 12.4887C72.8954 12.4887 71.9884 12.3207 71.1488 12.0137L71.0977 12.131H71.0981Z" fill="#EC6524"/>
<path fill-rule="evenodd" clip-rule="evenodd" d="M71.0664 12.2043C71.9313 12.5222 72.866 12.6966 73.8418 12.6966C74.7407 12.6966 75.6047 12.549 76.4112 12.2768L76.3623 12.16C75.5707 12.4258 74.723 12.5693 73.8423 12.5693C72.8841 12.5693 71.9662 12.4 71.1171 12.0889L71.0669 12.2039L71.0664 12.2043Z" fill="#EB6325"/>
<path fill-rule="evenodd" clip-rule="evenodd" d="M71.0352 12.2767C71.9096 12.5986 72.8555 12.7743 73.8427 12.7743C74.752 12.7743 75.6264 12.6244 76.4429 12.3486L76.3967 12.2391C75.5952 12.509 74.7361 12.6557 73.8427 12.6557C72.8723 12.6557 71.9426 12.4831 71.0827 12.168L71.0352 12.2771V12.2767Z" fill="#EB6325"/>
<path fill-rule="evenodd" clip-rule="evenodd" d="M71.0029 12.3512C71.8873 12.6768 72.8441 12.8547 73.8431 12.8547C74.7637 12.8547 75.6485 12.703 76.4745 12.4236L76.4278 12.3127C75.6168 12.5862 74.7474 12.7352 73.8435 12.7352C72.8623 12.7352 71.9217 12.5599 71.0518 12.2402L71.0034 12.3512H71.0029Z" fill="#E96325"/>
<path fill-rule="evenodd" clip-rule="evenodd" d="M70.9678 12.4305C71.863 12.7615 72.8316 12.9431 73.8423 12.9431C74.7752 12.9431 75.6713 12.7886 76.5073 12.5043L76.4579 12.3879C75.6369 12.6655 74.7571 12.8163 73.8423 12.8163C72.8493 12.8163 71.8979 12.6392 71.0181 12.3154L70.9678 12.4305Z" fill="#E96325"/>
<path fill-rule="evenodd" clip-rule="evenodd" d="M70.9355 12.5017C71.8408 12.8368 72.8202 13.0202 73.8427 13.0202C74.786 13.0202 75.693 12.8635 76.5389 12.5751L76.49 12.4596C75.6595 12.7404 74.7692 12.893 73.8432 12.893C72.8383 12.893 71.8761 12.7141 70.9867 12.3867L70.936 12.5017H70.9355Z" fill="#E96124"/>
<path fill-rule="evenodd" clip-rule="evenodd" d="M70.9033 12.5773C71.818 12.916 72.8084 13.1012 73.8426 13.1012C74.7972 13.1012 75.7151 12.9427 76.5705 12.6511L76.5234 12.5411C75.6825 12.8268 74.7809 12.9826 73.8426 12.9826C72.826 12.9826 71.8525 12.8001 70.9522 12.4668L70.9038 12.5773H70.9033Z" fill="#E96124"/>
<path fill-rule="evenodd" clip-rule="evenodd" d="M70.8711 12.6492C71.7962 12.9929 72.797 13.1808 73.8421 13.1808C74.808 13.1808 75.7363 13.02 76.6017 12.7248L76.5541 12.6139C75.7037 12.9037 74.7912 13.0612 73.8421 13.0612C72.8137 13.0612 71.8288 12.8769 70.9191 12.54L70.8711 12.6492Z" fill="#E96124"/>
<path fill-rule="evenodd" clip-rule="evenodd" d="M70.8354 12.7288C71.7714 13.0771 72.7844 13.2681 73.8418 13.2681C74.8203 13.2681 75.7595 13.1047 76.6353 12.8049L76.5855 12.6885C75.7251 12.982 74.8022 13.1413 73.8418 13.1413C72.8016 13.1413 71.8058 12.9548 70.8861 12.6143L70.835 12.7293L70.8354 12.7288Z" fill="#E96124"/>
<path fill-rule="evenodd" clip-rule="evenodd" d="M70.8022 12.8029C71.7477 13.1547 72.772 13.3481 73.8416 13.3481C74.831 13.3481 75.7811 13.1828 76.6668 12.8785L76.6193 12.768C75.7485 13.0664 74.8143 13.2285 73.8416 13.2285C72.7897 13.2285 71.7821 13.0383 70.8511 12.6924L70.8018 12.8029H70.8022Z" fill="#EB5F23"/>
<path fill-rule="evenodd" clip-rule="evenodd" d="M70.771 12.8738C71.7269 13.2306 72.7616 13.4262 73.8425 13.4262C74.8428 13.4262 75.8037 13.2587 76.699 12.9508L76.6514 12.8403C75.7707 13.1428 74.8261 13.3071 73.8425 13.3071C72.7784 13.3071 71.7599 13.1151 70.819 12.7646L70.7705 12.8733L70.771 12.8738Z" fill="#EB5F23"/>
<path fill-rule="evenodd" clip-rule="evenodd" d="M70.7383 12.9481C71.7042 13.3085 72.7507 13.5064 73.8433 13.5064C74.8554 13.5064 75.8267 13.3366 76.7319 13.0255L76.6844 12.9155C75.7941 13.2216 74.8387 13.3878 73.8433 13.3878C72.7674 13.3878 71.7377 13.194 70.7872 12.8398L70.7387 12.9481H70.7383Z" fill="#EB5F23"/>
<path fill-rule="evenodd" clip-rule="evenodd" d="M70.7021 13.0265C71.6789 13.392 72.7372 13.5926 73.8425 13.5926C74.8664 13.5926 75.8499 13.42 76.7656 13.1035L76.7153 12.9876C75.8151 13.2969 74.8487 13.4658 73.843 13.4658C72.7562 13.4658 71.7156 13.2688 70.7547 12.9102L70.7026 13.027L70.7021 13.0265Z" fill="#EB5F23"/>
<path fill-rule="evenodd" clip-rule="evenodd" d="M70.6689 13.0989C71.6557 13.4693 72.7252 13.6731 73.8419 13.6731C74.8775 13.6731 75.8711 13.4983 76.7966 13.1777L76.7487 13.0672C75.838 13.3819 74.8599 13.5536 73.8419 13.5536C72.7425 13.5536 71.6896 13.3539 70.7179 12.9902L70.6689 13.0989Z" fill="#EA5C24"/>
<path fill-rule="evenodd" clip-rule="evenodd" d="M70.6357 13.1737C71.6324 13.5482 72.7129 13.7537 73.8418 13.7537C74.8887 13.7537 75.8936 13.5771 76.8291 13.2529L76.7811 13.1424C75.8605 13.4607 74.8715 13.6346 73.8418 13.6346C72.7301 13.6346 71.6664 13.4331 70.6851 13.0654L70.6362 13.1741L70.6357 13.1737Z" fill="#EA5C24"/>
<path fill-rule="evenodd" clip-rule="evenodd" d="M70.6001 13.2526C71.6081 13.632 72.7003 13.8399 73.8419 13.8399C74.9011 13.8399 75.9177 13.6601 76.8641 13.3305L76.8134 13.2145C75.8828 13.537 74.8829 13.7126 73.8419 13.7126C72.7189 13.7126 71.6443 13.508 70.6526 13.1357L70.5996 13.2521L70.6001 13.2526Z" fill="#EA5C24"/>
<path fill-rule="evenodd" clip-rule="evenodd" d="M70.5674 13.3259C71.5853 13.7099 72.6889 13.9205 73.8427 13.9205C74.9136 13.9205 75.9411 13.7384 76.897 13.4047L76.8459 13.2878C75.9054 13.6143 74.8946 13.7928 73.8427 13.7928C72.7079 13.7928 71.622 13.5863 70.6204 13.21L70.5674 13.3263V13.3259Z" fill="#EA5C24"/>
<path fill-rule="evenodd" clip-rule="evenodd" d="M70.5342 13.3977C71.5626 13.7858 72.6774 13.9991 73.8425 13.9991C74.9244 13.9991 75.9627 13.8153 76.929 13.4779L76.8806 13.3674C75.9297 13.6989 74.9076 13.8796 73.843 13.8796C72.6951 13.8796 71.597 13.6703 70.584 13.2891L70.5346 13.3977H70.5342Z" fill="#EA5A25"/>
<path fill-rule="evenodd" clip-rule="evenodd" d="M70.5 13.4714C71.5383 13.8635 72.6645 14.0791 73.8419 14.0791C74.935 14.0791 75.9847 13.8929 76.9606 13.5515L76.9121 13.4415C75.9512 13.777 74.9183 13.96 73.8419 13.96C72.6827 13.96 71.5737 13.7476 70.5503 13.3613L70.5 13.4714Z" fill="#EA5A25"/>
<path fill-rule="evenodd" clip-rule="evenodd" d="M70.4648 13.55C71.5141 13.9471 72.6525 14.1654 73.8429 14.1654C74.9492 14.1654 76.0107 13.9765 76.9974 13.6301L76.9453 13.5133C75.974 13.8529 74.9302 14.0381 73.8429 14.0381C72.6715 14.0381 71.5512 13.8239 70.5178 13.4336L70.4648 13.55Z" fill="#EA5A25"/>
<path fill-rule="evenodd" clip-rule="evenodd" d="M70.4316 13.6224C71.4913 14.025 72.641 14.246 73.8428 14.246C74.9609 14.246 76.0332 14.0544 77.0294 13.7044L76.9805 13.5943C75.9983 13.939 74.9427 14.1269 73.8424 14.1269C72.6582 14.1269 71.5252 13.91 70.481 13.5146L70.4316 13.6229V13.6224Z" fill="#EA5A25"/>
<path fill-rule="evenodd" clip-rule="evenodd" d="M70.3975 13.6954C71.467 14.1016 72.6281 14.3249 73.8417 14.3249C74.9706 14.3249 76.0538 14.1315 77.0613 13.7765L77.0124 13.6665C76.0207 14.0152 74.9538 14.2053 73.8417 14.2053C72.6462 14.2053 71.5024 13.9853 70.4482 13.585L70.3975 13.695V13.6954Z" fill="#EA5A25"/>
<path fill-rule="evenodd" clip-rule="evenodd" d="M70.3643 13.7692C71.4443 14.1795 72.6166 14.4045 73.8425 14.4045C74.9831 14.4045 76.0781 14.2089 77.0951 13.8503L77.0458 13.7398C76.0437 14.093 74.9659 14.2854 73.8429 14.2854C72.6352 14.2854 71.48 14.0631 70.4154 13.6592L70.3647 13.7692H70.3643Z" fill="#EA5825"/>
<path fill-rule="evenodd" clip-rule="evenodd" d="M70.3276 13.8456C71.4189 14.2622 72.6035 14.4908 73.8416 14.4908C74.9954 14.4908 76.1016 14.2921 77.1296 13.9284L77.0775 13.813C76.0654 14.1693 74.9759 14.364 73.8416 14.364C72.6216 14.364 71.4551 14.1399 70.3801 13.7314L70.3271 13.8456H70.3276Z" fill="#EA5825"/>
<path fill-rule="evenodd" clip-rule="evenodd" d="M70.2944 13.9192C71.3957 14.3394 72.5916 14.5708 73.8423 14.5708C75.0075 14.5708 76.125 14.3697 77.1629 14.0016L77.1136 13.8924C76.0906 14.2543 74.9898 14.4521 73.8423 14.4521C72.6102 14.4521 71.4315 14.2244 70.3451 13.8096L70.2939 13.9192H70.2944Z" fill="#EA5825"/>
<path fill-rule="evenodd" clip-rule="evenodd" d="M70.2607 13.9934C71.3724 14.4181 72.5801 14.6513 73.8431 14.6513C75.0195 14.6513 76.1489 14.448 77.1972 14.0762L77.1469 13.9658C76.114 14.3321 75.0019 14.5322 73.8431 14.5322C72.5983 14.5322 71.4082 14.3022 70.3119 13.8838L70.2607 13.9938V13.9934Z" fill="#EA5825"/>
<path fill-rule="evenodd" clip-rule="evenodd" d="M70.2246 14.0702C71.3476 14.5013 72.5675 14.7381 73.8432 14.7381C75.0328 14.7381 76.1739 14.5321 77.2331 14.1544L77.1805 14.0389C76.1372 14.4089 75.0137 14.6109 73.8432 14.6109C72.5861 14.6109 71.3843 14.3785 70.2776 13.9561L70.2246 14.0702Z" fill="#E95626"/>
<path fill-rule="evenodd" clip-rule="evenodd" d="M70.1889 14.1438C71.3224 14.579 72.5536 14.8181 73.8419 14.8181C75.0428 14.8181 76.1953 14.6098 77.2644 14.2276L77.2119 14.1126C76.1586 14.4866 75.0243 14.6913 73.8415 14.6913C72.5726 14.6913 71.3595 14.4562 70.2428 14.0283L70.1885 14.1442L70.1889 14.1438Z" fill="#E95626"/>
<path fill-rule="evenodd" clip-rule="evenodd" d="M70.1553 14.216C71.2987 14.6553 72.5417 14.8966 73.8422 14.8966C75.0554 14.8966 76.2187 14.6861 77.2987 14.3003L77.2484 14.1898C76.1843 14.5697 75.0372 14.7775 73.8422 14.7775C72.5607 14.7775 71.3349 14.5394 70.2064 14.1064L70.1553 14.216Z" fill="#E95627"/>
<path fill-rule="evenodd" clip-rule="evenodd" d="M70.1211 14.2879C71.2749 14.7326 72.5297 14.9767 73.8416 14.9767C75.0669 14.9767 76.242 14.7638 77.3315 14.3735L77.2813 14.2635C76.2067 14.6475 75.0488 14.8571 73.8416 14.8571C72.5474 14.8571 71.3102 14.6171 70.1718 14.1797L70.1211 14.2879Z" fill="#E95627"/>
<path fill-rule="evenodd" clip-rule="evenodd" d="M70.085 14.3665C71.2505 14.8161 72.5176 15.0634 73.8426 15.0634C75.0801 15.0634 76.2675 14.8474 77.3688 14.4511L77.3158 14.3361C76.2308 14.7242 75.0616 14.9361 73.8426 14.9361C72.537 14.9361 71.2881 14.6929 70.1393 14.251L70.085 14.3665Z" fill="#E95327"/>
<path fill-rule="evenodd" clip-rule="evenodd" d="M70.0493 14.4391C71.2248 14.8929 72.5036 15.1424 73.8413 15.1424C75.0916 15.1424 76.2902 14.9241 77.4015 14.5243L77.3503 14.4138C76.2544 14.8077 75.0725 15.0228 73.8408 15.0228C72.5217 15.0228 71.2606 14.777 70.1005 14.3291L70.0488 14.4391H70.0493Z" fill="#E95327"/>
<path fill-rule="evenodd" clip-rule="evenodd" d="M70.0161 14.5106C71.2025 14.9698 72.4931 15.2225 73.8425 15.2225C75.1045 15.2225 76.314 15.0015 77.4357 14.5976L77.3855 14.4884C76.2792 14.8865 75.0864 15.1034 73.8425 15.1034C72.5107 15.1034 71.2374 14.8552 70.0668 14.4033L70.0156 14.5106H70.0161Z" fill="#E95326"/>
<path fill-rule="evenodd" clip-rule="evenodd" d="M69.9814 14.5846C71.1787 15.0478 72.4806 15.3023 73.8432 15.3023C75.117 15.3023 76.3383 15.0791 77.4704 14.6702L77.4197 14.5606C76.3034 14.9631 75.0994 15.1823 73.8432 15.1823C72.4997 15.1823 71.2154 14.931 70.0344 14.4736L69.9819 14.5837L69.9814 14.5846Z" fill="#E95327"/>
<path fill-rule="evenodd" clip-rule="evenodd" d="M69.9438 14.6633C71.152 15.132 72.467 15.3897 73.8427 15.3897C75.1296 15.3897 76.3636 15.1637 77.5065 14.7498L77.4527 14.6348C76.326 15.041 75.1102 15.2629 73.8422 15.2629C72.486 15.2629 71.19 15.0093 69.9986 14.5479L69.9434 14.6633H69.9438Z" fill="#E95326"/>
<path fill-rule="evenodd" clip-rule="evenodd" d="M69.9096 14.7338C71.1287 15.2083 72.455 15.4687 73.8425 15.4687C75.1421 15.4687 76.3874 15.2405 77.5408 14.8216L77.4896 14.7125C76.3516 15.1246 75.1235 15.3491 73.8425 15.3491C72.4731 15.3491 71.164 15.0924 69.9608 14.626L69.9092 14.7338H69.9096Z" fill="#E95326"/>
<path fill-rule="evenodd" clip-rule="evenodd" d="M69.874 14.8074C71.103 15.286 72.4416 15.5491 73.8417 15.5491C75.1527 15.5491 76.4097 15.3182 77.574 14.8952L77.5228 14.7861C76.3744 15.2027 75.135 15.43 73.8417 15.43C72.4606 15.43 71.1401 15.1705 69.9265 14.6982L69.874 14.8074Z" fill="#E95326"/>
<path fill-rule="evenodd" clip-rule="evenodd" d="M69.8359 14.8865C71.0767 15.3706 72.4279 15.6364 73.8417 15.6364C75.1662 15.6364 76.4359 15.4023 77.6115 14.9739L77.5576 14.8598C76.3988 15.2805 75.1472 15.5096 73.8417 15.5096C72.4479 15.5096 71.1156 15.2479 69.8916 14.7715L69.8364 14.887L69.8359 14.8865Z" fill="#E95326"/>
<path fill-rule="evenodd" clip-rule="evenodd" d="M69.8027 14.9564C71.0539 15.4459 72.4169 15.7149 73.8424 15.7149C75.1796 15.7149 76.4607 15.4785 77.6467 15.0452L77.5923 14.9306C76.4227 15.3558 75.1597 15.5877 73.8424 15.5877C72.4359 15.5877 71.0915 15.3237 69.8575 14.8428L69.8027 14.9564Z" fill="#E95026"/>
<path fill-rule="evenodd" clip-rule="evenodd" d="M69.7661 15.0291C71.0281 15.5231 72.4029 15.7943 73.8415 15.7943C75.1901 15.7943 76.4829 15.5552 77.6798 15.1174L77.6281 15.0091C76.4476 15.4402 75.1724 15.6757 73.8415 15.6757C72.4219 15.6757 71.0652 15.4076 69.8186 14.9199L69.7656 15.0291H69.7661Z" fill="#E95026"/>
<path fill-rule="evenodd" clip-rule="evenodd" d="M69.7309 15.1023C71.0034 15.6004 72.3899 15.8744 73.8417 15.8744C75.2029 15.8744 76.5075 15.633 77.7143 15.191L77.6623 15.0824C76.4713 15.5175 75.1844 15.7548 73.8413 15.7548C72.409 15.7548 71.0401 15.4849 69.7835 14.9932L69.7305 15.1023H69.7309Z" fill="#E95026"/>
<path fill-rule="evenodd" clip-rule="evenodd" d="M69.6943 15.1801C70.9786 15.685 72.3783 15.9626 73.8427 15.9626C75.2175 15.9626 76.5348 15.7176 77.7529 15.2697L77.6981 15.1552C76.4963 15.5949 75.1976 15.8353 73.8427 15.8353C72.3977 15.8353 71.0166 15.5627 69.7496 15.0664L69.6943 15.1796V15.1801Z" fill="#E95026"/>
<path fill-rule="evenodd" clip-rule="evenodd" d="M69.6582 15.2527C70.9528 15.7621 72.3648 16.0424 73.8419 16.0424C75.2289 16.0424 76.558 15.7947 77.787 15.3414L77.7349 15.2332C76.5218 15.6788 75.2103 15.9229 73.8419 15.9229C72.3838 15.9229 70.9909 15.6467 69.7116 15.1436L69.6582 15.2527Z" fill="#E95026"/>
<path fill-rule="evenodd" clip-rule="evenodd" d="M69.623 15.324C70.9286 15.8379 72.3518 16.1205 73.8421 16.1205C75.2418 16.1205 76.5826 15.8705 77.8225 15.4136L77.7699 15.305C76.5464 15.7551 75.2232 16.001 73.8421 16.001C72.3713 16.001 70.9662 15.722 69.6765 15.2148L69.623 15.324Z" fill="#E95026"/>
<path fill-rule="evenodd" clip-rule="evenodd" d="M69.5889 15.394C70.9048 15.9134 72.3403 16.1991 73.8428 16.1991C75.2551 16.1991 76.6078 15.9464 77.858 15.4845L77.8055 15.3763C76.5711 15.8314 75.2361 16.0805 73.8428 16.0805C72.3588 16.0805 70.9415 15.7993 69.6414 15.2871L69.5889 15.394Z" fill="#E64E26"/>
<path fill-rule="evenodd" clip-rule="evenodd" d="M69.5498 15.473C70.8775 15.9983 72.3261 16.2872 73.8422 16.2872C75.2677 16.2872 76.633 16.0309 77.895 15.5627L77.8398 15.4486C76.5945 15.9082 75.2478 16.16 73.8422 16.16C72.3456 16.16 70.9165 15.8761 69.606 15.3594L69.5498 15.4726V15.473Z" fill="#E64E26"/>
<path fill-rule="evenodd" clip-rule="evenodd" d="M69.5137 15.5452C70.8522 16.075 72.3126 16.3666 73.8418 16.3666C75.28 16.3666 76.6575 16.1076 77.9304 15.6353L77.8779 15.5275C76.6213 15.9931 75.2614 16.2475 73.8418 16.2475C72.3321 16.2475 70.8898 15.96 69.5676 15.4365L69.5137 15.5447V15.5452Z" fill="#E64E26"/>
<path fill-rule="evenodd" clip-rule="evenodd" d="M69.4795 15.6157C70.8289 16.1514 72.3015 16.4461 73.8434 16.4461C75.2943 16.4461 76.6836 16.1844 77.9669 15.7076L77.9135 15.5989C76.6465 16.0694 75.2748 16.3266 73.8434 16.3266C72.3206 16.3266 70.8661 16.0363 69.5329 15.5088L69.48 15.6157H69.4795Z" fill="#E84E26"/>
<path fill-rule="evenodd" clip-rule="evenodd" d="M69.4404 15.6953C70.8021 16.2364 72.2874 16.5349 73.8433 16.5349C75.3073 16.5349 76.7097 16.27 78.0048 15.7863L77.9496 15.6736C76.6712 16.1481 75.2878 16.4081 73.8433 16.4081C72.3073 16.4081 70.8406 16.1151 69.4966 15.583L69.4404 15.6953Z" fill="#E84E26"/>
<path fill-rule="evenodd" clip-rule="evenodd" d="M69.4043 15.7674C70.7764 16.313 72.2739 16.6137 73.8429 16.6137C75.3201 16.6137 76.7347 16.3461 78.0407 15.8579L77.9845 15.7443C76.6958 16.2238 75.3002 16.4865 73.8429 16.4865C72.2947 16.4865 70.8162 16.1903 69.4614 15.6523L69.4043 15.7669V15.7674Z" fill="#E84C26"/>
<path fill-rule="evenodd" clip-rule="evenodd" d="M69.3682 15.8373C70.7511 16.3889 72.2609 16.6927 73.8417 16.6927C75.332 16.6927 76.7584 16.4224 78.0752 15.9297L78.0213 15.8215C76.7208 16.3074 75.3125 16.5736 73.8417 16.5736C72.2794 16.5736 70.7878 16.2743 69.4212 15.7305L69.3682 15.8369V15.8373Z" fill="#E84C26"/>
<path fill-rule="evenodd" clip-rule="evenodd" d="M69.332 15.9092C70.7258 16.4652 72.2478 16.7723 73.8422 16.7723C75.3447 16.7723 76.7834 16.4992 78.1115 16.0011L78.0581 15.8938C76.7467 16.3842 75.3261 16.6527 73.8422 16.6527C72.2668 16.6527 70.763 16.3507 69.3859 15.8027L69.332 15.9092Z" fill="#E84C26"/>
<path fill-rule="evenodd" clip-rule="evenodd" d="M69.293 15.9866C70.699 16.5491 72.2341 16.8588 73.8426 16.8588C75.3595 16.8588 76.8113 16.5821 78.1513 16.0781L78.0947 15.9649C76.7724 16.4598 75.3396 16.7315 73.843 16.7315C72.2554 16.7315 70.7393 16.4259 69.3509 15.8721L69.2934 15.9862L69.293 15.9866Z" fill="#E84C26"/>
<path fill-rule="evenodd" clip-rule="evenodd" d="M69.2568 16.0566C70.6737 16.6245 72.2211 16.9378 73.8418 16.9378C75.3719 16.9378 76.8359 16.6584 78.1862 16.1494L78.1319 16.0417C76.7974 16.543 75.3519 16.8187 73.8418 16.8187C72.2401 16.8187 70.7113 16.5103 69.3107 15.9502L69.2568 16.0566Z" fill="#E84A26"/>
<path fill-rule="evenodd" clip-rule="evenodd" d="M69.2207 16.1298C70.648 16.7027 72.2076 17.0183 73.8418 17.0183C75.3842 17.0183 76.8604 16.7362 78.2225 16.2218L78.1691 16.1154C76.8237 16.6216 75.3656 16.8992 73.8418 16.8992C72.2266 16.8992 70.6856 16.5881 69.2746 16.0234L69.2207 16.1294V16.1298Z" fill="#E84A26"/>
<path fill-rule="evenodd" clip-rule="evenodd" d="M69.1836 16.202C70.6222 16.7798 72.194 17.0981 73.8423 17.0981C75.3978 17.0981 76.8867 16.8133 78.2592 16.2948L78.2044 16.187C76.8487 16.6983 75.3788 16.979 73.8423 16.979C72.2148 16.979 70.6612 16.6643 69.2388 16.0938L69.1836 16.202Z" fill="#E84A26"/>
<path fill-rule="evenodd" clip-rule="evenodd" d="M69.1445 16.2773C70.5954 16.8619 72.1812 17.1848 73.8422 17.1848C75.4122 17.1848 76.9138 16.8964 78.2985 16.3711L78.241 16.2579C76.8739 16.7741 75.3913 17.0576 73.8427 17.0576C72.2016 17.0576 70.6357 16.7401 69.2025 16.165L69.1454 16.2773H69.1445Z" fill="#E84A26"/>
<path fill-rule="evenodd" clip-rule="evenodd" d="M69.1088 16.3496C70.5706 16.9392 72.1686 17.2643 73.8432 17.2643C75.4258 17.2643 76.9401 16.9727 78.3357 16.442L78.2814 16.3355C76.9021 16.8581 75.4064 17.1448 73.8427 17.1448C72.1872 17.1448 70.6082 16.8241 69.1627 16.2432L69.1084 16.3491L69.1088 16.3496Z" fill="#E74727"/>
<path fill-rule="evenodd" clip-rule="evenodd" d="M69.0713 16.4218C70.5439 17.0159 72.1542 17.3442 73.8423 17.3442C75.4381 17.3442 76.9646 17.0503 78.3715 16.5155L78.3412 16.4544L78.3176 16.4082C76.9275 16.9357 75.4195 17.226 73.8428 17.226C72.175 17.226 70.5833 16.9018 69.127 16.3145L69.0718 16.4222L69.0713 16.4218Z" fill="#E74727"/>
<path fill-rule="evenodd" clip-rule="evenodd" d="M69.0332 16.498C70.518 17.0994 72.1414 17.4313 73.8427 17.4313C75.4525 17.4313 76.9922 17.1338 78.4104 16.5927L78.3538 16.479C76.9523 17.0116 75.4317 17.3045 73.8427 17.3045C72.1614 17.3045 70.557 16.9776 69.0903 16.3857L69.0554 16.4537L69.0337 16.4976L69.0332 16.498Z" fill="#E74727"/>
<path fill-rule="evenodd" clip-rule="evenodd" d="M68.9971 16.5708C70.4923 17.1767 72.1279 17.5113 73.8424 17.5113C75.4653 17.5113 77.0172 17.2111 78.4463 16.6654C78.4282 16.6278 78.4087 16.5898 78.3897 16.5517C76.9773 17.0888 75.4445 17.3841 73.8424 17.3841C72.1474 17.3841 70.5313 17.0544 69.0532 16.458L68.9971 16.5703V16.5708Z" fill="#E74727"/>
<path fill-rule="evenodd" clip-rule="evenodd" d="M68.9609 16.6433C70.4671 17.2537 72.1149 17.5911 73.842 17.5911C75.4767 17.5911 77.0399 17.2881 78.4795 16.7375L78.4278 16.6288C77.0041 17.1727 75.4582 17.4711 73.842 17.4711C72.1344 17.4711 70.5051 17.1374 69.0148 16.5342L68.9609 16.6433Z" fill="#E74527"/>
<path fill-rule="evenodd" clip-rule="evenodd" d="M68.9277 16.7138C70.4443 17.3296 72.1035 17.6697 73.8423 17.6697C75.4888 17.6697 77.0633 17.3649 78.5137 16.8098L78.463 16.7002C77.0284 17.249 75.4707 17.5501 73.8423 17.5501C72.1216 17.5501 70.48 17.2146 68.9794 16.6064L68.9277 16.7138Z" fill="#E74527"/>
<path fill-rule="evenodd" clip-rule="evenodd" d="M68.8896 16.7928C70.4175 17.4137 72.0893 17.7569 73.8413 17.7569C75.501 17.7569 77.0877 17.449 78.5485 16.8888C78.5318 16.8503 78.5132 16.8118 78.4955 16.7738C77.0506 17.3263 75.4815 17.6297 73.8413 17.6297C72.107 17.6297 70.4537 17.2914 68.9422 16.6787L68.8896 16.7928Z" fill="#E74526"/>
<path fill-rule="evenodd" clip-rule="evenodd" d="M68.8574 16.8669C70.3952 17.4923 72.0784 17.8373 73.8431 17.8373C75.5136 17.8373 77.1107 17.5271 78.5815 16.9629L78.5308 16.847C77.0759 17.404 75.4959 17.7096 73.8431 17.7096C72.0979 17.7096 70.4333 17.3686 68.9109 16.751L68.8574 16.8669Z" fill="#E74526"/>
<path fill-rule="evenodd" clip-rule="evenodd" d="M68.8262 16.9382C70.3739 17.5681 72.0671 17.9159 73.8426 17.9159C75.524 17.9159 77.132 17.6034 78.6123 17.0356L78.5652 16.9246C77.0994 17.4875 75.5072 17.7963 73.8426 17.7963C72.0843 17.7963 70.407 17.4522 68.8742 16.8291L68.8262 16.9378V16.9382Z" fill="#E74226"/>
<path fill-rule="evenodd" clip-rule="evenodd" d="M68.7939 17.012C70.3512 17.6451 72.0548 17.9951 73.8416 17.9951C75.5343 17.9951 77.1532 17.6813 78.6426 17.1098L78.5959 16.9993C77.1206 17.5654 75.5176 17.8765 73.8416 17.8765C72.0711 17.8765 70.3825 17.53 68.8401 16.9033L68.7939 17.0124V17.012Z" fill="#E74226"/>
<path fill-rule="evenodd" clip-rule="evenodd" d="M68.7607 17.0923C70.3284 17.7299 72.0438 18.0822 73.8424 18.0822C75.546 18.0822 77.1748 17.7657 78.6746 17.1893L78.6279 17.072C77.1431 17.6416 75.5296 17.955 73.8424 17.955C72.0614 17.955 70.3629 17.6063 68.8106 16.9746C68.7938 17.014 68.7766 17.0529 68.7607 17.0919V17.0923Z" fill="#E74226"/>
<path fill-rule="evenodd" clip-rule="evenodd" d="M68.7324 17.168C70.3087 17.8092 72.034 18.1634 73.8431 18.1634C75.557 18.1634 77.1958 17.8446 78.7042 17.2654L78.6607 17.1535C77.1655 17.7282 75.5412 18.0443 73.8431 18.0443C72.0503 18.0443 70.34 17.6929 68.7773 17.0566L68.7324 17.168Z" fill="#E74226"/>
<path fill-rule="evenodd" clip-rule="evenodd" d="M68.7021 17.2408C70.2875 17.8852 72.0223 18.2416 73.8413 18.2416C75.5653 18.2416 77.214 17.9214 78.731 17.3395L78.6884 17.2272C77.1846 17.805 75.5503 18.122 73.8413 18.122C72.0377 18.122 70.317 17.7688 68.7452 17.1299L68.7021 17.2408Z" fill="#E74226"/>
<path fill-rule="evenodd" clip-rule="evenodd" d="M68.6709 17.3232C70.2658 17.9717 72.0114 18.3298 73.8413 18.3298C75.5752 18.3298 77.2335 18.0079 78.76 17.4215C78.7459 17.3821 78.7324 17.3422 78.7174 17.3024C77.2041 17.8834 75.5603 18.2026 73.8413 18.2026C72.0277 18.2026 70.2979 17.8471 68.7166 17.2041C68.7012 17.244 68.6854 17.2838 68.6709 17.3232Z" fill="#E74224"/>
<path fill-rule="evenodd" clip-rule="evenodd" d="M68.6455 17.3974C70.249 18.0486 72.0033 18.4081 73.8431 18.4081C75.5861 18.4081 77.2529 18.0844 78.7876 17.4957L78.7455 17.3766C77.2239 17.9603 75.5711 18.2813 73.8431 18.2813C72.0187 18.2813 70.2789 17.9245 68.689 17.2783L68.646 17.3974H68.6455Z" fill="#E74224"/>
<path fill-rule="evenodd" clip-rule="evenodd" d="M68.6191 17.4727C70.2308 18.1265 71.9945 18.4879 73.8425 18.4879C75.595 18.4879 77.27 18.1632 78.8124 17.5723L78.7739 17.4591C77.2433 18.0464 75.5809 18.3688 73.8425 18.3688C72.0077 18.3688 70.2579 18.0097 68.6585 17.3604L68.6191 17.4722V17.4727Z" fill="#E74224"/>
<path fill-rule="evenodd" clip-rule="evenodd" d="M68.5928 17.55C70.2126 18.2062 71.9845 18.5685 73.8424 18.5685C75.6026 18.5685 77.2862 18.2429 78.8367 17.6492C78.8245 17.6107 78.8132 17.5727 78.8 17.5342C77.2618 18.1242 75.5899 18.4485 73.8424 18.4485C71.999 18.4485 70.2402 18.0876 68.6322 17.4346L68.5928 17.5496V17.55Z" fill="#E74224"/>
<path fill-rule="evenodd" clip-rule="evenodd" d="M68.5664 17.6326C70.1948 18.291 71.9753 18.6546 73.8423 18.6546C75.612 18.6546 77.3042 18.3272 78.8629 17.7313C78.8506 17.691 78.8375 17.6507 78.8244 17.6099C77.2775 18.2022 75.598 18.5278 73.8423 18.5278C71.9889 18.5278 70.2215 18.166 68.6053 17.5107C68.5918 17.5515 68.5791 17.5918 68.5664 17.6326Z" fill="#E54125"/>
<path fill-rule="evenodd" clip-rule="evenodd" d="M68.5434 17.7084C70.1795 18.37 71.9682 18.735 73.8429 18.735C75.6203 18.735 77.3197 18.4067 78.8852 17.8089L78.849 17.6876C77.2949 18.2817 75.6071 18.6082 73.8425 18.6082C71.9809 18.6082 70.2044 18.2455 68.5806 17.5889L68.543 17.7084H68.5434Z" fill="#E54125"/>
<path fill-rule="evenodd" clip-rule="evenodd" d="M68.5195 17.7853C70.1624 18.4478 71.9588 18.8137 73.8417 18.8137C75.6258 18.8137 77.3334 18.4845 78.9061 17.8849L78.8735 17.7695C77.3113 18.3668 75.6154 18.6946 73.8417 18.6946C71.9715 18.6946 70.1869 18.3296 68.5544 17.6689L68.5195 17.7849V17.7853Z" fill="#E54125"/>
<path fill-rule="evenodd" clip-rule="evenodd" d="M68.498 17.8639C70.1482 18.5277 71.9513 18.8936 73.8424 18.8936C75.6342 18.8936 77.3486 18.564 78.9286 17.9635C78.9186 17.9246 78.9068 17.8852 78.896 17.8462C77.3264 18.4453 75.6233 18.7745 73.8424 18.7745C71.9636 18.7745 70.1708 18.4091 68.5311 17.7471L68.498 17.8643V17.8639Z" fill="#E54125"/>
<path fill-rule="evenodd" clip-rule="evenodd" d="M68.4746 17.9456C70.1324 18.6121 71.9442 18.9803 73.842 18.9803C75.6416 18.9803 77.3628 18.6493 78.949 18.047C78.9391 18.0058 78.9287 17.965 78.9178 17.9238C77.3415 18.5238 75.6307 18.8535 73.8425 18.8535C71.9555 18.8535 70.156 18.4876 68.5095 17.8242C68.4982 17.8645 68.4859 17.9057 68.4751 17.946L68.4746 17.9456Z" fill="#E54125"/>
<path fill-rule="evenodd" clip-rule="evenodd" d="M68.4551 18.0254C70.1192 18.6929 71.9378 19.061 73.8429 19.061C75.6483 19.061 77.3754 18.7296 78.9685 18.1259C78.9594 18.087 78.9494 18.0481 78.9395 18.0087C77.3564 18.6109 75.6388 18.9415 73.8433 18.9415C71.9491 18.9415 70.141 18.5733 68.4863 17.9072L68.4555 18.0254H68.4551Z" fill="#E54125"/>
<path fill-rule="evenodd" clip-rule="evenodd" d="M68.4365 18.104C70.107 18.7715 71.9315 19.1396 73.8433 19.1396C75.6546 19.1396 77.3886 18.8086 78.987 18.2045L78.9594 18.0854C77.3695 18.6891 75.6456 19.0205 73.8433 19.0205C71.9419 19.0205 70.1269 18.6524 68.466 17.9854L68.4365 18.1035V18.104Z" fill="#E64024"/>
<path fill-rule="evenodd" clip-rule="evenodd" d="M68.416 18.1876C70.0933 18.8574 71.9245 19.2269 73.8423 19.2269C75.6604 19.2269 77.3997 18.895 79.0041 18.29C78.9955 18.2483 78.9869 18.2067 78.9774 18.165C77.3816 18.7686 75.6509 19.1001 73.8423 19.1001C71.9336 19.1001 70.1128 18.7319 68.4454 18.0645C68.4355 18.1057 68.4255 18.1469 68.416 18.1876Z" fill="#E64024"/>
<path fill-rule="evenodd" clip-rule="evenodd" d="M68.3984 18.2679C70.0816 18.9372 71.9178 19.3063 73.8415 19.3063C75.6646 19.3063 77.4098 18.9739 79.0196 18.368C79.0114 18.3268 79.0019 18.2851 78.9933 18.2435C77.3917 18.8476 75.6559 19.1795 73.8415 19.1795C71.9269 19.1795 70.0993 18.8104 68.4256 18.1416C68.4156 18.1842 68.407 18.2263 68.3984 18.2684V18.2679Z" fill="#E63B24"/>
<path fill-rule="evenodd" clip-rule="evenodd" d="M68.3818 18.349C70.07 19.0182 71.9125 19.3869 73.8421 19.3869C75.6701 19.3869 77.4199 19.0549 79.0347 18.4499L79.012 18.329C77.4045 18.9345 75.662 19.2673 73.8421 19.2673C71.9216 19.2673 70.0876 18.8983 68.4072 18.2285C68.3986 18.2688 68.3895 18.3091 68.3818 18.349Z" fill="#E63B24"/>
<path fill-rule="evenodd" clip-rule="evenodd" d="M68.3672 18.4267C70.0608 19.0964 71.9079 19.4651 73.8415 19.4651C75.6741 19.4651 77.4288 19.1336 79.049 18.5286L79.0277 18.4086C77.4152 19.014 75.6677 19.346 73.8419 19.346C71.9156 19.346 70.0762 18.9774 68.3907 18.3076L68.3677 18.4263L68.3672 18.4267Z" fill="#E63B24"/>
<path fill-rule="evenodd" clip-rule="evenodd" d="M68.3516 18.5149C70.0506 19.1846 71.9027 19.5528 73.8412 19.5528C75.6784 19.5528 77.4372 19.2213 79.0624 18.6159L79.0415 18.4891C77.4236 19.094 75.6716 19.426 73.8412 19.426C71.9099 19.426 70.0655 19.0569 68.3742 18.3867C68.3661 18.4297 68.3584 18.4723 68.3516 18.5149Z" fill="#E63B24"/>
<path fill-rule="evenodd" clip-rule="evenodd" d="M68.3389 18.5964C70.042 19.2647 71.8986 19.6325 73.8421 19.6325C75.6829 19.6325 77.4458 19.3014 79.0751 18.6974C79.0692 18.6543 79.0633 18.6118 79.0565 18.5683C77.434 19.1733 75.6766 19.5052 73.8421 19.5052C71.9058 19.5052 70.0569 19.1371 68.3606 18.4678C68.3529 18.5108 68.3457 18.5543 68.3389 18.5968V18.5964Z" fill="#E63B24"/>
<path fill-rule="evenodd" clip-rule="evenodd" d="M68.3271 18.6756C70.0352 19.344 71.8955 19.7112 73.8422 19.7112C75.6861 19.7112 77.4531 19.3811 79.086 18.7779C79.081 18.7376 79.0747 18.6969 79.0688 18.6561C77.4418 19.2607 75.6811 19.5921 73.8422 19.5921C71.9009 19.5921 70.0461 19.224 68.3448 18.5547C68.338 18.595 68.333 18.6353 68.3271 18.6751V18.6756Z" fill="#E63B24"/>
<path fill-rule="evenodd" clip-rule="evenodd" d="M68.3149 18.7581C70.027 19.4251 71.8909 19.7914 73.8412 19.7914C75.6879 19.7914 77.4571 19.4622 79.0941 18.8604C79.0896 18.8197 79.085 18.7789 79.0796 18.7382C77.4485 19.3422 75.6843 19.6732 73.8412 19.6732C71.8968 19.6732 70.0384 19.3056 68.3321 18.6367C68.3262 18.6775 68.3199 18.7182 68.3145 18.759L68.3149 18.7581Z" fill="#E63B24"/>
<path fill-rule="evenodd" clip-rule="evenodd" d="M68.3047 18.8477C70.0205 19.5134 71.8879 19.8793 73.8415 19.8793C75.6913 19.8793 77.4636 19.551 79.1038 18.9501C79.0997 18.9071 79.0948 18.864 79.0898 18.821C77.4551 19.4233 75.6872 19.7525 73.8415 19.7525C71.8929 19.7525 70.0309 19.3852 68.321 18.7178L68.3052 18.8482L68.3047 18.8477Z" fill="#E63B24"/>
<path fill-rule="evenodd" clip-rule="evenodd" d="M68.2969 18.9279C70.0167 19.5931 71.8865 19.9581 73.8422 19.9581C75.6943 19.9581 77.469 19.6307 79.1118 19.0316L79.1005 18.9076C77.4617 19.5094 75.6907 19.8386 73.8427 19.8386C71.8906 19.8386 70.0249 19.4722 68.3105 18.8057C68.3055 18.8464 68.3014 18.8872 68.2973 18.9279H68.2969Z" fill="#E63B24"/>
<path fill-rule="evenodd" clip-rule="evenodd" d="M68.2891 19.0122C70.0116 19.6747 71.8836 20.0388 73.8421 20.0388C75.6951 20.0388 77.472 19.7128 79.1181 19.1155C79.1154 19.0743 79.1122 19.0326 79.1086 18.9909C77.4671 19.5914 75.6933 19.9192 73.8421 19.9192C71.8877 19.9192 70.0193 19.5534 68.3013 18.8877L68.2891 19.0122Z" fill="#E63B24"/>
<path fill-rule="evenodd" clip-rule="evenodd" d="M68.2827 19.1029C70.008 19.7632 71.8822 20.1259 73.8421 20.1259C75.6969 20.1259 77.4756 19.8007 79.1235 19.2053L79.1149 19.0748C77.4706 19.6726 75.6946 19.9991 73.8421 19.9991C71.885 19.9991 70.0134 19.6346 68.2922 18.9707C68.2881 19.0151 68.2854 19.059 68.2822 19.1034L68.2827 19.1029Z" fill="#E63B24"/>
<path fill-rule="evenodd" clip-rule="evenodd" d="M68.2773 19.1836C70.0058 19.8425 71.8814 20.2043 73.8422 20.2043C75.6979 20.2043 77.4775 19.8805 79.1272 19.2873C79.1254 19.2434 79.124 19.1999 79.1213 19.1555C77.4739 19.7519 75.6965 20.077 73.8422 20.077C71.8832 20.077 70.0099 19.7139 68.2864 19.0527C68.2832 19.0962 68.2796 19.1401 68.2773 19.1836Z" fill="#E63925"/>
<path fill-rule="evenodd" clip-rule="evenodd" d="M68.2725 19.2684C70.0023 19.9241 71.8793 20.2836 73.8409 20.2836C75.6971 20.2836 77.4776 19.9608 79.1291 19.3703C79.1282 19.3291 79.1259 19.2874 79.1241 19.2453C77.4749 19.8399 75.6962 20.1646 73.8409 20.1646C71.8806 20.1646 70.0055 19.8018 68.2784 19.1416L68.2725 19.2684Z" fill="#E63925"/>
<path fill-rule="evenodd" clip-rule="evenodd" d="M68.2705 19.3528C70.0021 20.0054 71.88 20.3631 73.843 20.3631C75.6983 20.3631 77.4784 20.0425 79.1312 19.4556C79.1307 19.4135 79.1307 19.3714 79.1294 19.3288C77.4788 19.9202 75.6992 20.2435 73.843 20.2435C71.8818 20.2435 70.0048 19.8826 68.2759 19.2256C68.2741 19.2682 68.2719 19.3107 68.271 19.3528H68.2705Z" fill="#E63925"/>
<path fill-rule="evenodd" clip-rule="evenodd" d="M68.269 19.4432C70.0025 20.093 71.8803 20.4498 73.842 20.4498C75.6973 20.4498 77.4773 20.1306 79.1311 19.546C79.1315 19.5016 79.1311 19.4567 79.1302 19.4124C77.4778 20.001 75.6973 20.3226 73.842 20.3226C71.8799 20.3226 70.0024 19.9635 68.2713 19.3096L68.2686 19.4427L68.269 19.4432Z" fill="#E63925"/>
<path fill-rule="evenodd" clip-rule="evenodd" d="M68.2686 19.53C70.0029 20.1762 71.8808 20.5303 73.8424 20.5303C75.6963 20.5303 77.4755 20.2133 79.1297 19.6319C79.1306 19.5875 79.1315 19.5427 79.1315 19.4978C77.4782 20.0834 75.6981 20.4035 73.8424 20.4035C71.8799 20.4035 70.002 20.0462 68.2695 19.3955C68.2686 19.4408 68.2686 19.4856 68.2686 19.5305V19.53Z" fill="#E63926"/>
<path fill-rule="evenodd" clip-rule="evenodd" d="M68.2699 19.6173C70.0047 20.259 71.8817 20.6104 73.842 20.6104C75.6945 20.6104 77.4728 20.2957 79.127 19.7188C79.1288 19.6762 79.1302 19.6341 79.1306 19.5911C77.4769 20.1734 75.6968 20.4918 73.842 20.4918C71.8808 20.4918 70.0024 20.1363 68.2686 19.4883L68.2699 19.6173Z" fill="#E63926"/>
<path fill-rule="evenodd" clip-rule="evenodd" d="M68.2731 19.7013C70.0079 20.3398 71.8845 20.689 73.843 20.689C75.6932 20.689 77.4701 20.377 79.1239 19.8037C79.1261 19.7606 79.128 19.7176 79.1293 19.6746C77.4751 20.2533 75.6964 20.5694 73.843 20.5694C71.8817 20.5694 70.0043 20.2166 68.2695 19.5723C68.27 19.6153 68.2713 19.6579 68.2731 19.7009V19.7013Z" fill="#E63926"/>
<path fill-rule="evenodd" clip-rule="evenodd" d="M68.2775 19.7965C70.0123 20.4304 71.887 20.7768 73.8432 20.7768C75.6907 20.7768 77.4654 20.4666 79.1187 19.8974C79.1218 19.8522 79.125 19.8073 79.1273 19.7616C77.4727 20.3367 75.6948 20.6496 73.8432 20.6496C71.8833 20.6496 70.0073 20.2996 68.2725 19.6602C68.2738 19.7054 68.2752 19.7512 68.2775 19.796V19.7965Z" fill="#E63926"/>
<path fill-rule="evenodd" clip-rule="evenodd" d="M68.2816 19.8843C70.0155 20.5132 71.8884 20.8565 73.8414 20.8565C75.6858 20.8565 77.4582 20.5495 79.1101 19.9852C79.1138 19.9422 79.1169 19.8987 79.1196 19.8553C77.4659 20.4263 75.6908 20.7374 73.8414 20.7374C71.8843 20.7374 70.0082 20.3892 68.2734 19.7529C68.2752 19.7973 68.2784 19.8408 68.2816 19.8847V19.8843Z" fill="#E63926"/>
<path fill-rule="evenodd" clip-rule="evenodd" d="M68.2889 19.969C70.0223 20.5939 71.8925 20.9353 73.8433 20.9353C75.6836 20.9353 77.4524 20.6315 79.1029 20.0722C79.1075 20.0287 79.112 19.9848 79.1156 19.9409C77.4628 20.5078 75.6895 20.8167 73.8433 20.8167C71.8884 20.8167 70.0146 20.4721 68.2803 19.8408C68.283 19.8838 68.2857 19.9264 68.2893 19.969H68.2889Z" fill="#E63926"/>
<path fill-rule="evenodd" clip-rule="evenodd" d="M68.2964 20.0576C70.0285 20.6766 71.8955 21.0149 73.8422 21.0149C75.6784 21.0149 77.4441 20.7142 79.0924 20.1595C79.0973 20.116 79.1019 20.0726 79.1059 20.0286C77.4549 20.5902 75.6843 20.8954 73.8422 20.8954C71.8896 20.8954 70.0181 20.5535 68.2842 19.9268C68.2873 19.9707 68.2919 20.0141 68.2964 20.0576Z" fill="#E63926"/>
<path fill-rule="evenodd" clip-rule="evenodd" d="M68.3065 20.1526C70.0363 20.7667 71.8997 21.1013 73.8419 21.1013C75.6731 21.1013 77.4342 20.8033 79.0798 20.2545C79.0861 20.2083 79.0924 20.1621 79.0974 20.1155C77.4482 20.672 75.6808 20.9745 73.8419 20.9745C71.8933 20.9745 70.0245 20.6349 68.292 20.0127C68.2965 20.0598 68.3006 20.1064 68.306 20.1526H68.3065Z" fill="#E63926"/>
<path fill-rule="evenodd" clip-rule="evenodd" d="M68.3181 20.2406C70.0461 20.8492 71.9049 21.1816 73.8421 21.1816C75.6684 21.1816 77.4249 20.8864 79.0674 20.3425C79.0741 20.299 79.08 20.2547 79.0859 20.2107C77.439 20.7627 75.6756 21.0621 73.8421 21.0621C71.8977 21.0621 70.0325 20.7252 68.3018 20.1084L68.3181 20.2402V20.2406Z" fill="#E53627"/>
<path fill-rule="evenodd" clip-rule="evenodd" d="M68.3302 20.3305C70.055 20.9327 71.9098 21.2615 73.842 21.2615C75.6619 21.2615 77.4135 20.9694 79.0528 20.4314C79.0605 20.388 79.0677 20.3441 79.074 20.2997C77.4298 20.8458 75.671 21.1424 73.842 21.1424C71.9021 21.1424 70.041 20.8091 68.3125 20.1982C68.3184 20.2426 68.3238 20.2865 68.3302 20.33V20.3305Z" fill="#E53627"/>
<path fill-rule="evenodd" clip-rule="evenodd" d="M68.3469 20.4278C70.0681 21.0233 71.9165 21.3479 73.842 21.3479C75.6551 21.3479 77.4008 21.0595 79.036 20.5279C79.0446 20.4812 79.0527 20.4346 79.0604 20.3875C77.4198 20.9277 75.6655 21.2212 73.8424 21.2212C71.9075 21.2212 70.0509 20.8906 68.3242 20.2852C68.331 20.3332 68.3392 20.3807 68.3469 20.4278Z" fill="#E43626"/>
<path fill-rule="evenodd" clip-rule="evenodd" d="M68.3623 20.5172C70.0799 21.1068 71.9234 21.4283 73.842 21.4283C75.6484 21.4283 77.3877 21.1435 79.0179 20.6182C79.0279 20.5711 79.0374 20.5235 79.0455 20.4755C77.4076 21.0103 75.6588 21.3006 73.842 21.3006C71.913 21.3006 70.0609 20.9736 68.3379 20.375C68.3456 20.4225 68.3533 20.4701 68.3623 20.5172Z" fill="#E43626"/>
<path fill-rule="evenodd" clip-rule="evenodd" d="M68.3813 20.6086C70.0943 21.1909 71.9315 21.5074 73.8433 21.5074C75.6415 21.5074 77.3736 21.2262 78.9997 20.7073C79.0097 20.6629 79.0187 20.6181 79.0278 20.5733C77.3953 21.1017 75.6533 21.3883 73.8438 21.3883C71.921 21.3883 70.0749 21.0659 68.3555 20.4736C68.3636 20.5189 68.3722 20.5633 68.3817 20.6081L68.3813 20.6086Z" fill="#E33427"/>
<path fill-rule="evenodd" clip-rule="evenodd" d="M68.3996 20.6997C70.1077 21.2744 71.938 21.5863 73.8422 21.5863C75.6322 21.5863 77.3571 21.3097 78.9768 20.7984C78.9877 20.7531 78.9986 20.7079 79.0086 20.6621C77.3811 21.1838 75.6449 21.4673 73.8422 21.4673C71.9267 21.4673 70.0864 21.1485 68.3711 20.5625C68.3802 20.6087 68.3897 20.6549 68.3996 20.7002V20.6997Z" fill="#E33427"/>
<path fill-rule="evenodd" clip-rule="evenodd" d="M68.4227 20.7973C70.1253 21.3652 71.9475 21.6736 73.8422 21.6736C75.6223 21.6736 77.3389 21.4014 78.9519 20.8969C78.9646 20.8489 78.9764 20.8009 78.9877 20.7525C77.3648 21.2674 75.6363 21.5463 73.8422 21.5463C71.9339 21.5463 70.1004 21.232 68.3896 20.6533C68.4001 20.7018 68.4114 20.7493 68.4227 20.7969V20.7973Z" fill="#E33427"/>
<path fill-rule="evenodd" clip-rule="evenodd" d="M68.4461 20.8907C70.1424 21.4509 71.9569 21.7547 73.8425 21.7547C75.6126 21.7547 77.3207 21.4871 78.9274 20.9899C78.94 20.9442 78.9532 20.8989 78.965 20.8527C77.3483 21.3603 75.6281 21.6352 73.843 21.6352C71.9443 21.6352 70.118 21.3259 68.4131 20.7549C68.424 20.8006 68.4348 20.8459 68.4466 20.8907H68.4461Z" fill="#E33427"/>
<path fill-rule="evenodd" clip-rule="evenodd" d="M68.4717 20.9818C70.1617 21.5333 71.9666 21.8327 73.8427 21.8327C75.6029 21.8327 77.3015 21.5691 78.9009 21.0805C78.9144 21.0352 78.9276 20.989 78.9403 20.9433C77.3304 21.4437 75.6187 21.7131 73.8427 21.7131C71.9526 21.7131 70.134 21.407 68.4346 20.8428C68.4463 20.8894 68.459 20.9356 68.4722 20.9818H68.4717Z" fill="#E33427"/>
<path fill-rule="evenodd" clip-rule="evenodd" d="M68.4979 21.0737C70.181 21.6176 71.977 21.9124 73.8422 21.9124C75.5919 21.9124 77.2805 21.6529 78.8718 21.172C78.8863 21.1267 78.9008 21.081 78.9143 21.0348C77.3113 21.5279 75.6078 21.7937 73.8417 21.7937C71.9607 21.7937 70.1516 21.4917 68.458 20.9365C68.4707 20.9827 68.4834 21.0284 68.4974 21.0742L68.4979 21.0737Z" fill="#E33427"/>
<path fill-rule="evenodd" clip-rule="evenodd" d="M68.5291 21.1755C70.2037 21.7103 71.9888 22.0001 73.8418 22.0001C75.5788 22.0001 77.2556 21.7451 78.8378 21.2733C78.8546 21.2248 78.8704 21.1759 78.8858 21.127C77.2905 21.6116 75.5969 21.8728 73.8418 21.8728C71.9707 21.8728 70.1702 21.5758 68.4834 21.0283C68.4979 21.0777 68.5133 21.1266 68.5287 21.175L68.5291 21.1755Z" fill="#E33427"/>
<path fill-rule="evenodd" clip-rule="evenodd" d="M68.5613 21.2716C70.2273 21.7969 72.001 22.0808 73.8418 22.0808C75.5666 22.0808 77.2326 21.8304 78.8057 21.3667C78.8225 21.3205 78.8383 21.2743 78.8541 21.2277C77.2674 21.7041 75.5847 21.9613 73.8418 21.9613C71.9833 21.9613 70.1933 21.6688 68.5146 21.1299C68.5296 21.1774 68.545 21.2245 68.5608 21.2716H68.5613Z" fill="#E33427"/>
<path fill-rule="evenodd" clip-rule="evenodd" d="M68.5943 21.3635C70.2517 21.8802 72.0145 22.1591 73.843 22.1591C75.5543 22.1591 77.2076 21.9141 78.7708 21.4595C78.7889 21.4128 78.8061 21.3662 78.8228 21.3187C77.2447 21.7869 75.5738 22.0396 73.843 22.0396C71.9955 22.0396 70.2154 21.7525 68.5449 21.2227C68.5608 21.2698 68.5771 21.3168 68.5938 21.3635H68.5943Z" fill="#E33427"/>
<path fill-rule="evenodd" clip-rule="evenodd" d="M68.6324 21.4668C70.2789 21.9731 72.0282 22.2461 73.8418 22.2461C75.5376 22.2461 77.1773 22.007 78.7292 21.5619C78.7491 21.5125 78.7686 21.4627 78.7876 21.4125C77.219 21.8717 75.5598 22.1189 73.8418 22.1189C72.0069 22.1189 70.2386 21.8377 68.5771 21.3174C68.5948 21.3676 68.6138 21.4175 68.6328 21.4668H68.6324Z" fill="#E53127"/>
<path fill-rule="evenodd" clip-rule="evenodd" d="M68.6707 21.5615C70.3068 22.0578 72.043 22.3254 73.843 22.3254C75.5239 22.3254 77.1495 22.0922 78.6901 21.6561C78.7114 21.6063 78.7326 21.5565 78.7526 21.5062C77.1944 21.9563 75.5474 22.1986 73.843 22.1986C72.0212 22.1986 70.2647 21.9228 68.6123 21.4111C68.6313 21.4614 68.6508 21.5117 68.6712 21.5615H68.6707Z" fill="#E53127"/>
<path fill-rule="evenodd" clip-rule="evenodd" d="M68.7102 21.6545C70.3354 22.1413 72.058 22.4044 73.8422 22.4044C75.5077 22.4044 77.1193 22.1762 78.6481 21.7496C78.6693 21.703 78.6897 21.6559 78.7101 21.6079C77.1637 22.0485 75.5308 22.2853 73.8422 22.2853C72.0358 22.2853 70.2924 22.015 68.6514 21.5137C68.6704 21.5612 68.6898 21.6079 68.7102 21.6545Z" fill="#E53127"/>
<path fill-rule="evenodd" clip-rule="evenodd" d="M68.7525 21.752C70.3655 22.2279 72.0731 22.4847 73.8418 22.4847C75.491 22.4847 77.0877 22.2615 78.6038 21.8453C78.6264 21.7982 78.6482 21.7511 78.6695 21.7036C77.1348 22.1347 75.5155 22.3652 73.8418 22.3652C72.05 22.3652 70.3206 22.1002 68.6904 21.6094C68.7108 21.6574 68.7312 21.7049 68.7525 21.752Z" fill="#E53127"/>
<path fill-rule="evenodd" clip-rule="evenodd" d="M68.802 21.8586C70.401 22.3232 72.0918 22.5732 73.842 22.5732C75.4722 22.5732 77.0512 22.3553 78.5524 21.9501C78.5777 21.9002 78.6017 21.85 78.6257 21.7993C77.1033 22.2204 75.4994 22.4464 73.842 22.4464C72.0651 22.4464 70.3498 22.1864 68.7305 21.7051C68.7531 21.7567 68.7776 21.8083 68.8016 21.859L68.802 21.8586Z" fill="#E52E27"/>
<path fill-rule="evenodd" clip-rule="evenodd" d="M68.8508 21.9549C70.4357 22.4081 72.1103 22.6513 73.8419 22.6513C75.4545 22.6513 77.0163 22.4394 78.5034 22.0441C78.5287 21.9965 78.5532 21.9485 78.5772 21.9001C77.0688 22.3112 75.4812 22.5318 73.8419 22.5318C72.0836 22.5318 70.3846 22.2786 68.7793 21.8086C68.8024 21.858 68.8264 21.9069 68.8508 21.9549Z" fill="#E52E27"/>
<path fill-rule="evenodd" clip-rule="evenodd" d="M68.9019 22.0521C70.4728 22.494 72.1301 22.7309 73.8436 22.7309C75.4362 22.7309 76.9804 22.5253 78.4516 22.1417C78.4783 22.0937 78.5042 22.0457 78.5295 21.9968C77.0352 22.3971 75.4648 22.6118 73.8436 22.6118C72.1025 22.6118 70.4193 22.365 68.8271 21.9062C68.8516 21.9552 68.8761 22.0036 68.9019 22.0516V22.0521Z" fill="#E52E27"/>
<path fill-rule="evenodd" clip-rule="evenodd" d="M68.9533 22.1496C70.5087 22.5798 72.148 22.8108 73.8416 22.8108C75.4133 22.8108 76.9385 22.612 78.3934 22.2393C78.4215 22.1913 78.4491 22.1424 78.4759 22.093C76.9969 22.4825 75.4437 22.6912 73.8416 22.6912C72.119 22.6912 70.4521 22.4512 68.874 22.0029C68.8998 22.0523 68.9261 22.1012 68.9533 22.1496Z" fill="#E52E27"/>
<path fill-rule="evenodd" clip-rule="evenodd" d="M69.016 22.2549C70.5539 22.6724 72.1718 22.8966 73.8428 22.8966C75.3919 22.8966 76.8958 22.7041 78.3321 22.3432C78.3634 22.2925 78.3942 22.2409 78.4241 22.1888C76.9605 22.5678 75.4254 22.7698 73.8428 22.7698C72.1392 22.7698 70.4909 22.5361 68.9277 22.0996C68.9563 22.1521 68.9857 22.2038 69.016 22.2554V22.2549Z" fill="#E52E27"/>
<path fill-rule="evenodd" clip-rule="evenodd" d="M69.0737 22.3537C70.5943 22.7595 72.1924 22.9773 73.842 22.9773C75.369 22.9773 76.8515 22.7907 78.2698 22.4411C78.3011 22.3931 78.331 22.3447 78.3608 22.2958C76.9159 22.6626 75.402 22.8577 73.842 22.8577C72.1602 22.8577 70.5323 22.6304 68.9863 22.207C69.0149 22.2564 69.0438 22.3057 69.0737 22.3537Z" fill="#E52E27"/>
<path fill-rule="evenodd" clip-rule="evenodd" d="M69.1382 22.4537C70.6398 22.8463 72.2165 23.0564 73.8427 23.0564C75.3461 23.0564 76.8069 22.8762 78.2061 22.5383C78.2388 22.4903 78.2704 22.4419 78.3017 22.3925C76.8744 22.748 75.3809 22.9377 73.8427 22.9377C72.1821 22.9377 70.5741 22.7168 69.0449 22.3047C69.0753 22.355 69.1065 22.4048 69.1386 22.4541L69.1382 22.4537Z" fill="#E52E27"/>
<path fill-rule="evenodd" clip-rule="evenodd" d="M69.2119 22.5636C70.6917 22.9422 72.2431 23.1437 73.8421 23.1437C75.3183 23.1437 76.7543 22.9712 78.1304 22.646C78.1671 22.5944 78.2033 22.5419 78.2386 22.4889C76.8294 22.8331 75.3572 23.0165 73.8416 23.0165C72.2037 23.0165 70.6166 22.8027 69.1055 22.4033C69.1399 22.4577 69.1752 22.5106 69.2114 22.5636H69.2119Z" fill="#E52E27"/>
<path fill-rule="evenodd" clip-rule="evenodd" d="M69.2805 22.6615C70.7404 23.0278 72.2682 23.223 73.8423 23.223C75.2927 23.223 76.7042 23.0577 78.0591 22.7453C78.0975 22.6936 78.1356 22.6407 78.1723 22.5877C76.7834 22.9192 75.3335 23.0962 73.8423 23.0962C72.2279 23.0962 70.663 22.8902 69.1709 22.5039C69.2067 22.5573 69.2429 22.6099 69.2805 22.6615Z" fill="#E52E27"/>
<path fill-rule="evenodd" clip-rule="evenodd" d="M69.3537 22.7617C70.7919 23.1144 72.2949 23.3023 73.8426 23.3023C75.2654 23.3023 76.6507 23.1434 77.9824 22.8436C78.0209 22.7947 78.0581 22.7454 78.0947 22.6951C76.729 23.0139 75.3057 23.1832 73.8422 23.1832C72.255 23.1832 70.7145 22.9845 69.2441 22.6113C69.2799 22.662 69.3161 22.7123 69.3533 22.7617H69.3537Z" fill="#E52E27"/>
<path fill-rule="evenodd" clip-rule="evenodd" d="M69.4329 22.8632C70.8475 23.2014 72.3237 23.3821 73.843 23.3821C75.2372 23.3821 76.5958 23.2295 77.9035 22.9429C77.9438 22.894 77.9832 22.8446 78.0217 22.7943C76.6782 23.1004 75.2794 23.263 73.843 23.263C72.2821 23.263 70.7664 23.071 69.3174 22.7119C69.355 22.7631 69.3935 22.8138 69.4329 22.8636V22.8632Z" fill="#E42B27"/>
<path fill-rule="evenodd" clip-rule="evenodd" d="M69.5222 22.9742C70.9096 23.298 72.356 23.4701 73.8426 23.4701C75.2043 23.4701 76.532 23.3252 77.8117 23.0521C77.857 23 77.9013 22.948 77.9444 22.8941C76.6244 23.1875 75.2518 23.3433 73.8431 23.3433C72.3093 23.3433 70.82 23.159 69.3936 22.8135C69.4357 22.8683 69.4787 22.9217 69.5226 22.9747L69.5222 22.9742Z" fill="#E42B27"/>
<path fill-rule="evenodd" clip-rule="evenodd" d="M69.6109 23.0758C70.9716 23.3847 72.3881 23.5486 73.843 23.5486C75.173 23.5486 76.4704 23.4114 77.7229 23.1515C77.7677 23.1021 77.8116 23.0518 77.8547 23.0007C76.5618 23.2805 75.2201 23.4291 73.843 23.4291C72.341 23.4291 70.8806 23.2529 69.4805 22.9219C69.523 22.9744 69.5669 23.0256 69.6113 23.0763L69.6109 23.0758Z" fill="#E42B27"/>
<path fill-rule="evenodd" clip-rule="evenodd" d="M69.7023 23.179C71.0354 23.4734 72.4206 23.6296 73.8429 23.6296C75.1389 23.6296 76.4046 23.5006 77.6277 23.2547C77.6753 23.2053 77.7215 23.1541 77.7676 23.103C76.5015 23.3697 75.1888 23.511 73.8429 23.511C72.3721 23.511 70.9407 23.3434 69.5664 23.0273C69.6108 23.079 69.6561 23.1297 69.7023 23.1795V23.179Z" fill="#E42B27"/>
<path fill-rule="evenodd" clip-rule="evenodd" d="M69.7975 23.2801C71.1016 23.5599 72.4542 23.7085 73.8426 23.7085C75.1037 23.7085 76.3364 23.5857 77.5291 23.3534C77.5785 23.305 77.6265 23.2552 77.674 23.204C76.4364 23.4567 75.1549 23.5894 73.8421 23.5894C72.4031 23.5894 71.0024 23.4291 69.6553 23.1279C69.7019 23.1796 69.749 23.2303 69.797 23.2796L69.7975 23.2801Z" fill="#E42B27"/>
<path fill-rule="evenodd" clip-rule="evenodd" d="M69.912 23.3943C71.1809 23.6569 72.4954 23.7959 73.8426 23.7959C75.0634 23.7959 76.2571 23.6809 77.4141 23.464C77.4702 23.4115 77.5255 23.3585 77.5794 23.3032C76.3708 23.5423 75.1214 23.6687 73.8426 23.6687C72.437 23.6687 71.0677 23.5161 69.749 23.2285C69.8025 23.2847 69.8563 23.3404 69.9116 23.3943H69.912Z" fill="#E42B27"/>
<path fill-rule="evenodd" clip-rule="evenodd" d="M70.0229 23.498C71.2573 23.7447 72.5342 23.8747 73.8425 23.8747C75.023 23.8747 76.1786 23.7683 77.3003 23.5663C77.3574 23.5161 77.4135 23.4649 77.4688 23.4119C76.2946 23.6365 75.0823 23.7552 73.8425 23.7552C72.4763 23.7552 71.1445 23.6116 69.8594 23.3408C69.9133 23.3943 69.9672 23.4468 70.0229 23.4975V23.498Z" fill="#E42B27"/>
<path fill-rule="evenodd" clip-rule="evenodd" d="M70.138 23.6012C71.3371 23.8326 72.5761 23.9553 73.8435 23.9553C74.9824 23.9553 76.0982 23.8566 77.1832 23.6687C77.243 23.6189 77.3023 23.5677 77.3602 23.5152C76.2196 23.7253 75.0449 23.8358 73.8431 23.8358C72.5154 23.8358 71.2194 23.7022 69.9678 23.4473C70.0235 23.4998 70.0801 23.5514 70.1376 23.6012H70.138Z" fill="#E32B27"/>
<path fill-rule="evenodd" clip-rule="evenodd" d="M70.2737 23.7149C71.4307 23.9287 72.6226 24.0414 73.8421 24.0414C74.9329 24.0414 76.0021 23.9504 77.044 23.7783C77.111 23.7263 77.1772 23.6728 77.2419 23.6171C76.1384 23.8123 75.0022 23.9142 73.8421 23.9142C72.5542 23.9142 71.2958 23.7874 70.0781 23.5479C70.142 23.6049 70.2072 23.6606 70.2737 23.7145V23.7149Z" fill="#E32B27"/>
<path fill-rule="evenodd" clip-rule="evenodd" d="M70.4097 23.8217C71.5241 24.0182 72.6712 24.121 73.8426 24.121C74.8855 24.121 75.9089 24.0386 76.9078 23.8819C76.9803 23.829 77.0518 23.7746 77.1216 23.718C76.0556 23.8987 74.9607 23.9938 73.8426 23.9938C72.5964 23.9938 71.3788 23.8756 70.1982 23.6523C70.2675 23.7103 70.3382 23.7669 70.4097 23.8217Z" fill="#E32928"/>
<path fill-rule="evenodd" clip-rule="evenodd" d="M70.5505 23.9258C71.621 24.106 72.7205 24.2011 73.8426 24.2011C74.8348 24.2011 75.8093 24.1268 76.762 23.9855C76.8354 23.9357 76.9078 23.8841 76.9789 23.8307C75.9578 23.9955 74.9104 24.0824 73.8426 24.0824C72.6476 24.0824 71.4775 23.9747 70.3418 23.7695C70.4106 23.8234 70.4799 23.8755 70.5505 23.9258Z" fill="#E32928"/>
<path fill-rule="evenodd" clip-rule="evenodd" d="M70.7053 24.032C71.7269 24.1946 72.7743 24.2806 73.8416 24.2806C74.7799 24.2806 75.7023 24.2136 76.6052 24.0872C76.6831 24.0379 76.7606 23.9872 76.8357 23.9337C75.8594 24.0832 74.8596 24.1611 73.8412 24.1611C72.6941 24.1611 71.5702 24.0619 70.4775 23.873C70.5523 23.9278 70.6274 23.9813 70.7049 24.032H70.7053Z" fill="#E42928"/>
<path fill-rule="evenodd" clip-rule="evenodd" d="M70.8937 24.1501C71.8555 24.2932 72.8399 24.368 73.8416 24.368C74.7142 24.368 75.5737 24.3109 76.4164 24.2018C76.5079 24.1492 76.5975 24.094 76.6858 24.036C75.7571 24.1701 74.8075 24.2407 73.8416 24.2407C72.7467 24.2407 71.673 24.1501 70.627 23.9785C70.7143 24.0383 70.8031 24.0953 70.8937 24.1497V24.1501Z" fill="#E42928"/>
<path fill-rule="evenodd" clip-rule="evenodd" d="M71.0779 24.2566C71.9813 24.382 72.9042 24.4481 73.842 24.4481C74.6498 24.4481 75.4464 24.3988 76.2289 24.3055C76.3226 24.2566 76.415 24.2041 76.5064 24.1497C75.6347 24.267 74.7454 24.329 73.842 24.329C72.8095 24.329 71.7961 24.2498 70.8066 24.0977C70.8958 24.1534 70.986 24.2068 71.0779 24.2571V24.2566Z" fill="#E42928"/>
<path fill-rule="evenodd" clip-rule="evenodd" d="M71.2862 24.3642C72.123 24.4706 72.9762 24.5259 73.842 24.5259C74.5774 24.5259 75.3037 24.4846 76.0187 24.4077C76.1215 24.3597 76.223 24.308 76.323 24.2533C75.5107 24.3547 74.6824 24.4068 73.8424 24.4068C72.8707 24.4068 71.9156 24.3357 70.9814 24.2012C71.0815 24.2587 71.1834 24.313 71.2867 24.3637L71.2862 24.3642Z" fill="#E42928"/>
<path fill-rule="evenodd" clip-rule="evenodd" d="M71.5215 24.4721C72.2827 24.5595 73.057 24.6062 73.8418 24.6062C74.4952 24.6062 75.141 24.574 75.7786 24.5129C75.8967 24.4649 76.0131 24.4124 76.1277 24.3558C75.3773 24.4413 74.6152 24.4866 73.8418 24.4866C72.9388 24.4866 72.05 24.4255 71.1787 24.3096C71.291 24.368 71.4056 24.4223 71.5215 24.4721Z" fill="#E42928"/>
<path fill-rule="evenodd" clip-rule="evenodd" d="M71.8298 24.5933C72.4919 24.659 73.1639 24.6929 73.8431 24.6929C74.3915 24.6929 74.9349 24.6703 75.4724 24.6273C75.6168 24.5788 75.759 24.5235 75.8994 24.4624C75.2233 24.5312 74.5373 24.5666 73.8431 24.5666C73.0167 24.5666 72.2025 24.5159 71.4023 24.4189C71.5423 24.4837 71.6849 24.5417 71.8298 24.5933Z" fill="#E22929"/>
<path fill-rule="evenodd" clip-rule="evenodd" d="M72.1788 24.7047C72.7276 24.7491 73.2819 24.7731 73.842 24.7731C74.269 24.7731 74.6929 24.7582 75.1136 24.7324C75.2852 24.6889 75.4546 24.6359 75.6212 24.5748C75.0348 24.6259 74.442 24.654 73.842 24.654C73.1116 24.654 72.3907 24.6142 71.6807 24.5381C71.8441 24.6024 72.0103 24.6581 72.1788 24.7047Z" fill="#E22929"/>
<path fill-rule="evenodd" clip-rule="evenodd" d="M72.7008 24.8196C73.0789 24.8404 73.4593 24.8522 73.8424 24.8522C74.0874 24.8522 74.331 24.8463 74.5737 24.8377C74.8201 24.8042 75.0632 24.7512 75.3023 24.6806C74.8201 24.715 74.3332 24.7336 73.8424 24.7336C73.2179 24.7336 72.6012 24.7037 71.9912 24.6484C72.2235 24.7227 72.4608 24.7807 72.7008 24.8196Z" fill="#E22929"/>
<path fill-rule="evenodd" clip-rule="evenodd" d="M72.4023 24.7627C72.8262 24.8591 73.2614 24.8995 73.6979 24.8773C74.0937 24.8976 74.4886 24.8664 74.8753 24.7881C74.5329 24.8053 74.1883 24.8139 73.8419 24.8139C73.3578 24.8139 72.8778 24.7962 72.4023 24.7627Z" fill="#E12629"/>
<path fill-rule="evenodd" clip-rule="evenodd" d="M73.8825 23.9063C75.8165 24.0019 77.7265 22.6194 78.2455 20.5617C77.511 21.889 76.0882 22.7226 74.65 22.6511C71.9643 22.7865 69.3356 19.7905 71.1419 16.287C71.5336 15.5163 71.9249 14.7138 72.2849 13.9196V12.0439C71.645 13.6094 70.8621 15.3333 70.0397 16.9305C68.0572 20.7682 70.9422 24.0499 73.8829 23.9068L73.8825 23.9063Z" fill="#F3941B"/>
</svg>
